<svg width="57" height="57" viewBox="0 0 57 57" fill="none" xmlns="http://www.w3.org/2000/svg">
<path d="M11.8644 10.5347C12.0218 10.5352 12.1736 10.4764 12.2896 10.37L12.5223 10.1607C12.6358 10.0472 12.7017 9.89467 12.7066 9.73424C12.7115 9.57381 12.655 9.41756 12.5486 9.29739C12.4422 9.17721 12.2939 9.10217 12.1341 9.08757C11.9743 9.07298 11.8149 9.11993 11.6885 9.21885L11.4436 9.4415C11.3497 9.5272 11.2839 9.63928 11.2549 9.76303C11.2259 9.88678 11.235 10.0164 11.281 10.1349C11.327 10.2534 11.4077 10.3552 11.5127 10.4269C11.6176 10.4987 11.7417 10.5371 11.8688 10.537L11.8644 10.5347Z" fill="white"/>
<path d="M28.2483 33.3747C28.3362 33.3747 28.423 33.3561 28.5032 33.3202C29.5351 32.8524 30.6524 32.6024 31.7852 32.5859C32.9181 32.5695 34.0422 32.7868 35.0872 33.2245C35.5051 33.4629 35.8998 33.7398 36.2662 34.0516C36.3942 34.1592 36.5597 34.2116 36.7263 34.1972C36.8929 34.1828 37.0469 34.1028 37.1546 33.9748C37.2622 33.8468 37.3146 33.6813 37.3001 33.5147C37.2857 33.3481 37.2057 33.194 37.0777 33.0864C36.6346 32.7085 36.155 32.3755 35.6461 32.0922L35.6193 32.0822C35.611 32.0773 35.6025 32.0729 35.5937 32.0689C34.3886 31.5599 33.0912 31.306 31.7832 31.3231C30.4751 31.3401 29.1848 31.6278 27.9934 32.1679C27.861 32.2262 27.7527 32.3283 27.6866 32.4571C27.6206 32.5858 27.6009 32.7333 27.6308 32.8749C27.6607 33.0164 27.7384 33.1434 27.8508 33.2344C27.9633 33.3254 28.1036 33.375 28.2483 33.3747Z" fill="white"/>
<path d="M37.7247 32.1739C38.4495 31.7705 39.1455 31.3175 39.8076 30.8179C41.8739 29.2359 45.619 28.2574 49.3818 30.6832C49.8005 31.0121 50.2015 31.3629 50.5831 31.7341C50.7012 31.8522 50.8614 31.9185 51.0284 31.9185C51.1954 31.9185 51.3556 31.8522 51.4737 31.7341C51.5914 31.6159 51.6576 31.4557 51.6576 31.2888C51.6576 31.1219 51.5914 30.9618 51.4737 30.8435C51.0468 30.427 50.5971 30.0345 50.1266 29.6679C50.12 29.6623 50.1122 29.6601 50.1055 29.6545C50.0988 29.649 50.0921 29.6434 50.0854 29.639C45.7659 26.8379 41.4353 27.9846 39.0406 29.8171C38.4251 30.2813 37.7782 30.7023 37.1046 31.0773C36.9835 31.1461 36.8886 31.253 36.8346 31.3813C36.7806 31.5096 36.7705 31.6522 36.8059 31.7868C36.8414 31.9215 36.9203 32.0406 37.0305 32.1257C37.1407 32.2108 37.276 32.2571 37.4152 32.2574C37.5239 32.2571 37.6306 32.2283 37.7247 32.1739Z" fill="white"/>
<path d="M28.836 54.3002C33.5881 54.311 38.2501 53.0048 42.3049 50.5267C46.3596 48.0486 49.6484 44.4956 51.8064 40.2618C51.8827 40.1129 51.8968 39.9399 51.8455 39.7807C51.7943 39.6215 51.6819 39.4892 51.5331 39.4129C51.3843 39.3366 51.2112 39.3225 51.052 39.3737C50.8928 39.425 50.7605 39.5374 50.6842 39.6862C49.4854 42.0266 47.9201 44.1603 46.0474 46.0063C44.9249 44.0024 43.3254 42.3065 41.3905 41.0689C38.9903 39.5504 38.6541 37.4374 38.6396 37.3427C38.6164 37.1765 38.5282 37.0263 38.3942 36.9251C38.2603 36.824 38.0917 36.7802 37.9254 36.8033C37.7592 36.8265 37.609 36.9148 37.5078 37.0487C37.4067 37.1827 37.3629 37.3513 37.386 37.5175C37.4016 37.6288 37.7902 40.2907 40.7114 42.1387C42.5555 43.3213 44.0635 44.9594 45.09 46.8947C43.7926 48.0441 42.3763 49.0518 40.865 49.9005C40.6847 48.2562 39.9254 46.1343 37.3615 45.1992C36.6261 44.9382 35.8482 44.8173 35.0682 44.8429C32.6969 44.9019 24.6501 44.9542 20.6145 43.2175C20.5485 43.1887 20.4781 43.1718 20.4063 43.1674C20.3773 43.1674 17.4939 42.9626 15.421 41.4084C15.1079 41.1719 14.8806 40.8395 14.7737 40.4619C14.6668 40.0843 14.6861 39.6822 14.8287 39.3166C15.4967 37.5988 16.3873 35.026 16.7703 32.5189C16.7703 32.5078 16.7703 32.4955 16.7703 32.4855C16.7703 32.4398 17.2601 27.8843 20.4853 20.6268C20.4853 20.6268 20.4853 20.6179 20.4909 20.6123L22.5082 15.7484C22.8032 15.0382 23.3388 14.4545 24.0211 14.0997L32.482 9.70665C32.864 9.50835 33.3054 9.45696 33.7227 9.5622C34.14 9.66745 34.5042 9.92203 34.7465 10.2778L37.0999 13.7345C37.2154 13.9033 37.2949 14.094 37.3338 14.2948C37.3726 14.4956 37.3699 14.7022 37.3258 14.9019C37.2816 15.1015 37.197 15.2901 37.0772 15.4558C36.9574 15.6215 36.8048 15.7609 36.629 15.8653L32.963 18.0407C32.7336 18.1754 32.4063 18.29 32.1636 18.064L31.0158 17.0098C30.8927 16.8967 30.7297 16.8371 30.5627 16.8442C30.3957 16.8513 30.2383 16.9245 30.1252 17.0476C30.0121 17.1707 29.9526 17.3337 29.9597 17.5008C29.9668 17.6678 30.04 17.8252 30.1631 17.9382L31.3098 18.9914C31.9265 19.5603 32.7837 19.6104 33.6053 19.125L34.8967 18.3591L35.076 18.6051C35.3999 19.0491 35.8823 19.3514 36.4231 19.4493C36.9639 19.5471 37.5216 19.433 37.9805 19.1306L38.9624 18.486C39.2713 18.2824 39.5353 18.018 39.7384 17.7088C39.9415 17.3997 40.0794 17.0523 40.1436 16.688C40.1643 16.604 40.1674 16.5166 40.1527 16.4313C40.1381 16.346 40.106 16.2646 40.0586 16.1922C40.0111 16.1199 39.9492 16.0581 39.8768 16.0107C39.8044 15.9633 39.723 15.9313 39.6377 15.9167C39.5524 15.9021 39.465 15.9053 39.381 15.926C39.2969 15.9467 39.2181 15.9845 39.1493 16.037C39.0805 16.0895 39.0233 16.1557 38.9812 16.2313C38.9391 16.3069 38.913 16.3904 38.9046 16.4765C38.87 16.6712 38.7961 16.8568 38.6874 17.022C38.5786 17.1872 38.4374 17.3285 38.2722 17.4373L37.297 18.0774C37.1079 18.2013 36.8785 18.248 36.6561 18.2078C36.4336 18.1676 36.2351 18.0437 36.1013 17.8614L35.99 17.7123L37.2758 16.9497C37.5998 16.7575 37.881 16.5009 38.1019 16.1958C38.3229 15.8907 38.4789 15.5436 38.5604 15.1758C38.6419 14.808 38.6471 14.4274 38.5757 14.0575C38.5043 13.6877 38.3578 13.3364 38.1453 13.0253L35.7918 9.57417C35.3759 8.96348 34.7506 8.52642 34.0342 8.34568C33.3179 8.16494 32.5601 8.25306 31.9042 8.59337L23.4433 12.9864C22.4982 13.4784 21.7562 14.287 21.347 15.2708L19.3331 20.1281C16.0901 27.4279 15.5602 31.9767 15.5212 32.3486C15.1315 34.8623 14.1853 37.5075 13.6531 38.8624C13.4104 39.4852 13.3777 40.1703 13.5602 40.8134C13.7427 41.4565 14.1303 42.0223 14.664 42.4249C16.8137 44.0369 19.6125 44.3698 20.2115 44.4288C24.5098 46.2256 32.6802 46.1755 35.0983 46.1165C35.7205 46.0933 36.3415 46.1881 36.9285 46.3959C39.0437 47.1685 39.5948 49.0099 39.6471 50.5496C36.2807 52.1938 32.5826 53.0457 28.836 53.04C15.2997 53.04 4.29153 42.0319 4.29153 28.4999C4.28267 23.6212 5.73562 18.8517 8.46299 14.8066C8.55644 14.668 8.591 14.4979 8.55905 14.3338C8.52711 14.1697 8.43129 14.025 8.29266 13.9315C8.15404 13.8381 7.98397 13.8035 7.81987 13.8355C7.65576 13.8674 7.51107 13.9633 7.41762 14.1019C4.54954 18.3551 3.02172 23.3701 3.03129 28.4999C3.03129 42.7266 14.605 54.3002 28.836 54.3002Z" fill="white"/>
<path d="M17.089 6.9465C20.6939 4.98544 24.7325 3.95855 28.8363 3.95957C39.7309 3.95957 49.432 11.266 52.4301 21.7275C52.9923 23.6891 52.7218 25.7688 51.6864 27.432C51.4833 27.7664 51.244 28.0774 50.9728 28.3594C50.9148 28.4184 50.8689 28.4883 50.8379 28.5651C50.8069 28.6419 50.7913 28.724 50.792 28.8068C50.7927 28.8897 50.8098 28.9715 50.8421 29.0477C50.8745 29.124 50.9215 29.1931 50.9806 29.2511C51.0397 29.3091 51.1096 29.355 51.1864 29.386C51.2631 29.417 51.3453 29.4326 51.4281 29.4319C51.5109 29.4312 51.5927 29.4141 51.669 29.3818C51.7452 29.3494 51.8143 29.3024 51.8723 29.2433C52.2078 28.8944 52.5045 28.5104 52.7574 28.0977C53.3652 27.1016 53.7579 25.9894 53.9103 24.8326C54.0627 23.6757 53.9715 22.4997 53.6425 21.3802C52.099 16.057 48.8936 11.3669 44.4946 7.99522C40.0055 4.54495 34.4981 2.68228 28.8363 2.69933C24.5214 2.69821 20.2749 3.77792 16.4845 5.8399C16.4118 5.8796 16.3477 5.93321 16.2957 5.99769C16.2438 6.06217 16.2051 6.13624 16.1818 6.21569C16.1584 6.29513 16.151 6.37839 16.1599 6.46071C16.1687 6.54303 16.1937 6.6228 16.2334 6.69546C16.3136 6.8422 16.4488 6.95109 16.6092 6.99817C16.6887 7.02148 16.7719 7.02892 16.8542 7.02005C16.9366 7.01119 17.0163 6.9862 17.089 6.9465Z" fill="white"/>
<path d="M29.1097 19.3636C29.271 19.3175 29.4075 19.2093 29.489 19.0626C29.5705 18.9159 29.5905 18.7429 29.5444 18.5815C29.4984 18.4201 29.3901 18.2837 29.2434 18.2022C29.0967 18.1206 28.9237 18.1007 28.7623 18.1468C28.0465 18.3516 27.491 18.2436 27.0635 17.8128C26.9868 17.736 26.8915 17.6803 26.787 17.6511C26.6824 17.6219 26.5721 17.6203 26.4668 17.6462C26.3614 17.6722 26.2645 17.725 26.1855 17.7994C26.1065 17.8738 26.0481 17.9674 26.0159 18.0711C25.9591 18.2548 24.6254 22.6188 25.1642 26.7747L25.2644 27.5451C25.6284 30.3205 25.8277 31.849 25.5294 33.1293C25.4536 33.472 25.3092 33.7957 25.1048 34.081C24.9005 34.3663 24.6404 34.6072 24.3404 34.7892L24.3281 34.7959L24.6443 35.3414L24.9783 35.8791C25.4264 35.6103 25.8153 35.2533 26.1215 34.8299C26.4276 34.4064 26.6447 33.9252 26.7595 33.4154C27.1102 31.9125 26.8998 30.2982 26.5168 27.3814L26.4166 26.6133C26.047 23.7622 26.6493 20.7129 26.9989 19.2779C27.609 19.5584 28.3282 19.5874 29.1097 19.3636Z" fill="white"/>
</svg>
