<svg width="24" height="24" viewBox="0 0 24 24" fill="none" xmlns="http://www.w3.org/2000/svg">
<path d="M13 5V4H11V5H13ZM11 19V20H13V19H11ZM11 5V19H13V5H11Z" fill="white"/>
<path d="M19.7071 13.7071L20.4142 13L19 11.5858L18.2929 12.2929L19.7071 13.7071ZM12 20L11.2929 20.7071L12 21.4142L12.7071 20.7071L12 20ZM5.70711 12.2929L5 11.5858L3.58579 13L4.29289 13.7071L5.70711 12.2929ZM18.2929 12.2929L11.2929 19.2929L12.7071 20.7071L19.7071 13.7071L18.2929 12.2929ZM12.7071 19.2929L5.70711 12.2929L4.29289 13.7071L11.2929 20.7071L12.7071 19.2929Z" fill="white"/>
</svg>
