<svg width="24" height="24" viewBox="0 0 24 24" fill="none" xmlns="http://www.w3.org/2000/svg">
<path d="M5 11H4V13H5V11ZM19 13H20V11H19V13ZM5 13H19V11H5V13Z" fill="white"/>
<path d="M13.7071 4.29289L13 3.58579L11.5858 5L12.2929 5.70711L13.7071 4.29289ZM20 12L20.7071 12.7071L21.4142 12L20.7071 11.2929L20 12ZM12.2929 18.2929L11.5858 19L13 20.4142L13.7071 19.7071L12.2929 18.2929ZM12.2929 5.70711L19.2929 12.7071L20.7071 11.2929L13.7071 4.29289L12.2929 5.70711ZM19.2929 11.2929L12.2929 18.2929L13.7071 19.7071L20.7071 12.7071L19.2929 11.2929Z" fill="white"/>
</svg>
