<svg width="28" height="28" viewBox="0 0 28 28" fill="none" xmlns="http://www.w3.org/2000/svg">
<path d="M22.168 13H23.168V15H22.168V13ZM5.83463 15H4.83463V13H5.83463V15ZM22.168 15H5.83463V13H22.168V15Z" fill="white"/>
<path d="M12.1249 5.12492L12.832 4.41782L14.2462 5.83203L13.5391 6.53914L12.1249 5.12492ZM4.66537 13.9987L3.95826 14.7058L3.25115 13.9987L3.95826 13.2916L4.66537 13.9987ZM13.5391 21.4583L14.2462 22.1654L12.832 23.5796L12.1249 22.8725L13.5391 21.4583ZM13.5391 6.53914L5.37247 14.7058L3.95826 13.2916L12.1249 5.12492L13.5391 6.53914ZM5.37247 13.2916L13.5391 21.4583L12.1249 22.8725L3.95826 14.7058L5.37247 13.2916Z" fill="white"/>
</svg>
