<svg width="57" height="57" viewBox="0 0 57 57" fill="none" xmlns="http://www.w3.org/2000/svg">
<path d="M10.8164 44.1232C9.81714 44.1232 8.87842 43.7339 8.17394 43.0295C7.47034 42.325 7.08203 41.3872 7.08203 40.3888C7.08203 39.3895 7.47034 38.4517 8.17483 37.7472L19.5909 26.3374C20.4833 25.4361 21.6233 24.8794 22.7989 24.7725C24.2916 24.6479 25.7567 25.1724 26.8129 26.2216L28.2745 27.6902C28.6414 28.0536 29.247 28.0518 29.6193 27.6849L37.1602 20.1368C37.2546 20.0424 37.2689 19.932 37.2689 19.8741C37.2689 19.8162 37.2537 19.7058 37.1593 19.6105L35.2178 17.6734C34.7698 17.2254 34.6112 16.5752 34.8027 15.9732C34.9933 15.3738 35.4965 14.9347 36.1155 14.8296L47.398 12.8765C47.4051 12.8765 47.4122 12.8765 47.4175 12.8765C48.0873 12.8765 48.7152 13.1356 49.1863 13.6068C49.6619 14.0824 49.9211 14.7174 49.9158 15.3943L49.9024 15.5403L47.9608 26.6794C47.8557 27.2966 47.4158 27.8016 46.8119 27.9913C46.2134 28.1836 45.5633 28.0198 45.1197 27.57L42.968 25.4182C42.8228 25.2731 42.585 25.2749 42.4416 25.4182L32.6082 35.2463C31.7149 36.1485 30.5749 36.7051 29.3993 36.812C27.9182 36.9376 26.4442 36.4121 25.387 35.363L23.9246 33.8943C23.5595 33.5327 22.9539 33.5292 22.5816 33.8997L13.458 43.0295C12.7535 43.7348 11.8148 44.1232 10.8164 44.1232ZM23.2513 26.5351C23.1534 26.5351 23.0545 26.5395 22.9547 26.5476C22.2022 26.6161 21.454 26.9884 20.8547 27.5949L9.43506 39.0074C8.67358 39.7689 8.67358 41.0086 9.43506 41.771C10.1707 42.5076 11.4612 42.5093 12.1996 41.771L21.3267 32.6368C22.3919 31.5823 24.1215 31.5814 25.1849 32.6332L26.6473 34.1027C27.3384 34.7885 28.2575 35.1163 29.2452 35.0379C29.9978 34.9693 30.7459 34.597 31.3462 33.9896L41.1832 24.1598C42.0239 23.319 43.3893 23.3208 44.2282 24.1598L46.2419 26.1735L48.1336 15.3221C48.1211 15.1493 48.049 14.989 47.9279 14.867C47.805 14.7441 47.6455 14.672 47.471 14.6604L36.6143 16.5521L38.4169 18.3511C38.8248 18.7582 39.0492 19.2979 39.0501 19.8741C39.0501 20.4495 38.8266 20.9909 38.4196 21.398L30.8751 28.9496C29.8108 30.005 28.0794 30.0059 27.0169 28.9531L25.5545 27.4836C24.9328 26.8664 24.1232 26.5351 23.2513 26.5351ZM46.2063 26.3775C46.2063 26.3775 46.2054 26.3775 46.2063 26.3775V26.3775ZM46.3844 26.316C46.3844 26.3169 46.3844 26.3169 46.3844 26.316V26.316ZM49.0251 15.388H49.034H49.0251Z" fill="white"/>
</svg>
