<svg width="57" height="57" viewBox="0 0 57 57" fill="none" xmlns="http://www.w3.org/2000/svg">
<path d="M53.4375 31.1719C53.0857 31.1719 52.7517 31.244 52.4436 31.3678C52.1363 30.2323 51.1067 29.3906 49.875 29.3906C49.5232 29.3906 49.1892 29.4628 48.8811 29.5866C48.5738 28.451 47.5442 27.6094 46.3125 27.6094C45.999 27.6094 45.7015 27.6735 45.4219 27.7733V26.399C50.624 25.1771 54.3281 20.5627 54.3281 15.1406C54.3281 12.5293 53.4491 10.1255 51.9849 8.18663L54.0859 5.95383L52.7882 4.73278L50.8048 6.84089C48.719 4.81561 45.8797 3.5625 42.75 3.5625C36.366 3.5625 31.1719 8.75662 31.1719 15.1406C31.1719 20.5627 34.876 25.1771 40.0781 26.3999V42.375C39.9107 42.2032 39.7913 41.9814 39.745 41.7293L38.5721 35.2803C38.3272 33.9319 37.156 32.9531 35.7862 32.9531C34.224 32.9531 32.9531 34.224 32.9531 35.7853V36.3544C32.9531 36.5094 32.9665 36.6652 32.9914 36.8202L34.5945 46.4336C34.7201 47.1826 35.0354 47.8925 35.5083 48.483L37.7108 51.2359C38.0894 51.7097 38.2969 52.302 38.2969 52.9058V56.1094H52.5469V52.9058C52.5469 52.302 52.7544 51.7088 53.1329 51.2359L55.1332 48.7341C55.762 47.9477 56.1094 46.96 56.1094 45.9536V33.8438C56.1094 32.3707 54.9106 31.1719 53.4375 31.1719ZM32.9531 15.1406C32.9531 9.73898 37.3484 5.34375 42.75 5.34375C45.4085 5.34375 47.8194 6.41161 49.5855 8.13586L39.1688 19.2054L37.1462 17.1828L35.8868 18.4422L39.208 21.7633L50.7478 9.50119C51.8771 11.0981 52.5469 13.0405 52.5469 15.1406C52.5469 19.5848 49.606 23.3896 45.4219 24.5634V23.1562C45.4219 21.6832 44.2231 20.4844 42.75 20.4844C41.2769 20.4844 40.0781 21.6832 40.0781 23.1562V24.5634C35.894 23.3896 32.9531 19.5848 32.9531 15.1406ZM54.3281 45.9536C54.3281 46.5574 54.1206 47.1506 53.7421 47.6235L51.7418 50.1253C51.113 50.9117 50.7656 51.8994 50.7656 52.9058V54.3281H40.0781V52.9058C40.0781 51.8994 39.7308 50.9108 39.102 50.1235L36.8986 47.3706C36.6154 47.0161 36.4257 46.5913 36.3509 46.1406L34.7477 36.529C34.7388 36.472 34.7344 36.4132 34.7344 36.3544V35.7853C34.7344 35.2055 35.2055 34.7344 35.7862 34.7344C36.2939 34.7344 36.7294 35.0978 36.8202 35.5983L37.9923 42.0473C38.2541 43.4865 39.5055 44.5312 40.9688 44.5312H41.8594V23.1562C41.8594 22.6655 42.2584 22.2656 42.75 22.2656C43.2416 22.2656 43.6406 22.6655 43.6406 23.1562V30.2812V35.625V37.4062H45.4219V35.625V30.2812C45.4219 29.7905 45.8209 29.3906 46.3125 29.3906C46.8041 29.3906 47.2031 29.7905 47.2031 30.2812V32.0625V37.4062H48.9844V32.0625C48.9844 31.5718 49.3834 31.1719 49.875 31.1719C50.3666 31.1719 50.7656 31.5718 50.7656 32.0625V33.8438V37.4062H52.5469V33.8438C52.5469 33.353 52.9459 32.9531 53.4375 32.9531C53.9291 32.9531 54.3281 33.353 54.3281 33.8438V45.9536Z" fill="white"/>
<path d="M23.1562 0.890625H7.125C3.68808 0.890625 0.890625 3.68719 0.890625 7.125V49.875C0.890625 53.3128 3.68808 56.1094 7.125 56.1094H23.1562C26.5932 56.1094 29.3906 53.3128 29.3906 49.875V7.125C29.3906 3.68719 26.5932 0.890625 23.1562 0.890625ZM27.6094 49.875C27.6094 52.3305 25.6117 54.3281 23.1562 54.3281H7.125C4.66955 54.3281 2.67188 52.3305 2.67188 49.875V7.125C2.67188 4.66955 4.66955 2.67188 7.125 2.67188H23.1562C25.6117 2.67188 27.6094 4.66955 27.6094 7.125V49.875Z" fill="white"/>
<path d="M15.1406 20.2734L12.3511 25.8452L6.08203 26.7429L10.6198 31.1025L9.55191 37.2398L15.1406 34.3435L20.7292 37.2398L19.6614 31.1025L24.1991 26.7429L17.93 25.8452L15.1406 20.2734ZM17.7448 30.4747L18.3584 34.0051L15.1406 32.337L11.9227 34.0051L12.5364 30.4747L9.94912 27.988L13.5277 27.475L15.1406 24.2527L16.7544 27.4759L20.3329 27.9889L17.7448 30.4747Z" fill="white"/>
<path d="M15.1413 37.2109L12.6298 42.1797L6.96094 42.984L11.064 46.8902L10.1013 52.3738L15.1413 49.7866L20.1814 52.3738L19.2186 46.8902L23.3217 42.984L17.6529 42.1797L15.1413 37.2109ZM17.2984 46.2579L17.807 49.1524L15.1413 47.7844L12.4757 49.1533L12.9842 46.2588L10.853 44.2317L13.8 43.814L15.1413 41.16L16.4826 43.8131L19.4297 44.2308L17.2984 46.2579Z" fill="white"/>
<path d="M10.1013 19.4207L15.1413 16.8334L20.1814 19.4207L19.2186 13.9371L23.3217 10.0308L17.6529 9.22661L15.1413 4.25781L12.6298 9.22661L6.96094 10.0308L11.064 13.9371L10.1013 19.4207ZM10.8539 11.2786L13.8009 10.8609L15.1413 8.20684L16.4826 10.86L19.4297 11.2777L17.2984 13.3048L17.807 16.1993L15.1413 14.8313L12.4757 16.2002L12.9842 13.3057L10.8539 11.2786Z" fill="white"/>
</svg>
