<svg width="49" height="57" viewBox="0 0 49 57" fill="none" xmlns="http://www.w3.org/2000/svg">
<path d="M38.8901 15.5078C41.5756 15.5078 43.7601 13.323 43.7601 10.6367C43.7601 7.95051 41.5757 5.76562 38.8901 5.76562C36.2024 5.76562 34.0156 7.95043 34.0156 10.6367C34.0156 13.323 36.2024 15.5078 38.8901 15.5078ZM38.8901 7.26908C40.7465 7.26908 42.2567 8.77997 42.2567 10.6367C42.2567 12.4935 40.7465 14.0044 38.8901 14.0044C37.0314 14.0044 35.5191 12.4935 35.5191 10.6367C35.5191 8.77997 37.0315 7.26908 38.8901 7.26908Z" fill="white"/>
<path d="M10.101 15.3895C12.7869 15.3895 14.9721 13.2047 14.9721 10.5184C14.9721 7.83294 12.7869 5.64844 10.101 5.64844C7.4133 5.64844 5.22656 7.83294 5.22656 10.5184C5.22656 13.2047 7.41323 15.3895 10.101 15.3895ZM10.101 7.1519C11.9577 7.1519 13.4687 8.66247 13.4687 10.5184C13.4687 12.3752 11.9577 13.8861 10.101 13.8861C8.24238 13.8861 6.73002 12.3752 6.73002 10.5184C6.72994 8.66247 8.24238 7.1519 10.101 7.1519Z" fill="white"/>
<path d="M14.2796 38.9581H14.1371C12.6416 38.9581 11.3404 37.6184 11.3404 36.123V19.1448C11.3404 18.5795 11.4806 17.9977 11.673 17.4151C11.7489 17.1858 11.7312 16.9239 11.5899 16.728C11.4486 16.5326 11.2434 16.4062 11.0021 16.4062H5.12071C2.77766 16.4066 0.816406 18.543 0.816406 20.3629V34.1188C0.816406 34.5338 1.29641 34.8239 1.71172 34.8239H3.82324V50.3189C3.82324 50.7338 4.21866 50.9856 4.63359 50.9856H14.2796C14.6945 50.9856 15.0989 50.7338 15.0989 50.3189V39.5868C15.0989 39.1716 14.6949 38.9581 14.2796 38.9581ZM13.5955 49.482H5.32662V34.1185C5.32662 33.7036 5.0489 33.3203 4.63351 33.3203H2.31979V20.3629C2.31979 19.3838 3.57926 17.9105 5.12063 17.9105H10.0342C9.95941 18.2863 9.83691 18.7441 9.83691 19.1452V36.1233C9.83691 38.2409 11.3404 39.9988 13.5955 40.2945V49.482Z" fill="white"/>
<path d="M35.774 36.1229V19.1447C35.774 16.9298 33.5697 14.5273 30.6458 14.5273H18.3497C15.5556 14.5273 13.2227 16.9794 13.2227 19.1447V36.1229C13.2227 36.5378 13.7252 36.7028 14.1401 36.7028H16.9812V56.1173C16.9812 56.5322 17.3323 56.9991 17.7472 56.9991H31.2495C31.6644 56.9991 32.0154 56.5326 32.0154 56.1173V36.7028H34.8554C35.2704 36.7028 35.774 36.5382 35.774 36.1229ZM34.2706 35.1994H31.2495C30.8345 35.1994 30.512 35.708 30.512 36.123V55.4957H18.4846V36.1229C18.4846 35.708 18.1624 35.1993 17.7471 35.1993H14.726V19.1447C14.726 17.8646 16.3436 16.0308 18.3496 16.0308H30.6461C32.7569 16.0308 34.2709 17.8484 34.2709 19.1447V35.1994H34.2706Z" fill="white"/>
<path d="M24.4963 11.6718C27.7132 11.6718 30.3299 9.0544 30.3299 5.83708C30.3299 2.61861 27.7129 0 24.4963 0C21.2759 0 18.6562 2.61861 18.6562 5.8367C18.6562 9.0544 21.2759 11.6718 24.4963 11.6718ZM24.4963 1.50346C26.884 1.50346 28.8265 3.44737 28.8265 5.8367C28.8265 8.22486 26.884 10.1681 24.4963 10.1681C22.1051 10.1681 20.1596 8.22494 20.1596 5.8367C20.1596 3.44737 22.1051 1.50346 24.4963 1.50346Z" fill="white"/>
<path d="M43.8716 16.4062H38.0346C37.7971 16.4062 37.5734 16.5878 37.4317 16.7784C37.29 16.969 37.2896 17.2497 37.3577 17.4775C37.5249 18.0375 37.6531 18.6212 37.6531 19.1444V36.1226C37.6531 37.6181 36.3503 38.9577 34.8552 38.9577H34.7139C34.299 38.9577 33.8945 39.1708 33.8945 39.5861V50.4359C33.8945 50.8509 34.2986 51.3609 34.7139 51.3609H44.361C44.7759 51.3609 45.1702 50.8512 45.1702 50.4359V34.8232H47.2818C47.6967 34.8232 48.177 34.651 48.177 34.2361V20.482C48.1771 18.6197 46.3241 16.4062 43.8716 16.4062ZM46.6736 33.3197H44.361C43.9461 33.3197 43.6667 33.8208 43.6667 34.2361V49.8573H35.398V40.2937C37.6531 39.9972 39.1565 38.2397 39.1565 36.1225V19.1443C39.1565 18.785 39.0396 18.2855 38.9787 17.9096H43.8716C45.4946 17.9096 46.6736 19.4894 46.6736 20.482V33.3197H46.6736Z" fill="white"/>
</svg>
