<svg width="57" height="57" viewBox="0 0 57 57" fill="none" xmlns="http://www.w3.org/2000/svg">
<path d="M46.3125 6.23438H16.0312C14.3784 6.23623 12.7937 6.89366 11.6249 8.06243C10.4562 9.2312 9.79873 10.8159 9.79688 12.4688V51.6562C9.79689 51.8925 9.89072 52.119 10.0577 52.286C10.2248 52.453 10.4513 52.5469 10.6875 52.5469H42.75C42.9862 52.5469 43.2127 52.453 43.3798 52.286C43.5468 52.119 43.6406 51.8925 43.6406 51.6562C43.6406 51.42 43.5468 51.1935 43.3798 51.0265C43.2127 50.8595 42.9862 50.7656 42.75 50.7656H11.5781V49.875C11.5794 48.6944 12.049 47.5625 12.8839 46.7276C13.7187 45.8928 14.8506 45.4232 16.0312 45.4219H46.3125C46.5487 45.4219 46.7752 45.328 46.9423 45.161C47.1093 44.994 47.2031 44.7675 47.2031 44.5312V7.125C47.2031 6.8888 47.1093 6.66227 46.9423 6.49525C46.7752 6.32822 46.5487 6.23439 46.3125 6.23438ZM45.4219 43.6406H16.0312C15.2014 43.6401 14.3798 43.8058 13.615 44.1279C12.8502 44.45 12.1576 44.922 11.5781 45.516V12.4688C11.5794 11.2881 12.049 10.1562 12.8839 9.32137C13.7187 8.48653 14.8506 8.01694 16.0312 8.01562H45.4219V43.6406Z" fill="white"/>
</svg>
