<svg width="86" height="86" viewBox="0 0 86 86" fill="none" xmlns="http://www.w3.org/2000/svg">
<path d="M43 86C66.7482 86 86 66.7482 86 43C86 19.2518 66.7482 0 43 0C19.2518 0 0 19.2518 0 43C0 66.7482 19.2518 86 43 86Z" fill="#4E88B7"/>
<path d="M36.4828 65.3064L16.6625 45.4861C16.3938 45.2174 16.3938 44.8143 16.6625 44.5455L22.3734 38.8346C22.6422 38.5658 23.0453 38.5658 23.3141 38.8346L36.9531 52.4736L62.6187 26.808C62.8875 26.5393 63.2906 26.5393 63.5594 26.808L69.2703 32.5189C69.5391 32.7877 69.5391 33.1908 69.2703 33.4596L37.4234 65.3064C37.1547 65.5752 36.7516 65.5752 36.4828 65.3064Z" fill="#93B6D3"/>
</svg>
