<svg width="57" height="57" viewBox="0 0 57 57" fill="none" xmlns="http://www.w3.org/2000/svg">
<path d="M7.57031 0.890625V56.1094H49.4297V10.3313L39.9891 0.890625H7.57031ZM40.5234 3.91875L46.4016 9.79688H40.5234V3.91875ZM9.35156 54.3281V2.67188H38.7422V11.5781H47.6484V54.3281H9.35156Z" fill="white"/>
<path d="M44.0859 34.2891H12.9141V36.0703H44.0859V34.2891Z" fill="white"/>
<path d="M44.0859 38.7422H12.9141V40.5234H44.0859V38.7422Z" fill="white"/>
<path d="M44.0859 43.1953H32.9531V44.9766H44.0859V43.1953Z" fill="white"/>
<path d="M28.5 28.3234C32.3742 28.3234 36.2484 27.6555 39.9445 26.3641L40.5234 26.1414V22.8906L39.143 22.4898V21.1984C39.143 17.1906 36.9164 13.5391 33.3984 11.7578V11.6688C33.3984 10.6445 32.5523 9.79844 31.5281 9.79844H29.3906V9.53125H27.6094V9.79844H25.4719C24.4477 9.79844 23.6016 10.6445 23.6016 11.6688V11.7578C20.0836 13.5836 17.857 17.2352 17.857 21.1984V22.4898L16.4766 22.9352V26.1859L17.0555 26.4086C20.7516 27.6555 24.6258 28.3234 28.5 28.3234ZM18.2578 24.2711L19.6383 23.8703V21.243C19.6383 18.2594 21.1523 15.4539 23.6016 13.8508V16.5672H25.3828V11.6688C25.3828 11.6242 25.4273 11.5797 25.4719 11.5797H27.6094V19.2836H29.3906V11.5797H31.5281C31.5727 11.5797 31.6172 11.6242 31.6172 11.6688V16.5672H33.3984V13.8508C35.8477 15.4984 37.3617 18.2594 37.3617 21.243V23.8703L38.7422 24.2711V24.8945C32.107 27.0766 24.893 27.0766 18.2578 24.8945V24.2711Z" fill="white"/>
<path d="M35.3117 22.3125H21.6406V24.0938H35.3117V22.3125Z" fill="white"/>
</svg>
