<svg width="57" height="57" viewBox="0 0 57 57" fill="none" xmlns="http://www.w3.org/2000/svg">
<path d="M31.6172 54.3305V43.732C33.0422 43.3758 34.4227 42.7969 35.625 41.9953V44.9789H48.5391V32.0648H41.5922C41.6367 31.7086 41.6367 31.3078 41.6367 30.9516C41.6367 27.1219 39.9445 23.5594 37.1836 21.1102L50.7656 7.48359L55.2188 11.9367V9.39844L50.7656 4.94531L35.7586 19.9969C35.3578 19.7297 34.957 19.507 34.5562 19.2844L50.7656 3.03047L55.2188 7.48359V4.94531L50.7656 0.492188L34.7344 16.5234C34.868 15.7664 34.957 15.0094 34.957 14.2078C34.957 7.57266 29.5688 2.18438 22.9336 2.18438C16.2984 2.18438 10.9102 7.57266 10.9102 14.2078C10.9102 14.2523 10.9102 14.2969 10.9102 14.3414C5.03203 16.6125 1.11328 22.3125 1.11328 28.6805C1.11328 37.1859 8.01562 44.0883 16.4766 44.0883H20.4844V56.1117H22.2656V44.0883H28.5C28.9453 44.0883 29.3906 44.0438 29.8359 43.9992V56.1117H55.2188V54.3305H31.6172ZM46.7578 33.8461V43.1977H37.4062V40.6148C39.3211 38.8336 40.7016 36.518 41.325 33.8461H46.7578ZM28.5 42.307H22.2656V38.2547L30.682 34.0688L29.8805 32.4656L22.2656 36.2508V18.7055H20.4844V27.3445L12.8695 23.5148L12.068 25.118L20.4844 29.3484V42.307H16.4766C8.99531 42.307 2.89453 36.2062 2.89453 28.725C2.89453 22.8914 6.59063 17.7258 12.1125 15.8555L12.7805 15.6328L12.7359 14.9648C12.7359 14.7422 12.6914 14.475 12.6914 14.2523C12.6914 8.59688 17.2781 4.01016 22.9336 4.01016C28.5891 4.01016 33.1758 8.59688 33.1758 14.2523C33.1758 15.9445 32.775 17.5922 31.9734 19.0617L31.4836 19.9523L32.4188 20.3086C36.8273 21.9562 39.8109 26.2313 39.8109 30.9516C39.8555 37.2305 34.7789 42.307 28.5 42.307Z" fill="white"/>
</svg>
