<svg width="681" height="464" viewBox="0 0 681 464" fill="none" xmlns="http://www.w3.org/2000/svg">
<g clip-path="url(#clip0_2_3411)">
<path d="M167.037 108.527C115.053 161.401 60.4123 124.313 30.5829 180.579C0.753472 236.845 20.3226 350.898 140.17 413.764C260.017 476.631 478.857 447.206 569.818 399.885C660.78 352.564 556.367 236.985 509.72 187.565C463.073 138.145 483.928 72.0774 399.979 26.0819C316.029 -19.9136 219.022 55.6527 167.037 108.527Z" fill="#DBECFF"/>
<circle cx="519.077" cy="137.843" r="22.3624" fill="#DBECFF"/>
<path d="M128.924 121.19C96.1897 134.131 59.7754 138.001 45.6602 138.318C96.0945 131.181 117.03 124.044 138.44 111.198C159.851 98.3515 184.593 68.3764 209.81 47.9171C234.891 27.5682 254.167 22.9086 268.575 19.4259L268.808 19.3694C257.707 24.1273 245.494 27.9337 223.608 42.2076C201.721 56.4815 169.843 105.013 128.924 121.19Z" fill="#DBECFF"/>
<circle cx="484.821" cy="69.328" r="11.8949" fill="#DBECFF"/>
<path d="M211.095 116.948L101.795 189.966L209.455 350.695L318.756 277.677L211.095 116.948Z" fill="#F5F5F5"/>
<path d="M262.278 270.069L261.031 277.735L206.693 269.913L207.94 262.247L262.278 270.069Z" fill="#E0E0E0"/>
<path d="M234.914 242.722L242.707 243.841L234.067 297.27L226.264 296.141L234.914 242.722Z" fill="#E0E0E0"/>
<path d="M184.863 174.817C184.941 174.924 173.982 182.385 160.402 191.452C146.822 200.519 135.727 207.796 135.649 207.68C135.571 207.563 146.52 200.111 160.12 191.034C173.719 181.957 184.785 174.7 184.863 174.817Z" fill="#E0E0E0"/>
<path d="M225.056 164.738C225.134 164.854 206.917 177.151 184.375 192.211C161.833 207.271 143.461 219.383 143.412 219.276C143.363 219.169 161.541 206.853 184.093 191.793C206.644 176.733 224.978 164.621 225.056 164.738Z" fill="#E0E0E0"/>
<path d="M233.11 176.762C233.188 176.879 214.972 189.186 192.43 204.245C169.888 219.305 151.516 231.417 151.516 231.301C151.516 231.184 169.645 218.887 192.147 203.817C214.65 188.748 233.032 176.646 233.11 176.762Z" fill="#E0E0E0"/>
<path d="M241.169 188.796C241.247 188.913 223.04 201.22 200.498 216.27C177.956 231.32 159.584 243.452 159.526 243.335C159.467 243.218 177.664 230.911 200.216 215.852C222.767 200.792 241.091 188.68 241.169 188.796Z" fill="#E0E0E0"/>
<path d="M249.233 200.831C249.311 200.947 231.095 213.244 208.553 228.304C186.011 243.364 167.639 255.476 167.58 255.359C167.522 255.242 185.719 242.946 208.27 227.886C230.822 212.826 249.156 200.714 249.233 200.831Z" fill="#E0E0E0"/>
<path d="M576.584 224.646L484.789 285.97L575.204 420.952L666.999 359.629L576.584 224.646Z" fill="#F5F5F5"/>
<path d="M619.576 353.267L618.533 359.708L572.895 353.141L573.937 346.701L619.576 353.267Z" fill="#E0E0E0"/>
<path d="M596.588 330.298L603.144 331.242L595.876 376.11L589.33 375.166L596.588 330.298Z" fill="#E0E0E0"/>
<path d="M554.562 273.318C554.64 273.435 545.444 279.71 534.037 287.327C522.63 294.945 513.307 301.035 513.229 300.947C513.151 300.86 522.337 294.565 533.754 286.938C545.171 279.311 554.484 273.153 554.562 273.318Z" fill="#E0E0E0"/>
<path d="M588.317 264.806C588.395 264.922 573.11 275.274 554.222 287.911C535.333 300.548 519.873 310.724 519.795 310.608C519.717 310.491 535.002 300.14 553.939 287.493C572.877 274.846 588.239 264.689 588.317 264.806Z" fill="#E0E0E0"/>
<path d="M595.088 274.904C595.166 275.021 579.872 285.372 560.944 298.019C542.017 310.666 526.596 320.823 526.518 320.706C526.44 320.589 541.773 310.287 560.662 297.64C579.551 284.992 595.01 274.797 595.088 274.904Z" fill="#E0E0E0"/>
<path d="M601.846 284.992C601.924 285.109 586.64 295.46 567.751 308.107C548.862 320.755 533.402 330.911 533.325 330.794C533.247 330.678 548.531 320.336 567.42 307.679C586.309 295.023 601.768 284.895 601.846 284.992Z" fill="#E0E0E0"/>
<path d="M608.618 295.12C608.696 295.237 593.411 305.578 574.474 318.225C555.536 330.872 540.125 341.029 540.047 340.922C539.969 340.815 555.254 330.454 574.142 317.807C593.031 305.16 608.54 295.003 608.618 295.12Z" fill="#E0E0E0"/>
<path d="M431.357 122.85L331.197 69.3513L252.317 216.638L352.476 270.137L431.357 122.85Z" fill="#F5F5F5"/>
<path d="M335.339 224.062L328.987 226.232L312.855 181.704L319.207 179.525L335.339 224.062Z" fill="#E0E0E0"/>
<path d="M345.08 192.114L347.398 198.506L303.113 213.653L300.795 207.261L345.08 192.114Z" fill="#E0E0E0"/>
<path d="M376.547 126.417C376.469 126.563 366.309 121.29 353.859 114.646C341.409 108.001 331.376 102.485 331.454 102.339C331.532 102.193 341.692 107.466 354.142 114.11C366.591 120.755 376.625 126.261 376.547 126.417Z" fill="#E0E0E0"/>
<path d="M400.579 152.908C400.501 153.054 383.687 144.22 363.035 133.188C342.383 122.156 325.686 113.089 325.764 112.943C325.842 112.797 342.656 121.621 363.317 132.663C383.979 143.705 400.657 152.762 400.579 152.908Z" fill="#E0E0E0"/>
<path d="M394.674 163.93C394.596 164.076 377.783 155.252 357.131 144.22C336.479 133.188 319.782 124.111 319.86 123.965C319.938 123.819 336.751 132.653 357.413 143.685C378.075 154.717 394.752 163.784 394.674 163.93Z" fill="#E0E0E0"/>
<path d="M388.772 174.953C388.694 175.099 371.88 166.275 351.228 155.243C330.576 144.211 313.879 135.173 313.957 134.998C314.035 134.823 330.849 143.676 351.511 154.708C372.173 165.74 388.83 174.807 388.772 174.953Z" fill="#E0E0E0"/>
<path d="M382.868 185.975C382.79 186.121 365.976 177.297 345.324 166.265C324.672 155.233 307.975 146.166 308.053 146.02C308.131 145.874 324.945 154.698 345.606 165.73C366.268 176.762 382.985 185.829 382.868 185.975Z" fill="#E0E0E0"/>
<path d="M288.122 226.174L253.676 403.039L249.166 426.193L479.134 425.084C489.45 425.035 498.617 415.88 501.919 402.28L542.746 235.289C545.269 224.967 539.735 214.227 531.903 214.237L299.15 214.48C293.967 214.49 289.467 219.276 288.122 226.174Z" fill="#0D5082"/>
<path d="M457.07 391.034L432.716 195.091C431.742 187.065 425.312 181.072 417.753 181.101L364.36 181.267C362.378 181.29 360.421 181.716 358.609 182.519C356.797 183.322 355.167 184.485 353.82 185.936L328.492 212.855L180.012 213.624C170.933 213.672 163.967 222.253 165.166 231.884L187.776 412.981C188.75 420.998 195.16 426.981 202.719 426.971L461.492 426.455C490.317 427.049 493.065 418.556 493.065 418.556C460.021 425.891 457.079 391.082 457.07 391.034Z" fill="#115EA0"/>
<g opacity="0.5">
<path d="M345.49 351.847L336.761 361.206L269.545 300.811L278.273 291.452L345.49 351.847Z" fill="#65A0D4"/>
<path d="M333.109 289.38L342.753 298.048L281.927 363.278L272.283 354.61L333.109 289.38Z" fill="#65A0D4"/>
</g>
</g>
<defs>
<clipPath id="clip0_2_3411">
<rect width="681" height="464" fill="white"/>
</clipPath>
</defs>
</svg>
