<svg width="30" height="30" viewBox="0 0 30 30" fill="none" xmlns="http://www.w3.org/2000/svg">
<path d="M29.5352 6.23934L22.3838 3.59333C22.5268 3.66484 22.1692 3.4503 21.8832 3.59333L14.9821 6.13206L8.11681 3.59333C8.25983 3.66484 7.90226 3.4503 7.61621 3.59333L0.464839 6.23934C0.178784 6.34661 0 6.5969 0 6.91872V25.7268C0 26.9783 1.5733 26.1559 0.965435 26.4062L7.83075 23.8675L14.6961 26.4062C15.0179 26.5135 15.3754 26.3347 15.2324 26.4062L22.1335 23.8675L29.0346 26.4062C29.4994 26.585 30 26.2632 30 25.7268V6.91872C30 6.63266 29.8212 6.34661 29.5352 6.23934ZM7.11561 22.616L1.39452 24.6541V7.38355L7.11561 5.30966V22.616ZM14.267 24.6541L8.54589 22.5802V5.30966L14.267 7.38355V24.6541ZM21.4184 22.616L15.6973 24.6541V7.38355L21.4184 5.30966V22.616ZM28.5697 24.6541L22.8486 22.5802V5.30966L28.5697 7.38355V24.6541Z" fill="white"/>
</svg>
