<svg width="24" height="26" viewBox="0 0 24 26" fill="none" xmlns="http://www.w3.org/2000/svg">
<path d="M23.2712 6.64657C23.2684 6.64131 23.2662 6.63587 23.2632 6.63066C23.2603 6.62562 23.2569 6.62108 23.2539 6.61613C23.108 6.36983 22.9001 6.16601 22.651 6.02496L12.8073 0.4611C12.5607 0.322694 12.2827 0.25 12 0.25C11.7173 0.25 11.4393 0.322694 11.1927 0.4611L1.34893 6.02499C1.09548 6.16841 0.884792 6.37672 0.738497 6.62852C0.737123 6.63092 0.73552 6.63307 0.734148 6.63547C0.731804 6.63974 0.730028 6.64417 0.727739 6.64846C0.588965 6.894 0.515904 7.17119 0.515625 7.45324V18.5468C0.51589 18.8372 0.593156 19.1225 0.739549 19.3733C0.885942 19.6242 1.09623 19.8318 1.34898 19.975L11.1927 25.5388C11.4106 25.6604 11.6534 25.7306 11.9026 25.7438C11.9325 25.7482 11.9626 25.7506 11.9927 25.7512C11.9952 25.7512 11.9977 25.7512 12.0002 25.7512C12.0323 25.751 12.0644 25.7485 12.0962 25.7439C12.3458 25.7308 12.589 25.6607 12.8073 25.5389L22.6511 19.975C22.9038 19.8318 23.1141 19.6242 23.2605 19.3733C23.4068 19.1224 23.4841 18.8372 23.4844 18.5468V7.45324C23.4841 7.17046 23.4107 6.89257 23.2712 6.64657ZM11.8847 1.68533C11.9199 1.66556 11.9596 1.65517 12 1.65517C12.0404 1.65517 12.0801 1.66556 12.1153 1.68533L21.3586 6.90978L12.1204 12.1923L2.6539 6.90272L11.8847 1.68533ZM2.04096 18.7508C2.00485 18.7304 1.97481 18.7007 1.95389 18.6649C1.93297 18.629 1.92193 18.5883 1.92188 18.5468V8.10458L11.417 13.4102L11.3078 23.9885L2.04096 18.7508ZM21.9591 18.7508L12.7142 23.9761L12.8234 13.4103L22.0781 8.11825V18.5468C22.0781 18.5883 22.067 18.629 22.0461 18.6648C22.0252 18.7007 21.9952 18.7303 21.9591 18.7508H21.9591Z" fill="white"/>
</svg>
