<svg width="57" height="57" viewBox="0 0 57 57" fill="none" xmlns="http://www.w3.org/2000/svg">
<path d="M0.890625 47.2031H22.043V54.3281H10.6875V56.1094H46.3125V54.3281H34.957V47.2031H56.1094V0.890625H0.890625V47.2031ZM33.1758 54.3281H23.8242V47.2031H33.1758V54.3281ZM2.67188 45.4219V40.5234H54.3281V45.4219H2.67188ZM54.3281 2.67188V38.7422H2.67188V2.67188H54.3281Z" fill="white"/>
<path d="M42.7508 14.6953H31.3953V14.25H29.6141V16.4766H40.9695V32.0625H31.3953V20.2617H29.6141V32.0625H17.0117V16.4766H24.7156V13.8938H22.9344V14.6953H17.0117V9.79688H29.6141V10.2422H31.3953V8.01562H15.2305V33.8438H42.7508V14.6953Z" fill="white"/>
</svg>
