<svg width="50" height="50" viewBox="0 0 50 50" fill="none" xmlns="http://www.w3.org/2000/svg">
<circle cx="25" cy="25" r="25" fill="white" fill-opacity="0.15"/>
<path fill-rule="evenodd" clip-rule="evenodd" d="M25.5 36C31.8513 36 37 30.8513 37 24.5C37 18.1487 31.8513 13 25.5 13C19.1487 13 14 18.1487 14 24.5C14 30.8513 19.1487 36 25.5 36ZM25.5 37C32.4036 37 38 31.4036 38 24.5C38 17.5964 32.4036 12 25.5 12C18.5964 12 13 17.5964 13 24.5C13 31.4036 18.5964 37 25.5 37Z" fill="white"/>
<path d="M25.7736 28.7C25.7002 28.7 25.6379 28.678 25.5866 28.634C25.5426 28.5827 25.5206 28.5203 25.5206 28.447V22.287L23.6946 23.695C23.6359 23.739 23.5736 23.7573 23.5076 23.75C23.4416 23.7427 23.3866 23.7097 23.3426 23.651L23.0566 23.288C23.0126 23.222 22.9942 23.156 23.0016 23.09C23.0162 23.024 23.0529 22.969 23.1116 22.925L25.5096 21.077C25.5609 21.0403 25.6086 21.0183 25.6526 21.011C25.6966 21.0037 25.7442 21 25.7956 21H26.3566C26.4299 21 26.4886 21.0257 26.5326 21.077C26.5766 21.121 26.5986 21.1797 26.5986 21.253V28.447C26.5986 28.5203 26.5766 28.5827 26.5326 28.634C26.4886 28.678 26.4299 28.7 26.3566 28.7H25.7736Z" fill="white"/>
</svg>
