<svg width="50" height="50" viewBox="0 0 50 50" fill="none" xmlns="http://www.w3.org/2000/svg">
<circle cx="25" cy="25" r="25" fill="white" fill-opacity="0.15"/>
<g clip-path="url(#clip0_2_16628)">
<path fill-rule="evenodd" clip-rule="evenodd" d="M11.9814 24.0942V34.6629C11.9814 34.8701 12.1601 35.0687 12.4002 35.0687H37.6439C37.8714 35.0687 38.0627 34.8825 38.0627 34.6629V24.0942H39.0627V34.6629C39.0627 35.4785 38.379 36.0687 37.6439 36.0687H12.4002C11.5903 36.0687 10.9814 35.4047 10.9814 34.6629V24.0942H11.9814Z" fill="white"/>
<path fill-rule="evenodd" clip-rule="evenodd" d="M21.2498 15.0398C21.1772 15.1333 21.125 15.273 21.125 15.4236V17.451H20.125V15.4236C20.125 15.0565 20.2478 14.7001 20.4596 14.4269C20.6711 14.1542 21.0021 13.9314 21.4125 13.9314H27.7125C28.525 13.9314 29 14.6971 29 15.4236V17.451H28V15.4236C28 15.2449 27.9441 15.1099 27.8797 15.0293C27.8169 14.9507 27.7561 14.9314 27.7125 14.9314H21.4125C21.3854 14.9314 21.3226 14.9459 21.2498 15.0398Z" fill="white"/>
<path fill-rule="evenodd" clip-rule="evenodd" d="M22.875 24.7844V27.3727C22.875 27.5196 23.0342 27.7354 23.3375 27.7354H25.7875C26.0908 27.7354 26.25 27.5196 26.25 27.3727V24.7844H27.25V27.3727C27.25 28.1747 26.5342 28.7354 25.7875 28.7354H23.3375C22.5908 28.7354 21.875 28.1747 21.875 27.3727V24.7844H22.875Z" fill="white"/>
<path fill-rule="evenodd" clip-rule="evenodd" d="M26.75 26.5784H22.375V25.5784H26.75V26.5784Z" fill="white"/>
<path fill-rule="evenodd" clip-rule="evenodd" d="M12.4002 17.5195C12.1727 17.5195 11.9814 17.7057 11.9814 17.9254V23.447C11.9814 23.6542 12.1601 23.8529 12.4002 23.8529H37.6439C37.8714 23.8529 38.0627 23.6667 38.0627 23.447V17.9254C38.0627 17.7182 37.884 17.5195 37.6439 17.5195H12.4002ZM10.9814 17.9254C10.9814 17.1098 11.6652 16.5195 12.4002 16.5195H37.6439C38.4539 16.5195 39.0627 17.1836 39.0627 17.9254V23.447C39.0627 24.2626 38.379 24.8529 37.6439 24.8529H12.4002C11.5903 24.8529 10.9814 24.1888 10.9814 23.447V17.9254Z" fill="white"/>
</g>
<defs>
<clipPath id="clip0_2_16628">
<rect width="28" height="22" fill="white" transform="translate(11 14)"/>
</clipPath>
</defs>
</svg>
