<svg width="50" height="50" viewBox="0 0 50 50" fill="none" xmlns="http://www.w3.org/2000/svg">
<circle cx="25" cy="25" r="25" fill="white" fill-opacity="0.15"/>
<path d="M13.9844 10.4688V39.5312H36.0156V15.4375L31.0469 10.4688H13.9844ZM31.3281 12.0625L34.4219 15.1562H31.3281V12.0625ZM14.9219 38.5938V11.4062H30.3906V16.0938H35.0781V38.5938H14.9219Z" fill="white"/>
<path d="M33.2031 28.0469H16.7969V28.9844H33.2031V28.0469Z" fill="white"/>
<path d="M33.2031 30.3906H16.7969V31.3281H33.2031V30.3906Z" fill="white"/>
<path d="M33.2031 32.7344H27.3438V33.6719H33.2031V32.7344Z" fill="white"/>
<path d="M21.0156 20.7344V25.9375H28.9844V20.7344L29.3594 21.1094L30.0156 20.4531L28.9844 19.4219V16.3984H26.875V17.2891L25 15.4141L19.9844 20.4531L20.6406 21.1094L21.0156 20.7344ZM27.8125 19.5625V17.3359H28.0469V19.7031V19.7969V25H21.9531V19.7969L25 16.75L27.8125 19.5625Z" fill="white"/>
</svg>
