<svg width="50" height="50" viewBox="0 0 50 50" fill="none" xmlns="http://www.w3.org/2000/svg">
<circle cx="25" cy="25" r="25" fill="#273A4A" fill-opacity="0.05"/>
<path fill-rule="evenodd" clip-rule="evenodd" d="M24.1291 10.7421C24.2327 10.6363 24.4131 10.5 24.6643 10.5C24.9155 10.5 25.0959 10.6363 25.1994 10.7421C25.3062 10.8514 25.3885 10.985 25.4523 11.1092C25.5816 11.3605 25.6877 11.6787 25.7713 11.9857C25.9364 12.5923 26.0487 13.2908 26.0487 13.5974V14.4621H34.3926C34.8929 14.4621 35.3619 14.6528 35.6813 14.9952C35.9954 15.332 36.1466 15.7995 36.0412 16.2997C36.0088 17.2642 35.2094 18.0154 34.2157 18.0154C33.4479 18.0154 32.7962 17.567 32.5245 16.9184C32.4949 16.9301 32.4642 16.9422 32.4325 16.9546C32.0183 17.117 31.4254 17.3386 30.7122 17.5631C29.4116 17.9725 27.6921 18.3979 25.916 18.4846V31.7954C26.8113 31.8767 27.6089 32.0727 28.2201 32.3232C28.5771 32.4696 28.8913 32.643 29.1258 32.8392C29.302 32.9865 29.4987 33.2025 29.5639 33.48H30.6339C31.2372 33.48 31.753 33.9421 31.753 34.5523V35.961C31.753 36.5712 31.2372 37.0333 30.6339 37.0333H28.8209C28.2827 37.0333 27.8141 36.6655 27.7193 36.1529H21.4324C21.3376 36.6655 20.869 37.0333 20.3307 37.0333H18.5177C17.9145 37.0333 17.3987 36.5712 17.3987 35.961V34.5523C17.3987 33.9421 17.9145 33.48 18.5177 33.48H19.5877C19.6529 33.2025 19.8497 32.9865 20.0258 32.8392C20.2603 32.643 20.5746 32.4696 20.9315 32.3232C21.5427 32.0727 22.3403 31.8767 23.2356 31.7954V18.4789C21.478 18.3733 19.7596 17.9388 18.4566 17.5303C17.7421 17.3062 17.1465 17.088 16.7321 16.9325C16.6987 16.9199 16.6667 16.9079 16.6362 16.8963C16.3701 17.5569 15.7124 18.0154 14.936 18.0154C13.9214 18.0154 13.1094 17.2323 13.1094 16.2387C13.1094 15.2451 13.9214 14.4621 14.936 14.4621H23.2799V13.5974C23.2799 13.2908 23.3921 12.5923 23.5572 11.9857C23.6408 11.6787 23.747 11.3605 23.8762 11.1092C23.94 10.985 24.0223 10.8514 24.1291 10.7421ZM24.5221 12.2484C24.3666 12.8195 24.2799 13.4197 24.2799 13.5974V14.9621C24.2799 15.2382 24.056 15.4621 23.7799 15.4621H14.936C14.4471 15.4621 14.1094 15.8236 14.1094 16.2387C14.1094 16.6539 14.4471 17.0154 14.936 17.0154C15.4248 17.0154 15.7625 16.6539 15.7625 16.2387C15.7625 16.1142 15.8093 15.9853 15.9071 15.8861C15.9923 15.7996 16.086 15.7663 16.1363 15.7529C16.2282 15.7283 16.3052 15.7364 16.3243 15.7384L16.3252 15.7385C16.3783 15.744 16.4242 15.7569 16.4424 15.7621C16.4896 15.7755 16.5466 15.7955 16.6017 15.8155C16.6757 15.8423 16.7733 15.8792 16.8875 15.9223C16.9485 15.9454 17.0142 15.9702 17.0836 15.9963C17.4901 16.1489 18.0663 16.3599 18.7558 16.5761C20.1403 17.0102 21.9576 17.4574 23.7475 17.4998C24.0189 17.5062 24.2356 17.7281 24.2356 17.9997V32.2631C24.2356 32.531 24.0245 32.7513 23.7568 32.7627C22.7676 32.8046 21.9081 33.0037 21.3108 33.2485C21.01 33.3718 20.7964 33.4983 20.6675 33.6062C20.6341 33.6341 20.6106 33.657 20.5942 33.6749C20.7023 33.8151 20.7291 34.0041 20.6602 34.1708C20.583 34.3579 20.4005 34.48 20.1981 34.48H18.5177C18.4135 34.48 18.3987 34.5462 18.3987 34.5523V35.961C18.3987 35.9672 18.4135 36.0333 18.5177 36.0333H20.3307C20.435 36.0333 20.4498 35.9672 20.4498 35.961V35.6529C20.4498 35.3767 20.6737 35.1529 20.9498 35.1529H28.2018C28.478 35.1529 28.7018 35.3767 28.7018 35.6529V35.961C28.7018 35.9672 28.7167 36.0333 28.8209 36.0333H30.6339C30.7381 36.0333 30.753 35.9672 30.753 35.961V34.5523C30.753 34.5462 30.7381 34.48 30.6339 34.48H28.9536C28.7511 34.48 28.5687 34.3579 28.4914 34.1708C28.4226 34.0041 28.4493 33.8151 28.5574 33.6749C28.541 33.657 28.5175 33.6341 28.4842 33.6062C28.3553 33.4983 28.1416 33.3718 27.8408 33.2485C27.2435 33.0037 26.384 32.8046 25.3948 32.7627C25.1272 32.7513 24.916 32.531 24.916 32.2631V17.9997C24.916 17.7258 25.1363 17.5029 25.4101 17.4997C27.2203 17.4785 29.0359 17.0424 30.4119 16.6093C31.0972 16.3935 31.6677 16.1804 32.0674 16.0236C32.232 15.9591 32.3669 15.9044 32.4711 15.8622C32.4938 15.853 32.515 15.8444 32.5348 15.8364C32.5879 15.8149 32.6361 15.7956 32.6717 15.7823C32.6871 15.7766 32.7135 15.7669 32.7409 15.7591L32.7416 15.7588C32.7512 15.7561 32.7891 15.7452 32.8366 15.7405L32.8376 15.7404C32.8552 15.7386 32.9309 15.7309 33.0221 15.7562C33.0724 15.7702 33.1648 15.8043 33.2485 15.8909C33.3439 15.9896 33.3891 16.1166 33.3891 16.2387C33.3891 16.6539 33.7268 17.0154 34.2157 17.0154C34.7046 17.0154 35.0423 16.6539 35.0423 16.2387C35.0423 16.1977 35.0473 16.1568 35.0573 16.117C35.1029 15.9356 35.0543 15.7892 34.95 15.6773C34.8382 15.5575 34.6439 15.4621 34.3926 15.4621H25.5487C25.2725 15.4621 25.0487 15.2382 25.0487 14.9621V13.5974C25.0487 13.4197 24.9619 12.8195 24.8064 12.2484C24.7611 12.0819 24.713 11.9297 24.6643 11.8002C24.6155 11.9297 24.5674 12.0819 24.5221 12.2484ZM24.4831 11.44C24.4831 11.44 24.4835 11.4404 24.4842 11.4411C24.4835 11.4404 24.4831 11.4401 24.4831 11.44Z" fill="#273A4A"/>
<path fill-rule="evenodd" clip-rule="evenodd" d="M14.9816 17.0593C15.1959 17.0601 15.3859 17.1973 15.454 17.4006L19.4337 29.2868L18.4855 29.6043L14.9745 19.1181L11.5173 29.2113L10.5713 28.8873L14.5068 17.3973C14.5763 17.1945 14.7672 17.0586 14.9816 17.0593Z" fill="#273A4A"/>
<path fill-rule="evenodd" clip-rule="evenodd" d="M34.3926 17.0593C34.6087 17.0597 34.8001 17.1988 34.8671 17.4042L38.8911 29.7306L37.9405 30.0409L34.3893 19.1629L30.9311 29.6462L29.9814 29.3329L33.917 17.4027C33.9847 17.1975 34.1765 17.059 34.3926 17.0593Z" fill="#273A4A"/>
<path fill-rule="evenodd" clip-rule="evenodd" d="M11.5893 29.3957C11.6068 29.4158 11.6278 29.4377 11.6528 29.4612C11.7935 29.593 12.0238 29.7364 12.3488 29.8683C12.9957 30.1308 13.9245 30.3103 14.9798 30.3103C16.035 30.3103 16.9638 30.1308 17.6107 29.8683C17.9357 29.7364 18.166 29.593 18.3067 29.4612C18.3317 29.4377 18.3527 29.4158 18.3702 29.3957C18.2006 29.3438 17.9572 29.2937 17.6465 29.2501C16.9314 29.1499 15.9615 29.0981 14.9798 29.0981C13.998 29.0981 13.0281 29.1499 12.3131 29.2501C12.0023 29.2937 11.7589 29.3438 11.5893 29.3957ZM19.1788 28.6851C19.2948 28.7761 19.4595 28.9542 19.4595 29.2255C19.4595 29.6219 19.2493 29.9483 18.9905 30.1908C18.7304 30.4345 18.3804 30.6351 17.9868 30.7948C17.1966 31.1156 16.1355 31.3103 14.9798 31.3103C13.824 31.3103 12.7629 31.1156 11.9727 30.7948C11.5791 30.6351 11.2291 30.4345 10.969 30.1908C10.7102 29.9483 10.5 29.6219 10.5 29.2255C10.5 28.9542 10.6647 28.7761 10.7807 28.6851C10.8996 28.5918 11.042 28.5276 11.1725 28.4806C11.4389 28.3847 11.79 28.3137 12.1743 28.2598C12.9516 28.1509 13.9716 28.0981 14.9798 28.0981C15.9879 28.0981 17.0079 28.1509 17.7852 28.2598C18.1695 28.3137 18.5207 28.3847 18.787 28.4806C18.9175 28.5276 19.0599 28.5918 19.1788 28.6851Z" fill="#273A4A"/>
<path fill-rule="evenodd" clip-rule="evenodd" d="M31.0043 29.8392C31.0213 29.8584 31.0413 29.8792 31.0649 29.9013C31.2056 30.0332 31.4359 30.1765 31.7609 30.3084C32.4078 30.571 33.3366 30.7505 34.3919 30.7505C35.4471 30.7505 36.3759 30.571 37.0228 30.3084C37.3478 30.1765 37.5781 30.0332 37.7188 29.9013C37.7441 29.8777 37.7652 29.8556 37.7828 29.8353C37.6145 29.7837 37.373 29.7337 37.0645 29.6903C36.353 29.5901 35.3874 29.5383 34.4084 29.5383C33.4296 29.5383 32.461 29.5901 31.7436 29.6904C31.4265 29.7347 31.1776 29.7859 31.0043 29.8392ZM38.5924 29.1261C38.7085 29.2176 38.8716 29.3956 38.8716 29.6657C38.8716 30.0621 38.6614 30.3885 38.4026 30.631C38.1425 30.8747 37.7925 31.0753 37.3989 31.235C36.6087 31.5558 35.5476 31.7505 34.3919 31.7505C33.2362 31.7505 32.175 31.5558 31.3848 31.235C30.9913 31.0753 30.6412 30.8747 30.3811 30.631C30.1223 30.3885 29.9121 30.0621 29.9121 29.6657C29.9121 29.6569 29.9123 29.6481 29.9128 29.6393C29.9268 29.3754 30.0928 29.2064 30.2069 29.12C30.3259 29.0299 30.4676 28.9669 30.5994 28.9201C30.8677 28.8247 31.2198 28.7538 31.6052 28.7C32.3844 28.5911 33.4029 28.5383 34.4084 28.5383C35.4139 28.5383 36.4298 28.5911 37.2039 28.7C37.5865 28.7539 37.9363 28.825 38.2017 28.9211C38.3318 28.9682 38.4738 29.0325 38.5924 29.1261Z" fill="#273A4A"/>
</svg>
