<svg width="50" height="50" viewBox="0 0 50 50" fill="none" xmlns="http://www.w3.org/2000/svg">
<circle cx="25" cy="25" r="25" fill="white" fill-opacity="0.15"/>
<path d="M23.9687 37.0938V24.5312C23.9687 24.25 23.7812 24.0625 23.5 24.0625H20.5C20.2187 24.0625 20.0312 24.25 20.0312 24.5312V37.1875H21.0625V25H23.125V37.0938H23.9687Z" fill="white"/>
<path d="M30.0625 37.0938V26.5C30.0625 26.2188 29.875 26.0312 29.5937 26.0312H26.5938C26.3125 26.0312 26.125 26.2188 26.125 26.5V37.0938H27.1562V27.0625H29.2188V37.1875H30.0625V37.0938Z" fill="white"/>
<path d="M17.9688 37.0938V30.5312C17.9688 30.25 17.7812 30.0625 17.5 30.0625H14.4062C14.125 30.0625 13.9375 30.25 13.9375 30.5312V37.0938H14.9688V31H17.0312V37.0938H17.9688Z" fill="white"/>
<path d="M21.7187 18.5313L26.6875 21.0625L34.375 15.1563L33.7187 14.3125L26.5 19.8438L21.625 17.3125L13.8438 22L14.4062 22.8438L14.875 22.5625L21.7187 18.5313Z" fill="white"/>
<path d="M34.75 14.2188L34.0938 18.25L33.0625 18.0625L33.5313 15.0625L30.625 14.5938L30.8125 13.5625L34.75 14.2188Z" fill="white"/>
<path d="M36.0625 37.0938V21.4375C36.0625 21.1562 35.875 20.9688 35.5937 20.9688H32.5937C32.3125 20.9688 32.125 21.1562 32.125 21.4375V37.0938H33.1563V22H35.2187V37.0938H36.0625Z" fill="white"/>
<path d="M12.9062 36.0625H37.0937V37.0938H12.9062V36.0625Z" fill="white"/>
</svg>
