<svg width="50" height="50" viewBox="0 0 50 50" fill="none" xmlns="http://www.w3.org/2000/svg">
<circle cx="25" cy="25" r="25" fill="white" fill-opacity="0.15"/>
<path d="M32.0357 33.0625V24.6875C32.0357 24.5 31.9074 24.375 31.7151 24.375H29.6634C29.471 24.375 29.3428 24.5 29.3428 24.6875V33.125H30.0481V25H31.4586V33.0625H32.0357Z" fill="white"/>
<path d="M36.2036 33.0625V26C36.2036 25.8125 36.0754 25.6875 35.883 25.6875H33.8313C33.639 25.6875 33.5107 25.8125 33.5107 26V33.0625H34.216V26.375H35.6266V33.125H36.2036V33.0625Z" fill="white"/>
<path d="M27.9328 33.0625V28.6875C27.9328 28.5 27.8046 28.375 27.6122 28.375H25.4964C25.304 28.375 25.1758 28.5 25.1758 28.6875V33.0625H25.8811V29H27.2916V33.0625H27.9328Z" fill="white"/>
<path d="M30.4971 20.6875L33.8953 22.375L39.1528 18.4375L38.704 17.875L33.767 21.5625L30.433 19.875L25.1113 23L25.496 23.5625L25.8166 23.375L30.4971 20.6875Z" fill="white"/>
<path d="M39.409 17.8125L38.9602 20.5L38.2549 20.375L38.5755 18.375L36.5879 18.0625L36.7161 17.375L39.409 17.8125Z" fill="white"/>
<path d="M40.3071 33.0625V22.625C40.3071 22.4375 40.1789 22.3125 39.9866 22.3125H37.9348C37.7425 22.3125 37.6143 22.4375 37.6143 22.625V33.0625H38.3195V23H39.7301V33.0625H40.3071Z" fill="white"/>
<path d="M24.4697 32.375H41.0117V33.0625H24.4697V32.375Z" fill="white"/>
<path fill-rule="evenodd" clip-rule="evenodd" d="M12.9866 18.3139C12.9866 18.3138 12.9867 18.3138 12.7921 18.0229C12.5974 17.732 12.5975 17.732 12.5977 17.7319L12.598 17.7317L12.5988 17.7311L12.6013 17.7295L12.6092 17.7243L12.637 17.7065C12.6606 17.6915 12.6944 17.6706 12.7369 17.6455C12.8219 17.5953 12.9428 17.5276 13.0892 17.456C13.3786 17.3144 13.7836 17.1495 14.2164 17.0817C14.6479 17.0141 15.1473 17.0374 15.5803 17.3247C16.0192 17.6159 16.3207 18.1316 16.4491 18.9015L15.7587 19.0166C15.6505 18.3685 15.4198 18.0583 15.1933 17.908C14.9611 17.7539 14.6621 17.7204 14.3247 17.7733C13.9887 17.8259 13.6545 17.9587 13.3968 18.0848C13.2697 18.1469 13.1652 18.2055 13.093 18.2481C13.057 18.2694 13.0293 18.2866 13.0112 18.2981L12.9913 18.3108L12.987 18.3136L12.9866 18.3139Z" fill="white"/>
<path fill-rule="evenodd" clip-rule="evenodd" d="M11.8539 17.0987L11.8549 17.0997L11.8627 17.1063C11.8702 17.1125 11.8821 17.1224 11.8982 17.1354C11.9305 17.1614 11.9797 17.1997 12.0441 17.2462C12.1731 17.3395 12.3615 17.465 12.5957 17.5904C13.0675 17.8433 13.7052 18.0858 14.4063 18.0858V18.7858C13.549 18.7858 12.7951 18.4915 12.265 18.2074C12.2152 18.1807 12.1672 18.154 12.1211 18.1276C12.1969 18.3714 12.3013 18.6388 12.4335 18.9016C12.7416 19.5147 13.1391 19.9806 13.5419 20.1134L14.2842 20.3582L13.6072 20.7489C12.3587 21.4695 11.2498 22.9324 10.4494 24.5871C9.65092 26.238 9.19023 28.0163 9.19023 29.3116C9.19023 30.8639 9.85219 32.0414 10.9245 32.841C12.0074 33.6486 13.5281 34.0829 15.2412 34.0829C16.9543 34.0829 18.475 33.6486 19.5579 32.841C20.6302 32.0414 21.2922 30.8639 21.2922 29.3116C21.2922 28.0032 20.8249 26.2252 20.023 24.5776C19.2192 22.9262 18.1099 21.469 16.8739 20.7481L16.2027 20.3567L16.9406 20.1134C17.3433 19.9806 17.7408 19.5147 18.049 18.9016C18.2641 18.4736 18.4059 18.0336 18.4699 17.703C17.5155 17.7028 16.9322 17.8797 16.5931 18.0475C16.4022 18.1419 16.285 18.2352 16.22 18.2971C16.1872 18.3282 16.1671 18.3519 16.1571 18.3647C16.1521 18.3711 16.1495 18.3747 16.1492 18.3752C16.149 18.3755 16.1494 18.375 16.1502 18.3736L16.1519 18.3709L16.153 18.3691L16.1537 18.368C16.1538 18.3678 16.1543 18.3669 15.8535 18.188C15.5526 18.0092 15.5528 18.0089 15.553 18.0086L15.5542 18.0067L15.5559 18.0038L15.5601 17.9971C15.5632 17.9922 15.567 17.9864 15.5715 17.9799C15.5805 17.9667 15.5923 17.9504 15.6073 17.9314C15.6373 17.8934 15.6798 17.8448 15.7375 17.7899C15.8533 17.6797 16.0284 17.5458 16.2827 17.42C16.7921 17.1681 17.6049 16.9553 18.8749 17.0124L19.2092 17.0274V17.362C19.2092 17.8216 19.0049 18.5585 18.6744 19.216C18.4457 19.6711 18.1268 20.1479 17.72 20.4689C18.9121 21.347 19.9201 22.7669 20.6524 24.2712C21.4854 25.9827 21.9922 27.8668 21.9922 29.3116C21.9922 31.091 21.2209 32.4741 19.9764 33.4022C18.7424 34.3224 17.0626 34.7829 15.2412 34.7829C13.4199 34.7829 11.7401 34.3224 10.5061 33.4022C9.26154 32.4741 8.49023 31.091 8.49023 29.3116C8.49023 27.8812 8.9897 25.9975 9.81927 24.2823C10.5487 22.7743 11.5572 21.3472 12.7605 20.4674C12.3546 20.1464 12.0364 19.6703 11.808 19.216C11.4775 18.5585 11.2733 17.8216 11.2733 17.362V16.5896L11.8539 17.0987Z" fill="white"/>
<path fill-rule="evenodd" clip-rule="evenodd" d="M17.4954 20.7132H13.2373V20.0132H17.4954V20.7132Z" fill="white"/>
<path fill-rule="evenodd" clip-rule="evenodd" d="M17.5055 21.0711C17.5056 21.0711 17.5056 21.0711 17.4964 20.7212C17.4871 20.3714 17.4872 20.3714 17.4873 20.3713L17.4884 20.3713L17.4909 20.3713L17.4992 20.3711L17.5286 20.3707C17.5537 20.3705 17.5897 20.3705 17.6349 20.3711C17.7254 20.3723 17.8534 20.376 18.0065 20.3862C18.3112 20.4064 18.7233 20.4524 19.1403 20.5573C19.5528 20.6612 19.9979 20.8295 20.3464 21.1111C20.7065 21.4022 20.9634 21.8167 20.9634 22.3733H20.2634C20.2634 22.0624 20.1307 21.8368 19.9063 21.6555C19.6703 21.4648 19.3362 21.3285 18.9694 21.2362C18.6072 21.145 18.2401 21.1032 17.9603 21.0847C17.8212 21.0754 17.7057 21.0721 17.6257 21.071C17.5857 21.0705 17.5547 21.0706 17.5342 21.0707L17.5115 21.071L17.5055 21.0711ZM17.5055 21.0711C17.5054 21.0711 17.5055 21.0711 17.5055 21.0711V21.0711Z" fill="white"/>
<path fill-rule="evenodd" clip-rule="evenodd" d="M17.5322 20.5475C17.5322 20.5475 17.5321 20.5475 17.5517 20.198C17.5714 19.8486 17.5713 19.8486 17.5712 19.8486L17.5762 19.8488L17.5946 19.8497C17.6113 19.8504 17.6366 19.8514 17.6697 19.8523C17.7359 19.8542 17.8332 19.856 17.9548 19.8554C18.1983 19.8541 18.5374 19.8433 18.9188 19.805C19.6939 19.7273 20.5931 19.5409 21.2314 19.1323L21.6088 19.7219C20.8278 20.2219 19.7928 20.4209 18.9886 20.5016C18.5803 20.5425 18.2184 20.554 17.9584 20.5554C17.8281 20.556 17.723 20.5541 17.6497 20.552C17.6131 20.551 17.5844 20.5499 17.5645 20.549L17.5414 20.548L17.535 20.5476L17.5322 20.5475Z" fill="white"/>
<path fill-rule="evenodd" clip-rule="evenodd" d="M15.5198 25.5591C14.9009 25.5591 14.4783 25.9845 14.4783 26.4757C14.4783 26.7982 14.708 27.0858 15.0308 27.3222C15.184 27.4343 15.3394 27.5206 15.4576 27.5791C15.5162 27.6081 15.5646 27.6297 15.5974 27.6437C15.6138 27.6507 15.6263 27.6558 15.6341 27.6589L15.6405 27.6614L15.6544 27.6664C15.6672 27.671 15.6849 27.6776 15.7068 27.6861C15.7506 27.7032 15.8115 27.7283 15.884 27.7617C16.0279 27.8282 16.2221 27.9298 16.4187 28.0698C16.7999 28.3413 17.2614 28.8112 17.2614 29.5044C17.2614 30.417 16.432 31.1209 15.5198 31.1209C14.5803 31.1209 13.7783 30.445 13.7783 29.5044H14.4783C14.4783 29.9956 14.9009 30.4209 15.5198 30.4209C16.1105 30.4209 16.5614 29.9684 16.5614 29.5044C16.5614 29.1513 16.3271 28.864 16.0125 28.6399C15.8612 28.5321 15.7075 28.4513 15.5906 28.3973C15.5325 28.3705 15.4848 28.3509 15.4524 28.3383C15.4363 28.332 15.4241 28.3275 15.4165 28.3247L15.4086 28.3219L15.4076 28.3216L15.3966 28.3178L15.5197 27.9904C15.3967 28.3176 15.3967 28.3179 15.3966 28.3178L15.3956 28.3172L15.394 28.3166L15.3894 28.3149L15.3743 28.3089C15.3618 28.3039 15.3443 28.2968 15.3226 28.2875C15.2794 28.2691 15.219 28.242 15.1472 28.2065C15.0045 28.1359 14.812 28.0295 14.6173 27.887C14.2444 27.6139 13.7783 27.1443 13.7783 26.4757C13.7783 25.5351 14.5803 24.8591 15.5198 24.8591C16.432 24.8591 17.2614 25.563 17.2614 26.4757H16.5614C16.5614 26.0116 16.1105 25.5591 15.5198 25.5591Z" fill="white"/>
<path fill-rule="evenodd" clip-rule="evenodd" d="M15.1982 32.1752V23.8049H15.8982V32.1752H15.1982Z" fill="white"/>
</svg>
