<svg width="50" height="50" viewBox="0 0 50 50" fill="none" xmlns="http://www.w3.org/2000/svg">
<circle cx="25" cy="25" r="25" fill="white" fill-opacity="0.15"/>
<g clip-path="url(#clip0_2_16652)">
<path fill-rule="evenodd" clip-rule="evenodd" d="M21.9298 12.8205C21.9299 12.8204 21.9301 12.8204 21.6499 12.4062C21.3698 11.9921 21.3699 11.9919 21.3701 11.9918L21.3706 11.9915L21.3718 11.9907L21.3755 11.9882L21.3878 11.9801C21.3981 11.9733 21.4125 11.9639 21.4309 11.9521C21.4677 11.9286 21.5203 11.8957 21.5867 11.856C21.7194 11.7768 21.9083 11.6699 22.1372 11.5567C22.5898 11.3329 23.2219 11.073 23.8959 10.9663C24.5685 10.8598 25.3404 10.8977 26.0074 11.3449C26.6817 11.7971 27.1495 12.6003 27.3495 13.8123L26.3628 13.9751C26.191 12.9339 25.8221 12.4247 25.4504 12.1755C25.0715 11.9214 24.5884 11.8691 24.0523 11.954C23.5178 12.0386 22.9878 12.2517 22.5804 12.4531C22.3793 12.5526 22.2138 12.6463 22.0995 12.7146C22.0425 12.7486 21.9985 12.7762 21.9695 12.7947C21.9551 12.8039 21.9444 12.8109 21.9377 12.8153L21.9308 12.8199L21.9298 12.8205Z" fill="white"/>
<path fill-rule="evenodd" clip-rule="evenodd" d="M20.5081 12.4579C20.6306 12.8839 20.8096 13.3619 21.0422 13.8297C21.5285 14.8076 22.1619 15.5644 22.8144 15.7819L23.8627 16.1313L22.9082 16.6881C20.933 17.8403 19.1836 20.1758 17.9229 22.8103C16.6651 25.4388 15.9375 28.2736 15.9375 30.3437C15.9375 32.8305 16.9879 34.7183 18.6861 35.9983C20.3991 37.2895 22.8003 37.9812 25.5 37.9812C28.1997 37.9812 30.6009 37.2895 32.3139 35.9983C34.0121 34.7183 35.0625 32.8305 35.0625 30.3437C35.0625 28.2526 34.3245 25.4183 33.0612 22.795C31.7952 20.1659 30.0453 17.8396 28.0898 16.6869L27.1437 16.1292L28.1856 15.7819C28.8381 15.5644 29.4715 14.8076 29.9578 13.8297C30.3118 13.1176 30.5417 12.382 30.6372 11.842C29.0948 11.8339 28.1529 12.12 27.6049 12.394C27.3004 12.5463 27.112 12.6974 27.0059 12.7994C26.9526 12.8507 26.9193 12.8903 26.9019 12.9126C26.8932 12.9237 26.8885 12.9305 26.8873 12.9324C26.8867 12.9333 26.8869 12.933 26.8879 12.9313L26.8901 12.9278L26.8917 12.9253L26.8925 12.9238C26.8928 12.9234 26.8935 12.9222 26.4625 12.6687C26.0315 12.4152 26.0318 12.4148 26.032 12.4143L26.0326 12.4135L26.0337 12.4116L26.0362 12.4074L26.0423 12.3976C26.0469 12.3903 26.0525 12.3816 26.0593 12.3717C26.0727 12.3518 26.0905 12.3269 26.1133 12.2977C26.1588 12.2393 26.2239 12.164 26.3128 12.0786C26.4911 11.9072 26.7621 11.6974 27.1576 11.4996C27.9497 11.1036 29.2195 10.7662 31.2102 10.8567L31.6875 10.8784V11.3562C31.6875 12.0734 31.3704 13.2347 30.8532 14.2749C30.4835 15.0183 29.9664 15.7918 29.3074 16.2941C31.1987 17.6785 32.8006 19.949 33.9622 22.3611C35.2693 25.0754 36.0625 28.0598 36.0625 30.3437C36.0625 33.1506 34.8597 35.3316 32.9158 36.7969C30.9866 38.251 28.3565 38.9812 25.5 38.9812C22.6435 38.9812 20.0134 38.251 18.0842 36.7969C16.1403 35.3316 14.9375 33.1506 14.9375 30.3437C14.9375 28.0826 15.7193 25.0986 17.0209 22.3787C18.1779 19.9607 19.7805 17.6787 21.6897 16.2919C21.032 15.7895 20.516 15.0172 20.1468 14.2749C19.6296 13.2347 19.3125 12.0734 19.3125 11.3562V10.2449L20.1436 10.9815L20.146 10.9836L20.1586 10.9944C20.1706 11.0046 20.1896 11.0206 20.2153 11.0415C20.2667 11.0832 20.3448 11.1447 20.4467 11.2192C20.6509 11.3685 20.949 11.5691 21.3194 11.7697C22.0652 12.1737 23.0753 12.5624 24.1875 12.5624V13.5624C22.8497 13.5624 21.6723 13.0981 20.8431 12.649C20.7248 12.5849 20.6129 12.5207 20.5081 12.4579Z" fill="white"/>
<path fill-rule="evenodd" clip-rule="evenodd" d="M29.0434 16.625H22.3496V15.625H29.0434V16.625Z" fill="white"/>
<path fill-rule="evenodd" clip-rule="evenodd" d="M29.0575 17.1934C29.0576 17.1934 29.0577 17.1934 29.0443 16.6936C29.031 16.1938 29.0311 16.1938 29.0313 16.1938L29.033 16.1937L29.0367 16.1937L29.0495 16.1934L29.0954 16.1928C29.1346 16.1925 29.1908 16.1925 29.2616 16.1934C29.4031 16.1953 29.6035 16.2012 29.8434 16.2173C30.3207 16.2493 30.9657 16.3221 31.6176 16.488C32.2633 16.6523 32.9554 16.9176 33.4951 17.3585C34.0514 17.813 34.4443 18.4562 34.4443 19.3186H33.4443C33.4443 18.8029 33.2248 18.429 32.8624 18.1329C32.4833 17.8232 31.9504 17.6045 31.371 17.4571C30.798 17.3113 30.218 17.2446 29.7766 17.2151C29.5571 17.2004 29.3747 17.195 29.2482 17.1933C29.185 17.1925 29.136 17.1925 29.1034 17.1928L29.0673 17.1932L29.0591 17.1934L29.0575 17.1934Z" fill="white"/>
<path fill-rule="evenodd" clip-rule="evenodd" d="M29.1026 16.3618C29.1024 16.3618 29.1023 16.3618 29.1307 15.8626C29.159 15.3634 29.159 15.3634 29.1589 15.3634L29.1602 15.3634L29.1669 15.3638L29.1962 15.3651C29.2226 15.3663 29.2626 15.3678 29.3149 15.3693C29.4194 15.3724 29.5728 15.3752 29.7645 15.3742C30.1484 15.3722 30.6829 15.3549 31.2842 15.294C32.5044 15.1704 33.927 14.8734 34.9403 14.2178L35.4836 15.0573C34.2656 15.8454 32.6476 16.161 31.385 16.2889C30.7448 16.3538 30.1774 16.3721 29.7697 16.3742C29.5656 16.3752 29.4008 16.3722 29.2861 16.3689C29.2287 16.3673 29.1838 16.3655 29.1527 16.3642L29.1167 16.3625L29.1067 16.362L29.1038 16.3618L29.1026 16.3618Z" fill="white"/>
<path fill-rule="evenodd" clip-rule="evenodd" d="M25.9375 24.325C24.9468 24.325 24.25 25.0162 24.25 25.8375C24.25 26.3802 24.6311 26.8518 25.1412 27.2293C25.3849 27.4097 25.6318 27.5482 25.8193 27.642C25.9124 27.6885 25.9892 27.7232 26.0416 27.7458C26.0677 27.7571 26.0876 27.7653 26.1002 27.7704L26.1111 27.7747L26.1336 27.7828C26.1534 27.79 26.1808 27.8003 26.2149 27.8138C26.2829 27.8406 26.3778 27.8801 26.4907 27.9328C26.7152 28.0375 27.0177 28.1975 27.3234 28.4176C27.9189 28.8464 28.625 29.5783 28.625 30.65C28.625 32.0593 27.3537 33.1625 25.9375 33.1625C24.4782 33.1625 23.25 32.1037 23.25 30.65H24.25C24.25 31.4712 24.9468 32.1625 25.9375 32.1625C26.8838 32.1625 27.625 31.4281 27.625 30.65C27.625 30.0591 27.2374 29.5879 26.7391 29.2292C26.498 29.0555 26.2536 28.9257 26.0679 28.839C25.9757 28.796 25.8997 28.7644 25.8481 28.7441C25.8223 28.7339 25.8028 28.7266 25.7905 28.7221L25.7777 28.7175L25.7763 28.717L25.776 28.7169L25.7757 28.7168L25.7757 28.7168L25.7756 28.7168L25.7682 28.7142L25.7599 28.7111L25.9375 28.2437C25.7599 28.7111 25.7597 28.711 25.7596 28.711L25.7592 28.7108L25.7583 28.7105L25.756 28.7096L25.7489 28.7068L25.7256 28.6976C25.7062 28.6897 25.6791 28.6785 25.6454 28.664C25.5781 28.635 25.4841 28.5924 25.3721 28.5364C25.1494 28.4251 24.8494 28.2574 24.5463 28.0331C23.9626 27.6012 23.25 26.8697 23.25 25.8375C23.25 24.3837 24.4782 23.325 25.9375 23.325C27.3537 23.325 28.625 24.4281 28.625 25.8375H27.625C27.625 25.0593 26.8838 24.325 25.9375 24.325Z" fill="white"/>
<path fill-rule="evenodd" clip-rule="evenodd" d="M25.4814 34.8938V21.5938H26.4814V34.8938H25.4814Z" fill="white"/>
</g>
<defs>
<clipPath id="clip0_2_16652">
<rect width="21" height="29.3125" fill="white" transform="translate(15 10)"/>
</clipPath>
</defs>
</svg>
