<svg width="50" height="50" viewBox="0 0 50 50" fill="none" xmlns="http://www.w3.org/2000/svg">
<circle cx="25" cy="25" r="25" fill="white" fill-opacity="0.15"/>
<path d="M19.0354 11.2894C18.3616 11.2947 17.7451 11.4132 17.1892 11.5846C17.0109 11.646 16.8033 11.8126 16.7454 12.0345C16.6876 12.2565 16.7548 12.4332 16.824 12.5699C16.9627 12.8431 17.1778 13.0546 17.4206 13.2814C18.2201 13.8448 18.9254 14.5916 19.4731 15.2752C19.6323 15.4734 19.7992 15.6694 19.986 15.8339C20.1729 15.9983 20.3826 16.1541 20.6906 16.1732C21.0046 16.1926 21.3385 16.0819 21.5101 15.8339C21.6817 15.5856 21.672 15.3314 21.6474 15.1223C21.6228 14.9133 21.568 14.7218 21.5231 14.5637C21.4161 14.2129 21.4974 13.9348 21.5559 13.657C21.6187 13.4008 21.7044 13.0961 21.6077 12.7426C21.4835 12.289 21.1429 12.0145 20.7951 11.7738C20.4593 11.5499 20.0965 11.425 19.7279 11.323C19.4908 11.2979 19.2599 11.2874 19.0354 11.2893L19.0354 11.2894ZM11.7329 11.3013C11.4874 11.3003 11.2881 11.4996 11.2891 11.7451V38.2713C11.2899 38.515 11.4887 38.7121 11.7329 38.7112H38.2591C38.5019 38.7103 38.6985 38.5136 38.6994 38.2708C38.7003 38.0267 38.5032 37.8279 38.2591 37.827H37.6978C37.1199 36.1049 36.1897 34.8688 35.1194 33.7928C33.9846 32.6519 32.6976 31.6749 31.4375 30.4149C30.7445 29.7218 30.1687 28.3358 29.6001 26.8323C29.0314 25.3287 28.4551 23.7113 27.5571 22.514C26.8788 21.762 25.8244 21.6204 24.8846 21.5875C23.9033 21.5545 22.9275 21.5541 22.4729 21.3267C21.8587 21.0196 21.3791 20.4047 20.91 19.5937C20.4408 18.7824 19.9939 17.7936 19.3989 16.8286C18.2088 14.8987 16.332 13.069 12.6171 13.069H12.1733V11.7444C12.1742 11.5002 11.9771 11.3015 11.7329 11.3006V11.3013ZM19.1847 12.1579C19.3366 12.1589 19.4901 12.1729 19.6467 12.2018C19.8788 12.2848 20.0973 12.3817 20.2926 12.5024C20.7433 12.8051 20.7593 13.038 20.6976 13.4487C20.6393 13.6863 20.5483 13.9798 20.5672 14.3269C20.6158 14.6467 20.7027 14.9158 20.7692 15.2275C20.7906 15.3482 20.62 15.2169 20.5698 15.1689C20.4514 15.0646 20.307 14.9019 20.1622 14.7216C19.8725 14.3606 19.6261 13.958 19.3074 13.6902C18.7684 13.2459 18.2188 12.8566 17.8058 12.3881C18.2861 12.2634 18.7291 12.1544 19.1847 12.1575L19.1847 12.1579ZM12.1733 13.9548H12.6171C16.0546 13.9548 17.5316 15.4908 18.6451 17.2965C19.2018 18.1993 19.6409 19.1713 20.1423 20.038C20.4027 20.4881 20.6828 20.9145 21.0119 21.2814L17.0355 21.2948C16.7926 21.2957 16.596 21.4922 16.5952 21.7352C16.5943 21.9807 16.7935 22.18 17.039 22.179L22.1784 22.1623C22.9766 22.5162 23.9582 22.4422 24.8552 22.4723C25.6224 22.471 26.4359 22.5503 26.849 23.0465C27.623 24.0785 28.2033 25.6324 28.7746 27.1429C29.2082 28.2894 29.6286 29.4129 30.2071 30.2894L24.1109 30.296C23.8679 30.2969 23.6714 30.4934 23.6705 30.7364C23.6696 30.9806 23.8667 31.1794 24.1109 31.1803L30.941 31.1696C32.2071 32.4164 33.4527 33.3709 34.4925 34.4163C35.4458 35.3747 36.2309 36.3998 36.7592 37.8271H12.1733V13.9548ZM21.7795 17.0236C21.6597 17.0237 21.5515 17.0568 21.4583 17.1109C21.2001 17.2601 21.0733 17.5664 21.1509 17.8543C21.2284 18.1424 21.4925 18.348 21.7907 18.3474C22.089 18.3467 22.3544 18.1393 22.4306 17.8509C22.5068 17.5626 22.3794 17.2555 22.1206 17.1074C21.9997 17.0492 21.8852 17.0236 21.7795 17.0237V17.0236ZM28.4879 19.8584C28.2975 19.8803 28.0705 20.0081 27.9689 20.1943C27.8674 20.3803 27.8729 20.5541 27.8938 20.7038C27.9357 21.0031 28.06 21.2759 28.2098 21.5655C28.5094 22.1447 28.9995 22.729 29.0716 22.998C29.3071 23.6361 29.4887 24.2147 29.7606 24.7932C29.8818 25.0107 30.025 25.2301 30.309 25.351C30.5983 25.4743 30.9485 25.4819 31.1932 25.3052C31.4378 25.1285 31.5152 24.887 31.5619 24.6817C31.6085 24.4765 31.6196 24.2775 31.6301 24.1136C31.6345 23.7836 31.8179 23.5114 31.9669 23.2691C32.1117 23.0486 32.2922 22.7918 32.3192 22.4263C32.3556 21.9328 32.089 21.5765 31.8356 21.252C31.5834 20.929 31.3078 20.6667 31.1146 20.5146C30.4717 19.9949 29.6629 19.85 28.7944 19.8505L28.4879 19.8584ZM28.8601 20.8108C29.5514 20.8258 30.1682 20.8849 30.5603 21.2028C30.7809 21.3949 31.0025 21.5868 31.1379 21.7969C31.484 22.2203 31.4255 22.4161 31.226 22.7821C30.9118 23.2111 30.7936 23.579 30.7493 24.0584C30.7346 24.2668 30.6849 24.4517 30.6544 24.5385C30.4725 24.32 30.3817 24.0258 30.2952 23.8036C30.1427 23.367 30.0466 22.9062 29.8358 22.5473C29.4625 21.9259 29.1124 21.4541 28.8601 20.8108H28.8601ZM31.5066 25.9045C31.3869 25.9046 31.2778 25.9369 31.1846 25.9909C30.9264 26.1401 30.8004 26.4473 30.878 26.7352C30.9555 27.0232 31.2196 27.2289 31.5179 27.2283C31.8161 27.2276 32.0815 27.0201 32.1577 26.7317C32.234 26.4435 32.1066 26.1364 31.8477 25.9883C31.7268 25.9301 31.6123 25.9044 31.5066 25.9046V25.9045ZM33.275 25.9045C33.1553 25.9046 33.0471 25.9369 32.9538 25.9909C32.6957 26.1401 32.5688 26.4473 32.6464 26.7352C32.724 27.0232 32.988 27.2289 33.2863 27.2283C33.5845 27.2276 33.8499 27.0201 33.9261 26.7317C34.0024 26.4435 33.875 26.1364 33.6161 25.9883C33.4952 25.9301 33.3807 25.9044 33.275 25.9046V25.9045ZM34.0168 28.0364C33.4264 28.0358 32.8413 28.1795 32.2242 28.3827C32.2207 28.384 32.2178 28.388 32.2146 28.3893C32.0369 28.4537 31.8337 28.6325 31.7872 28.8521C31.7406 29.0718 31.8059 29.2378 31.8753 29.3711C32.014 29.6377 32.2264 29.8525 32.4659 30.0791C33.2508 30.6502 33.9607 31.3944 34.5054 32.0738C34.6646 32.272 34.8306 32.4671 35.0175 32.6316C35.2043 32.796 35.4149 32.9554 35.7229 32.9744C36.0369 32.9938 36.37 32.8831 36.5415 32.6351C36.7131 32.3868 36.7035 32.1326 36.6788 31.9236C36.6542 31.7145 36.6002 31.5238 36.5553 31.3657C36.4289 31.0473 36.5289 30.736 36.5873 30.4582C36.6501 30.202 36.7367 29.8982 36.64 29.5447C36.5094 29.0673 36.1384 28.822 35.7912 28.6009C35.5055 28.4336 35.1717 28.2827 34.8284 28.1346C34.5578 28.0886 34.2873 28.0562 34.0167 28.0362L34.0168 28.0364ZM35.3146 29.3455C35.7812 29.6289 35.7909 29.8385 35.7291 30.2495C35.5753 30.7583 35.5862 31.1417 35.7066 31.6069C35.7543 31.796 35.7834 31.9851 35.799 32.106L35.6021 31.9697C35.4837 31.8654 35.3394 31.7027 35.1946 31.5224C34.9049 31.1618 34.6576 30.7592 34.3389 30.4914C34.0679 30.2636 33.4918 29.8336 33.073 29.4371C32.9617 29.3317 32.9283 29.2733 32.8545 29.1858C33.3154 29.0552 33.7393 28.9453 34.1411 28.9423C34.5851 28.9303 34.9791 29.1603 35.3146 29.3456L35.3146 29.3455ZM37.1486 33.5075C37.0288 33.5076 36.9207 33.5407 36.8274 33.5946C36.5692 33.7438 36.4433 34.0502 36.5209 34.3381C36.5984 34.6261 36.8625 34.8318 37.1607 34.8311C37.459 34.8304 37.7244 34.6239 37.8005 34.3355C37.8768 34.0472 37.7486 33.7392 37.4897 33.5912C37.3688 33.533 37.2543 33.5073 37.1486 33.5075Z" fill="white"/>
</svg>
