<svg width="50" height="50" viewBox="0 0 50 50" fill="none" xmlns="http://www.w3.org/2000/svg">
<circle cx="25" cy="25" r="25" fill="white" fill-opacity="0.15"/>
<path opacity="0.58" d="M17.2891 32.4531C16.4922 32.4531 14.5 31.9844 13 27.7656L12.8828 27.4141L12.5078 27.4609C12.2266 27.4844 12.0156 27.4141 11.875 27.2266C11.7578 27.0625 11.7344 26.8281 11.8047 26.6406C11.875 26.5 12.0156 26.4062 12.2266 26.3828L12.2031 26.0312H19.1172V25.0937H11.7578V24.8594L12.4844 24.6484V23.9219C12.4844 22.3047 13.3047 20.7812 14.6406 19.9141V21.7422H15.5781V19.1172C15.5781 19.0938 15.6016 19.0703 15.625 19.0703H18.0625V18.1328H15.6484C15.2031 18.1328 14.8281 18.4141 14.7109 18.8359C12.7891 19.7969 11.5469 21.7656 11.5469 23.9453V23.9687L10.8203 24.1797V26.0547H11.0781C11.0312 26.1016 10.9844 26.1719 10.9375 26.2422C10.7031 26.7344 10.7734 27.3203 11.0781 27.7656C11.3359 28.1406 11.7344 28.3516 12.2031 28.375C13.1172 30.7891 14.2188 32.0312 15.2031 32.6875L11.6875 34.375C10.9375 34.7266 10.4453 35.5 10.4453 36.3437V39.5312H16.3047V38.5937H13.6328V38.1953H12.6953V38.5937H11.4062V36.3672C11.4062 35.8984 11.6875 35.4531 12.1094 35.2422L15.2031 33.7422C15.3438 34.1875 15.6484 34.5859 16.0469 34.8672L16.5625 34.0937C16.2344 33.8828 16.0469 33.5312 16.0234 33.1562C16.5391 33.3437 16.9609 33.4141 17.2656 33.4141C19.8203 33.4141 21.3906 30.5547 21.9531 29.3359L21.1094 28.9375C19.6562 32.1016 17.9453 32.4531 17.2891 32.4531Z" fill="white"/>
<path opacity="0.58" d="M38.2891 34.3984L34.7734 32.7109C35.7578 32.0547 36.8594 30.7891 37.7734 28.3984C38.2422 28.3516 38.6406 28.1406 38.8984 27.7891C39.2266 27.3438 39.2734 26.7578 39.0391 26.2656C39.0156 26.1953 38.9688 26.125 38.9219 26.0547H39.1797V24.1797L38.4531 23.9687V23.9453C38.4531 21.7891 37.2109 19.7969 35.2891 18.8359C35.1484 18.4375 34.7969 18.1328 34.3516 18.1328H31.9141V19.0703H34.3516C34.375 19.0703 34.3984 19.0938 34.3984 19.1172V21.7422H35.3359V19.9141C36.6719 20.7812 37.4922 22.3047 37.4922 23.9219V24.6484L38.2188 24.8594V25.0937H30.8828V26.0312H37.7969L37.7734 26.3828C37.9844 26.4062 38.125 26.4766 38.1953 26.6406C38.2656 26.8047 38.2422 27.0625 38.125 27.2266C37.9844 27.4141 37.7734 27.4844 37.4922 27.4609L37.1172 27.4141L37 27.7656C35.4766 32.0078 33.4844 32.4531 32.7109 32.4531C32.0547 32.4531 30.3437 32.1016 28.8906 28.9141L28.0469 29.3125C28.6094 30.5312 30.1797 33.3906 32.7344 33.3906C33.0391 33.3906 33.4609 33.3437 33.9766 33.1328C33.9531 33.5078 33.7422 33.8594 33.4375 34.0703L33.9531 34.8438C34.3516 34.5625 34.6563 34.1641 34.7969 33.7187L37.8906 35.2187C38.3125 35.4297 38.5938 35.875 38.5938 36.3437V38.5703H37.3047V38.1719H36.3672V38.5703H33.6719V39.5078H39.5312V36.3437C39.5312 35.5234 39.0391 34.75 38.2891 34.3984Z" fill="white"/>
<path d="M32.5469 32.8516L28.0469 30.6719V30.0156C29.2891 29.0781 30.6484 27.3672 31.7969 24.3203C32.4062 24.2969 32.9219 24.0156 33.2734 23.5234C33.7188 22.9141 33.7891 22.0703 33.4844 21.4141C33.2734 20.9688 32.8984 20.6406 32.4297 20.5C32.3125 15.0625 29.5469 11.8281 25 11.8281C20.4531 11.8281 17.7109 15.0391 17.5703 20.4766C17.5703 20.4766 17.5703 20.4766 17.5703 20.5C17.1016 20.6406 16.7266 20.9688 16.5156 21.4141C16.2109 22.0703 16.2813 22.9141 16.7266 23.5234C17.0781 24.0156 17.5938 24.2734 18.2031 24.3203C19.3516 27.3672 20.7109 29.0781 21.9531 30.0156V30.6719L17.4531 32.8281C16.4922 33.2969 15.8594 34.2812 15.8594 35.3594V39.5312H23.2891H26.6875H34.1406V35.3828C34.1406 34.3047 33.5078 33.3203 32.5469 32.8516ZM32.6406 21.7891C32.8047 22.1406 32.7578 22.6328 32.5234 22.9609C32.4531 23.0781 32.3125 23.1953 32.1484 23.2656C32.2891 22.7031 32.3828 22.0469 32.4297 21.4844C32.5 21.5781 32.5703 21.6719 32.6406 21.7891ZM25 12.7656C29.0312 12.7656 31.3984 15.6016 31.4922 20.5469C28.7734 21.1562 26.4531 19.9609 24.4141 18.9062C22.7031 18.0156 21.2266 17.2422 19.8438 17.7578C19.4219 17.9219 19.0469 18.1797 18.6953 18.5781C19.3047 14.8516 21.5312 12.7656 25 12.7656ZM17.4766 22.9609C17.2422 22.6328 17.1953 22.1406 17.3594 21.7891C17.4062 21.6719 17.5 21.5781 17.5938 21.5078C17.6406 22.1641 17.7578 22.75 17.8984 23.2891C17.7109 23.2188 17.5703 23.1016 17.4766 22.9609ZM18.9766 23.6875C18.7422 22.8438 18.5078 21.9766 18.5078 20.875C18.5078 20.8047 18.5078 20.7344 18.5078 20.6641C19 19.5391 19.5391 18.8594 20.1719 18.625C21.1563 18.25 22.4688 18.9297 23.9922 19.7266C25.6797 20.5938 27.6719 21.6484 29.9922 21.6484C30.4609 21.6484 30.9531 21.6016 31.4688 21.5078C31.3984 22.2109 31.2578 23.1016 31.0469 23.6875C28.9375 29.5703 26.125 30.2031 25 30.2031C23.8984 30.2031 21.0859 29.5703 18.9766 23.6875ZM25 31.1406C25.4922 31.1406 26.2422 31.0469 27.1094 30.6016V31.1172L25.5625 32.5937L25.5391 32.6172C25.2578 32.9219 24.7422 32.9219 24.4609 32.6172L22.8906 31.1172V30.6016C23.7578 31.0469 24.5078 31.1406 25 31.1406ZM19.8438 38.5937V37.8906H18.9062V38.5937H16.7969V35.3828C16.7969 34.6562 17.2188 34 17.8516 33.6953L22.0703 31.6562L23.7578 33.2734C23.8281 33.3437 23.8984 33.4141 23.9922 33.4844L23.4062 38.5937H19.8438ZM24.3438 38.5937L24.9062 33.7891C24.9297 33.7891 24.9531 33.7891 24.9766 33.7891C25 33.7891 25.0234 33.7891 25.0469 33.7891L25.6094 38.5937H24.3438ZM33.2031 38.5937H31.0938V37.8906H30.1562V38.5937H26.5938L25.9844 33.4844C26.0781 33.4141 26.1484 33.3672 26.2187 33.2734L27.9062 31.6562L32.125 33.6953C32.7812 34 33.1797 34.6797 33.1797 35.3828V38.5937H33.2031Z" fill="white"/>
</svg>
