<svg width="50" height="50" viewBox="0 0 50 50" fill="none" xmlns="http://www.w3.org/2000/svg">
<circle cx="25" cy="25" r="25" fill="#273A4A" fill-opacity="0.05"/>
<path fill-rule="evenodd" clip-rule="evenodd" d="M32.8818 19.7676C32.8818 19.0243 32.2909 18.4753 31.4672 18.4775L31.4658 18.4775C30.631 18.4775 30.0439 19.0284 30.0439 19.7676C30.0439 20.4226 30.4691 21.0525 30.9823 21.2386C31.1351 21.2915 31.2985 21.3213 31.4629 21.3213C31.6326 21.3213 31.7945 21.2926 31.94 21.2399L31.9411 21.2395C32.455 21.0546 32.8818 20.4211 32.8818 19.7676ZM31.4644 17.4775C32.7502 17.474 33.8818 18.3839 33.8818 19.7676C33.8818 20.7779 33.2483 21.8317 32.2801 22.1803C32.0215 22.2739 31.7442 22.3213 31.4629 22.3213C31.1771 22.3213 30.9019 22.2694 30.6512 22.1822L30.6462 22.1805L30.6462 22.1805C29.678 21.8322 29.0439 20.7814 29.0439 19.7676C29.0439 18.3857 30.1737 17.4775 31.4658 17.4775V17.9775L31.4644 17.4775Z" fill="#273A4A"/>
<path fill-rule="evenodd" clip-rule="evenodd" d="M18.543 18.4775C17.7082 18.4775 17.1211 19.0284 17.1211 19.7676C17.1211 20.4226 17.5462 21.0525 18.0594 21.2386C18.2123 21.2915 18.3756 21.3213 18.54 21.3213C18.7097 21.3213 18.8716 21.2926 19.0172 21.2399L19.0183 21.2395C19.5322 21.0546 19.959 20.4211 19.959 19.7676C19.959 19.0241 19.3763 18.4775 18.543 18.4775ZM16.1211 19.7676C16.1211 18.3857 17.2508 17.4775 18.543 17.4775C19.8366 17.4775 20.959 18.3841 20.959 19.7676C20.959 20.7779 20.3255 21.8317 19.3573 22.1803C19.0987 22.2739 18.8213 22.3213 18.54 22.3213C18.2542 22.3213 17.979 22.2694 17.7283 22.1822L17.7233 22.1805L17.7233 22.1805C16.7552 21.8322 16.1211 20.7814 16.1211 19.7676Z" fill="#273A4A"/>
<path fill-rule="evenodd" clip-rule="evenodd" d="M25 15.1963C24.3116 15.1963 23.8418 15.6476 23.8418 16.2402C23.8418 16.7809 24.1966 17.2967 24.6073 17.4447C24.7336 17.4887 24.8648 17.5127 25 17.5127C25.135 17.5127 25.2659 17.4888 25.392 17.4449C25.8064 17.2941 26.1582 16.7778 26.1582 16.2402C26.1582 15.6453 25.6891 15.1963 25 15.1963ZM22.8418 16.2402C22.8418 15.0047 23.8545 14.1963 25 14.1963C26.1449 14.1963 27.1582 15.0012 27.1582 16.2402C27.1582 17.1373 26.5971 18.0733 25.7292 18.3863L25.7247 18.388L25.7247 18.3879C25.5 18.4666 25.2567 18.5127 25 18.5127C24.7433 18.5127 24.5 18.4666 24.2752 18.3879L24.272 18.3868L24.272 18.3868C23.406 18.0769 22.8418 17.1403 22.8418 16.2402Z" fill="#273A4A"/>
<path fill-rule="evenodd" clip-rule="evenodd" d="M16.8496 25.1572C15.8484 25.1572 15.123 25.8247 15.123 26.7344C15.123 27.5223 15.6341 28.2892 16.2663 28.5159C16.45 28.58 16.6486 28.6162 16.8525 28.6162C17.0609 28.6162 17.2579 28.5815 17.4351 28.5172L17.4359 28.5169C18.071 28.288 18.582 27.5218 18.582 26.7344C18.582 25.8263 17.8526 25.1572 16.8496 25.1572ZM14.123 26.7344C14.123 25.1831 15.3899 24.1572 16.8496 24.1572C18.3075 24.1572 19.582 25.1815 19.582 26.7344C19.582 27.8804 18.8629 29.0651 17.7756 29.4575C17.4842 29.5631 17.1715 29.6162 16.8525 29.6162C16.5297 29.6162 16.2191 29.5589 15.9344 29.4592L15.9314 29.4582L15.9314 29.4582C14.8417 29.069 14.123 27.8795 14.123 26.7344Z" fill="#273A4A"/>
<path fill-rule="evenodd" clip-rule="evenodd" d="M15.6514 30.9404C14.782 30.9404 14.0684 31.6541 14.0684 32.5234V33.1045H18.89C18.9366 32.5617 19.0905 32.048 19.3305 31.5865C19.0408 31.1943 18.5754 30.9404 18.0537 30.9404H15.6514ZM13.0684 32.5234C13.0684 31.1018 14.2297 29.9404 15.6514 29.9404H18.0537C19.0576 29.9404 19.9283 30.5153 20.356 31.3489C20.4363 31.5054 20.4284 31.6925 20.3354 31.8417C20.0437 32.3095 19.875 32.8627 19.875 33.4551V33.6045C19.875 33.8806 19.6511 34.1045 19.375 34.1045H13.9727C13.4739 34.1045 13.0684 33.699 13.0684 33.2002V32.5234Z" fill="#273A4A"/>
<path fill-rule="evenodd" clip-rule="evenodd" d="M34.874 26.7344C34.874 25.8241 34.1482 25.1549 33.1457 25.1572L33.1445 25.1572C32.1433 25.1572 31.418 25.8247 31.418 26.7344C31.418 27.5185 31.9283 28.2865 32.5593 28.5163C32.7427 28.5802 32.9409 28.6162 33.1445 28.6162C33.3529 28.6162 33.5498 28.5815 33.7271 28.5173L33.7279 28.517C34.363 28.288 34.874 27.5218 34.874 26.7344ZM33.1439 24.1572C34.608 24.154 35.874 25.1839 35.874 26.7344C35.874 27.8805 35.1548 29.0653 34.0675 29.4575C33.776 29.5631 33.4634 29.6162 33.1445 29.6162C32.8217 29.6162 32.5111 29.5589 32.2264 29.4592L32.2215 29.4575L32.2215 29.4575C31.1368 29.0651 30.418 27.877 30.418 26.7344C30.418 25.1833 31.6845 24.1575 33.1439 24.1572ZM33.1439 24.1572C33.1441 24.1572 33.1443 24.1572 33.1445 24.1572V24.6572L33.1433 24.1572C33.1435 24.1572 33.1437 24.1572 33.1439 24.1572Z" fill="#273A4A"/>
<path fill-rule="evenodd" clip-rule="evenodd" d="M30.6691 31.5868C30.9091 32.049 31.0633 32.5614 31.11 33.1045H35.9316V32.5234C35.9316 31.655 35.2187 30.9401 34.345 30.9375H31.9434C31.4252 30.9375 30.9594 31.1928 30.6691 31.5868ZM29.644 31.3489C30.0709 30.5168 30.9408 29.9375 31.9434 29.9375H34.347C35.7699 29.9411 36.9316 31.1011 36.9316 32.5234V33.2002C36.9316 33.699 36.5261 34.1045 36.0273 34.1045H30.625C30.3489 34.1045 30.125 33.8806 30.125 33.6045V33.4551C30.125 32.8634 29.9567 32.3126 29.664 31.8407C29.5715 31.6916 29.5639 31.505 29.644 31.3489Z" fill="#273A4A"/>
<path fill-rule="evenodd" clip-rule="evenodd" d="M25 20.9854C23.1225 20.9854 21.6855 22.2567 21.6855 24.042C21.6855 24.7703 21.9192 25.5677 22.3243 26.2422C22.7309 26.9193 23.2815 27.4264 23.8789 27.6404C24.2311 27.7654 24.608 27.834 25 27.834C25.3954 27.834 25.7719 27.7652 26.1202 27.6407C26.717 27.4253 27.2678 26.9176 27.6748 26.2409C28.0803 25.5665 28.3145 24.7699 28.3145 24.042C28.3145 22.2567 26.8775 20.9854 25 20.9854ZM20.6855 24.042C20.6855 21.6144 22.6647 19.9854 25 19.9854C27.3353 19.9854 29.3145 21.6144 29.3145 24.042C29.3145 24.9693 29.0213 25.9423 28.5318 26.7562C28.0439 27.5675 27.3323 28.2667 26.4587 28.5817L26.4574 28.5821C26.0031 28.7446 25.5126 28.834 25 28.834C24.4899 28.834 23.9998 28.7445 23.5436 28.5825L23.5425 28.5821C22.6665 28.2686 21.9545 27.5688 21.467 26.7571C20.9778 25.9426 20.6855 24.969 20.6855 24.042Z" fill="#273A4A"/>
<path fill-rule="evenodd" clip-rule="evenodd" d="M22.9434 30.3838C21.8475 30.3838 20.8792 30.9667 20.3359 31.8409C20.0433 32.3127 19.875 32.8634 19.875 33.4551V34.6123C19.875 34.7186 19.9632 34.8066 20.0693 34.8066H29.9307C30.0354 34.8066 30.125 34.717 30.125 34.6123V33.4551C30.125 32.8636 29.9568 32.313 29.6644 31.8413C29.1178 30.9662 28.149 30.3838 27.0566 30.3838H22.9434ZM19.4864 31.3133C20.203 30.1601 21.4846 29.3838 22.9434 29.3838H27.0566C28.5128 29.3838 29.7939 30.1604 30.513 31.3124L30.5138 31.3136C30.9007 31.9374 31.125 32.6698 31.125 33.4551V34.6123C31.125 35.2693 30.5877 35.8066 29.9307 35.8066H20.0693C19.4137 35.8066 18.875 35.2736 18.875 34.6123V33.4551C18.875 32.6698 19.0993 31.9374 19.4862 31.3136L19.4864 31.3133Z" fill="#273A4A"/>
</svg>
