<svg width="50" height="50" viewBox="0 0 50 50" fill="none" xmlns="http://www.w3.org/2000/svg">
<circle cx="25" cy="25" r="25" fill="white" fill-opacity="0.15"/>
<path d="M33.1658 15H14.8351C13.1178 15 11.7178 16.3963 11.7178 18.1173V29.8811C11.7178 31.5984 13.114 32.9984 14.8351 32.9984H27.7972C27.9764 32.9984 28.1444 33.0693 28.2676 33.1925L31.6239 36.5488C31.8031 36.728 32.042 36.8251 32.2847 36.8251C32.4042 36.8251 32.5274 36.8027 32.6431 36.7541C32.994 36.6085 33.2218 36.2688 33.2218 35.888V32.9984C34.9167 32.9685 36.2831 31.5835 36.2831 29.8811V18.1136C36.2831 16.3963 34.8868 15 33.1658 15ZM35.3498 29.8773C35.3498 31.0795 34.3716 32.0613 33.1658 32.0613C32.6804 32.0613 32.2884 32.4571 32.2884 32.9387V35.8805H32.2847L28.9284 32.528C28.626 32.2256 28.2228 32.0576 27.7972 32.0576H14.8351C13.633 32.0576 12.6511 31.0795 12.6511 29.8736V18.1136C12.6511 16.9115 13.6292 15.9296 14.8351 15.9296H33.1695C34.3716 15.9296 35.3535 16.9077 35.3535 18.1136V29.8773H35.3498Z" fill="white"/>
<path d="M32.606 19.5176H15.3954C15.1378 19.5176 14.9287 19.7266 14.9287 19.9842C14.9287 20.2418 15.1378 20.4509 15.3954 20.4509H32.606C32.8636 20.4509 33.0727 20.2418 33.0727 19.9842C33.0727 19.7266 32.8636 19.5176 32.606 19.5176Z" fill="white"/>
<path d="M32.606 22.1309H15.3954C15.1378 22.1309 14.9287 22.3399 14.9287 22.5975C14.9287 22.8551 15.1378 23.0642 15.3954 23.0642H32.606C32.8636 23.0642 33.0727 22.8551 33.0727 22.5975C33.0727 22.3399 32.8636 22.1309 32.606 22.1309Z" fill="white"/>
<path d="M32.606 24.7441H15.3954C15.1378 24.7441 14.9287 24.9532 14.9287 25.2108C14.9287 25.4684 15.1378 25.6775 15.3954 25.6775H32.606C32.8636 25.6775 33.0727 25.4684 33.0727 25.2108C33.0727 24.9532 32.8636 24.7441 32.606 24.7441Z" fill="white"/>
<path d="M25.7554 27.5439H15.3954C15.1378 27.5439 14.9287 27.753 14.9287 28.0106C14.9287 28.2682 15.1378 28.4773 15.3954 28.4773H25.7554C26.013 28.4773 26.2221 28.2682 26.2221 28.0106C26.2221 27.753 26.013 27.5439 25.7554 27.5439Z" fill="white"/>
</svg>
