<svg width="50" height="50" viewBox="0 0 50 50" fill="none" xmlns="http://www.w3.org/2000/svg">
<circle cx="25" cy="25" r="25" fill="white" fill-opacity="0.15"/>
<path d="M35.3135 17.9688H30.1563V16.5625C30.1556 15.9411 29.9085 15.3454 29.4691 14.906C29.0297 14.4666 28.434 14.2194 27.8126 14.2188H22.1876C21.5662 14.2194 20.9704 14.4666 20.531 14.906C20.0917 15.3454 19.8445 15.9411 19.8438 16.5625V17.9688H14.6885C14.3156 17.9692 13.9582 18.1175 13.6946 18.3811C13.4309 18.6447 13.2826 19.0022 13.2822 19.375V34.375C13.2826 34.7478 13.4309 35.1053 13.6946 35.3689C13.9582 35.6326 14.3156 35.7808 14.6885 35.7812H35.3135C35.6863 35.7808 36.0438 35.6326 36.3074 35.3689C36.571 35.1053 36.7193 34.7478 36.7197 34.375V19.375C36.7193 19.0022 36.571 18.6447 36.3074 18.3811C36.0438 18.1175 35.6863 17.9692 35.3135 17.9688ZM20.7813 16.5625C20.7817 16.1897 20.93 15.8322 21.1937 15.5686C21.4573 15.305 21.8147 15.1567 22.1876 15.1562H27.8126C28.1854 15.1567 28.5428 15.305 28.8065 15.5686C29.0701 15.8322 29.2184 16.1897 29.2188 16.5625V17.9688H20.7813V16.5625ZM35.7822 34.375C35.7821 34.4993 35.7327 34.6184 35.6448 34.7063C35.5569 34.7942 35.4378 34.8436 35.3135 34.8438H14.6885C14.5642 34.8436 14.445 34.7942 14.3572 34.7063C14.2693 34.6184 14.2199 34.4993 14.2197 34.375V19.375C14.2199 19.2507 14.2693 19.1316 14.3572 19.0437C14.445 18.9558 14.5642 18.9064 14.6885 18.9062H35.3135C35.4378 18.9064 35.5569 18.9558 35.6448 19.0437C35.7327 19.1316 35.7821 19.2507 35.7822 19.375V34.375Z" fill="white"/>
<path fill-rule="evenodd" clip-rule="evenodd" d="M25.0005 21.5161L26.8667 24.4311L30.2158 25.3053L28.0202 27.981L28.2237 31.4363L25.0005 30.1749L21.7772 31.4363L21.9808 27.981L19.7852 25.3053L23.1342 24.4311L25.0005 21.5161ZM23.6392 25.1262L21.1963 25.7638L22.7978 27.7155L22.6493 30.2359L25.0005 29.3158L27.3516 30.2359L27.2031 27.7155L28.8047 25.7638L26.3618 25.1262L25.0005 22.9998L23.6392 25.1262Z" fill="white"/>
</svg>
