<svg width="50" height="50" viewBox="0 0 50 50" fill="none" xmlns="http://www.w3.org/2000/svg">
<circle cx="25" cy="25" r="25" fill="white" fill-opacity="0.15"/>
<path fill-rule="evenodd" clip-rule="evenodd" d="M14.8999 14.1797C14.2299 14.8286 13.8283 15.6536 13.8283 16.7313C13.8283 24.0597 16.1142 29.4361 18.6704 32.9745C19.9498 34.7454 21.2956 36.054 22.4542 36.9162C23.0338 37.3475 23.5617 37.6635 24.0065 37.8701C24.4603 38.0808 24.7958 38.1626 24.9997 38.1626C25.2037 38.1626 25.5392 38.0808 25.993 37.8701C26.4378 37.6635 26.9657 37.3475 27.5453 36.9162C28.7039 36.054 30.0497 34.7454 31.3291 32.9745C33.8853 29.4361 36.1712 24.0597 36.1712 16.7313C36.1712 15.6416 35.7688 14.8111 35.0992 14.1609C34.4186 13.4999 33.4482 13.0131 32.3071 12.6621C30.0224 11.9592 27.1816 11.8376 24.9997 11.8376C22.8194 11.8376 19.9782 11.97 17.6932 12.6783C16.5518 13.0321 15.5809 13.5203 14.8999 14.1797ZM17.4563 11.9141C19.8642 11.1677 22.8087 11.0376 24.9997 11.0376C27.1894 11.0376 30.1343 11.1566 32.5424 11.8975C33.7477 12.2683 34.8505 12.8042 35.6566 13.587C36.4736 14.3805 36.9712 15.4149 36.9712 16.7313C36.9712 24.2342 34.6285 29.7735 31.9776 33.4429C30.6534 35.2759 29.2509 36.6442 28.0229 37.558C27.4092 38.0147 26.8343 38.3614 26.3299 38.5956C25.8344 38.8257 25.3744 38.9626 24.9997 38.9626C24.6251 38.9626 24.1651 38.8257 23.6696 38.5956C23.1652 38.3614 22.5903 38.0147 21.9766 37.558C20.7486 36.6442 19.3461 35.2759 18.0219 33.4429C15.371 29.7735 13.0283 24.2342 13.0283 16.7313C13.0283 15.4247 13.5268 14.3958 14.3434 13.605C15.149 12.8249 16.2512 12.2877 17.4563 11.9141Z" fill="white"/>
<path fill-rule="evenodd" clip-rule="evenodd" d="M17.4275 14.701C15.9954 15.3438 15.5852 16.1184 15.5852 16.7313C15.5852 23.494 17.6051 28.3481 19.8109 31.5489C20.9151 33.151 22.0662 34.3394 23.0348 35.1455C23.5193 35.5486 23.9554 35.8539 24.3143 36.0669C24.6177 36.247 24.8491 36.351 24.9994 36.3987C25.1497 36.351 25.3812 36.247 25.6846 36.0669C26.0435 35.8539 26.4796 35.5486 26.9641 35.1455C27.9327 34.3394 29.0838 33.151 30.1879 31.5489C32.3938 28.3481 34.4137 23.494 34.4137 16.7313C34.4137 16.1184 34.0035 15.3438 32.5714 14.701C31.1354 14.0564 28.7472 13.5876 24.9994 13.5876C21.2517 13.5876 18.8635 14.0564 17.4275 14.701ZM17.0999 13.9711C18.6854 13.2594 21.2043 12.7876 24.9994 12.7876C28.7946 12.7876 31.3135 13.2594 32.899 13.9711C34.4882 14.6845 35.2137 15.6818 35.2137 16.7313C35.2137 23.6625 33.1408 28.6739 30.8467 32.0029C29.7008 33.6656 28.5001 34.908 27.4758 35.7604C26.9639 36.1864 26.4934 36.5172 26.0929 36.7549C25.7008 36.9876 25.3505 37.1463 25.0835 37.2037L24.9994 37.2217L24.9154 37.2037C24.6484 37.1463 24.2981 36.9876 23.906 36.7549C23.5055 36.5172 23.035 36.1864 22.523 35.7604C21.4988 34.908 20.2981 33.6656 19.1522 32.0029C16.8581 28.6739 14.7852 23.6625 14.7852 16.7313C14.7852 15.6818 15.5107 14.6845 17.0999 13.9711Z" fill="white"/>
<path fill-rule="evenodd" clip-rule="evenodd" d="M24.6426 36.725V13.1875H25.4426V36.725H24.6426Z" fill="white"/>
<path fill-rule="evenodd" clip-rule="evenodd" d="M16.043 23.7251H34.043V24.5251H16.043V23.7251Z" fill="white"/>
</svg>
