<svg width="50" height="50" viewBox="0 0 50 50" fill="none" xmlns="http://www.w3.org/2000/svg">
<circle cx="25" cy="25" r="25" fill="white" fill-opacity="0.15"/>
<path fill-rule="evenodd" clip-rule="evenodd" d="M16.027 34.0397C16.1115 34.1242 16.2224 34.1667 16.3333 34.1667C16.4443 34.1667 16.5552 34.1242 16.6397 34.0397L18.5 32.1794L20.3603 34.0397C20.4448 34.1242 20.5557 34.1667 20.6667 34.1667C20.7776 34.1667 20.8885 34.1242 20.973 34.0397C21.1425 33.8703 21.1425 33.5964 20.973 33.427L19.1127 31.5667L20.973 29.7064C21.1425 29.5369 21.1425 29.2631 20.973 29.0936C20.8036 28.9242 20.5297 28.9242 20.3603 29.0936L18.5 30.9539L16.6397 29.0936C16.4703 28.9242 16.1964 28.9242 16.027 29.0936C15.8575 29.2631 15.8575 29.5369 16.027 29.7064L17.8873 31.5667L16.027 33.427C15.8575 33.5964 15.8575 33.8703 16.027 34.0397ZM28.9 33.3H34.1C34.3392 33.3 34.5333 33.1059 34.5333 32.8667C34.5333 32.6275 34.3392 32.4333 34.1 32.4333H28.9C28.6608 32.4333 28.4667 32.6275 28.4667 32.8667C28.4667 33.1059 28.6608 33.3 28.9 33.3ZM28.9 30.7H34.1C34.3392 30.7 34.5333 30.5059 34.5333 30.2667C34.5333 30.0275 34.3392 29.8333 34.1 29.8333H28.9C28.6608 29.8333 28.4667 30.0275 28.4667 30.2667C28.4667 30.5059 28.6608 30.7 28.9 30.7ZM28.9 18.5667C28.6608 18.5667 28.4667 18.7608 28.4667 19C28.4667 19.2392 28.6608 19.4333 28.9 19.4333H34.1C34.3392 19.4333 34.5333 19.2392 34.5333 19C34.5333 18.7608 34.3392 18.5667 34.1 18.5667H28.9ZM18.5 22.0333C18.7392 22.0333 18.9333 21.8392 18.9333 21.6V19.4333H21.1C21.3392 19.4333 21.5333 19.2392 21.5333 19C21.5333 18.7608 21.3392 18.5667 21.1 18.5667H18.9333V16.4C18.9333 16.1608 18.7392 15.9667 18.5 15.9667C18.2608 15.9667 18.0667 16.1608 18.0667 16.4V18.5667H15.9C15.6608 18.5667 15.4667 18.7608 15.4667 19C15.4667 19.2392 15.6608 19.4333 15.9 19.4333H18.0667V21.6C18.0667 21.8392 18.2608 22.0333 18.5 22.0333ZM38 14.6667V36.3333C38 37.447 36.947 38.5 35.8333 38.5H14.1667C13.053 38.5 12 37.447 12 36.3333V14.6667C12 13.553 13.053 12.5 14.1667 12.5H22.8333C23.0725 12.5 23.2667 12.6941 23.2667 12.9333C23.2667 13.1725 23.0725 13.3667 22.8333 13.3667H14.1667C13.5349 13.3667 12.8667 14.0349 12.8667 14.6667V36.3333C12.8667 36.9651 13.5349 37.6333 14.1667 37.6333H35.8333C36.4651 37.6333 37.1333 36.9651 37.1333 36.3333V14.6667C37.1333 14.0349 36.4651 13.3667 35.8333 13.3667H25.4333V24.6333H35.8333C36.0725 24.6333 36.2667 24.8275 36.2667 25.0667C36.2667 25.3059 36.0725 25.5 35.8333 25.5H25.4333V36.3333C25.4333 36.5725 25.2392 36.7667 25 36.7667C24.7608 36.7667 24.5667 36.5725 24.5667 36.3333V25.5H14.1667C13.9275 25.5 13.7333 25.3059 13.7333 25.0667C13.7333 24.8275 13.9275 24.6333 14.1667 24.6333H24.5667V12.9333C24.5667 12.6941 24.7608 12.5 25 12.5H35.8333C36.947 12.5 38 13.553 38 14.6667Z" fill="white"/>
</svg>
