<svg width="50" height="50" viewBox="0 0 50 50" fill="none" xmlns="http://www.w3.org/2000/svg">
<circle cx="25" cy="25" r="25" fill="white" fill-opacity="0.15"/>
<path fill-rule="evenodd" clip-rule="evenodd" d="M18.0228 36.033C18.0932 36.1034 18.1857 36.1388 18.2781 36.1388C18.3705 36.1388 18.463 36.1034 18.5334 36.033L20.0837 34.4828L21.6339 36.033C21.7043 36.1034 21.7968 36.1388 21.8892 36.1388C21.9817 36.1388 22.0741 36.1034 22.1445 36.033C22.2857 35.8918 22.2857 35.6636 22.1445 35.5224L20.5943 33.9721L22.1445 32.4219C22.2857 32.2807 22.2857 32.0525 22.1445 31.9113C22.0033 31.7701 21.7751 31.7701 21.6339 31.9113L20.0837 33.4615L18.5334 31.9113C18.3922 31.7701 18.164 31.7701 18.0228 31.9113C17.8816 32.0525 17.8816 32.2807 18.0228 32.4219L19.573 33.9721L18.0228 35.5224C17.8816 35.6636 17.8816 35.8918 18.0228 36.033ZM28.7503 35.4166H33.0837C33.283 35.4166 33.4448 35.2548 33.4448 35.0555C33.4448 34.8561 33.283 34.6944 33.0837 34.6944H28.7503C28.551 34.6944 28.3892 34.8561 28.3892 35.0555C28.3892 35.2548 28.551 35.4166 28.7503 35.4166ZM28.7503 33.2499H33.0837C33.283 33.2499 33.4448 33.0881 33.4448 32.8888C33.4448 32.6895 33.283 32.5277 33.0837 32.5277H28.7503C28.551 32.5277 28.3892 32.6895 28.3892 32.8888C28.3892 33.0881 28.551 33.2499 28.7503 33.2499ZM28.7503 23.1388C28.551 23.1388 28.3892 23.3006 28.3892 23.4999C28.3892 23.6993 28.551 23.861 28.7503 23.861H33.0837C33.283 23.861 33.4448 23.6993 33.4448 23.4999C33.4448 23.3006 33.283 23.1388 33.0837 23.1388H28.7503ZM20.0837 26.0277C20.283 26.0277 20.4448 25.8659 20.4448 25.6666V23.861H22.2503C22.4497 23.861 22.6114 23.6993 22.6114 23.4999C22.6114 23.3006 22.4497 23.1388 22.2503 23.1388H20.4448V21.3333C20.4448 21.1339 20.283 20.9721 20.0837 20.9721C19.8843 20.9721 19.7225 21.1339 19.7225 21.3333V23.1388H17.917C17.7177 23.1388 17.5559 23.3006 17.5559 23.4999C17.5559 23.6993 17.7177 23.861 17.917 23.861H19.7225V25.6666C19.7225 25.8659 19.8843 26.0277 20.0837 26.0277ZM36.3337 19.8888V37.9444C36.3337 38.8724 35.4562 39.7499 34.5281 39.7499H16.4725C15.5445 39.7499 14.667 38.8724 14.667 37.9444V19.8888C14.667 18.9608 15.5445 18.0833 16.4725 18.0833H23.6948C23.8941 18.0833 24.0559 18.245 24.0559 18.4444C24.0559 18.6437 23.8941 18.8055 23.6948 18.8055H16.4725C15.946 18.8055 15.3892 19.3623 15.3892 19.8888V37.9444C15.3892 38.4709 15.946 39.0277 16.4725 39.0277H34.5281C35.0546 39.0277 35.6114 38.4709 35.6114 37.9444V19.8888C35.6114 19.3623 35.0546 18.8055 34.5281 18.8055H25.8614V28.1944H34.5281C34.7274 28.1944 34.8892 28.3561 34.8892 28.5555C34.8892 28.7548 34.7274 28.9166 34.5281 28.9166H25.8614V37.9444C25.8614 38.1437 25.6997 38.3055 25.5003 38.3055C25.301 38.3055 25.1392 38.1437 25.1392 37.9444V28.9166H16.4725C16.2732 28.9166 16.1114 28.7548 16.1114 28.5555C16.1114 28.3561 16.2732 28.1944 16.4725 28.1944H25.1392V18.4444C25.1392 18.245 25.301 18.0833 25.5003 18.0833H34.5281C35.4562 18.0833 36.3337 18.9608 36.3337 19.8888Z" fill="white"/>
<path fill-rule="evenodd" clip-rule="evenodd" d="M25.4996 6.51636L27.1957 9.1656L30.2394 9.96002L28.2439 12.3918L28.4289 15.532L25.4996 14.3857L22.5702 15.532L22.7552 12.3918L20.7598 9.96002L23.8035 9.1656L25.4996 6.51636ZM24.3084 9.8606L22.1709 10.4185L23.5722 12.1263L23.4423 14.3316L25.4996 13.5266L27.5568 14.3316L27.4269 12.1263L28.8283 10.4185L26.6907 9.8606L25.4996 8.00008L24.3084 9.8606Z" fill="white"/>
</svg>
