<svg width="50" height="50" viewBox="0 0 50 50" fill="none" xmlns="http://www.w3.org/2000/svg">
<circle cx="25" cy="25" r="25" fill="white" fill-opacity="0.15"/>
<path d="M26.9976 39.9988H22.9986C22.3799 39.9988 21.8762 39.4954 21.8762 38.8764V36.2304C20.964 35.9774 20.0897 35.6133 19.2681 35.1449L17.3942 37.0186C16.9692 37.4436 16.2301 37.4433 15.8058 37.0183L12.9799 34.1915C12.7674 33.9794 12.6502 33.6975 12.6506 33.3975C12.6506 33.0978 12.7678 32.8159 12.9803 32.604L14.8877 30.6959C14.44 29.8825 14.0943 29.0198 13.8559 28.1216H11.1203C10.5025 28.1217 10 27.6186 10 26.9995V23.0012C10 22.3821 10.5025 21.8784 11.1203 21.8784H13.9455C14.2008 21.0216 14.5564 20.1972 15.0064 19.42L12.9802 17.3939C12.769 17.1848 12.6515 16.9039 12.6509 16.6045C12.6502 16.3039 12.7671 16.0214 12.9806 15.8083L15.8061 12.9793C16.2339 12.5566 16.9686 12.5572 17.3926 12.9775L19.4804 15.0652C20.241 14.6521 21.0441 14.3271 21.8766 14.0956V11.1216C21.8762 10.5034 22.3796 10.001 22.9986 10.001H26.9976C27.6166 10.001 28.1203 10.5034 28.1203 11.1215V14.1171C28.9435 14.3527 29.7378 14.6802 30.4897 15.0939L32.6049 12.979C33.027 12.5568 33.7686 12.5565 34.1905 12.9787L37.0195 15.8083C37.456 16.2476 37.4557 16.9585 37.0191 17.3938L34.9408 19.4725C35.3758 20.2334 35.7208 21.04 35.9708 21.878H38.875C39.495 21.878 40 22.3815 40 23.0008V26.9994C40 27.6182 39.4953 28.1216 38.875 28.1216H36.0604C35.827 29.0003 35.4908 29.8456 35.0574 30.6412L37.0195 32.6042C37.4554 33.0418 37.4554 33.7532 37.0204 34.1904L34.1908 37.0184C33.7708 37.4419 33.0255 37.4431 32.6033 37.0169L30.6997 35.1125C29.8853 35.5841 29.0203 35.9516 28.1203 36.2084V38.8758C28.1201 39.4953 27.6166 39.9988 26.9976 39.9988ZM19.1241 33.9637L19.4394 34.1571C20.3737 34.7312 21.3884 35.1534 22.4555 35.4127L22.8136 35.4995V38.8767C22.8136 38.9786 22.8968 39.0616 22.9986 39.0616H26.9976C27.1014 39.0616 27.1829 38.9804 27.1829 38.8767V35.484L27.5376 35.395C28.5906 35.1305 29.5956 34.7034 30.5247 34.1253L30.8409 33.9284L33.268 36.3565C33.3152 36.4043 33.3699 36.4111 33.3983 36.4111C33.4264 36.4111 33.4811 36.4045 33.5268 36.358L36.3569 33.5294C36.4282 33.4577 36.4285 33.3396 36.356 33.2671L33.887 30.7969L34.0701 30.4844C34.6054 29.5716 34.9982 28.5835 35.2373 27.5479L35.3217 27.1847H38.8753C38.9787 27.1847 39.0628 27.102 39.0628 27V23.0012C39.0628 22.899 38.9787 22.8159 38.8753 22.8159H35.2539L35.1616 22.4668C34.8992 21.4719 34.4923 20.5225 33.9523 19.6445L33.7582 19.3291L36.356 16.7311C36.4275 16.6595 36.4272 16.5427 36.355 16.4705L33.5272 13.6421C33.4816 13.5965 33.426 13.5893 33.3972 13.5893C33.3681 13.5893 33.3125 13.5961 33.2667 13.6424L30.6417 16.2673L30.3285 16.0817C29.4558 15.5648 28.5164 15.1773 27.5364 14.9311L27.1821 14.842V11.1215C27.1824 11.019 27.1012 10.9384 26.9973 10.9384H22.9984C22.8965 10.9384 22.8134 11.0206 22.8134 11.1215V14.8257L22.4553 14.9129C21.4656 15.1536 20.5175 15.5366 19.6366 16.0523L19.3244 16.2351L16.7307 13.6414C16.6848 13.5958 16.6286 13.5886 16.5995 13.5886C16.5702 13.5886 16.5145 13.5958 16.4667 13.643L13.6426 16.4707C13.5948 16.5185 13.5876 16.5732 13.5876 16.6016C13.5876 16.6298 13.5945 16.6832 13.6407 16.7288L16.1907 19.2784L15.9938 19.5947C15.4375 20.4881 15.0204 21.4543 14.7532 22.4661L14.6613 22.8152H11.1203C11.0196 22.8158 10.9375 22.8986 10.9375 23.0011V26.9997C10.9375 27.1016 11.0196 27.1844 11.1203 27.1844H14.5958L14.6799 27.5478C14.9223 28.6012 15.3248 29.6065 15.8754 30.5358L16.061 30.849L13.643 33.2678C13.5955 33.3153 13.5883 33.3699 13.5883 33.3983C13.5883 33.4267 13.5952 33.4818 13.6426 33.5289L16.4691 36.3564C16.5166 36.4039 16.5716 36.4111 16.6003 36.4111C16.6288 36.4111 16.6841 36.4041 16.7316 36.3564L19.1241 33.9637ZM24.9995 31.8744C21.209 31.8744 18.1251 28.7908 18.1251 25.0006C18.1251 21.2101 21.209 18.1261 24.9995 18.1261C28.79 18.1261 31.8737 21.2101 31.8737 25.0006C31.8737 28.7907 28.79 31.8744 24.9995 31.8744ZM24.9995 19.0635C21.7255 19.0635 19.0625 21.7265 19.0625 25.0005C19.0625 28.2738 21.7255 30.9368 24.9995 30.9368C28.2731 30.9368 30.9362 28.2738 30.9362 25.0005C30.9362 21.7266 28.2731 19.0635 24.9995 19.0635Z" fill="white"/>
</svg>
