<svg width="50" height="50" viewBox="0 0 50 50" fill="none" xmlns="http://www.w3.org/2000/svg">
<circle cx="25" cy="25" r="25" fill="#273A4A" fill-opacity="0.05"/>
<path d="M25 35.6172C29.5703 35.6172 34.1641 34.8438 38.5234 33.3203L38.8281 33.2031V30.1797L37.1875 29.7109V27.7188C37.1875 23.0313 34.4922 18.7656 30.2734 16.7266V16.2344C30.2734 15.3203 29.5469 14.5938 28.6328 14.5938H25.4688V13.6562H24.5312V14.5938H21.3672C20.4531 14.5938 19.7266 15.3203 19.7266 16.2344V16.7266C15.5078 18.7656 12.8125 23.0547 12.8125 27.7188V29.7109L11.1719 30.1797V33.2031L11.4766 33.3203C15.8359 34.8672 20.4297 35.6172 25 35.6172ZM12.1094 30.9063L13.75 30.4375V27.7188C13.75 23.5469 16.0703 19.7266 19.7266 17.7813V22.0938H20.6641V16.2344C20.6641 15.8359 20.9688 15.5313 21.3672 15.5313H24.5312V25.375H25.4688V15.5313H28.6328C29.0312 15.5313 29.3359 15.8359 29.3359 16.2344V22.0938H30.2734V17.7813C33.9297 19.7266 36.25 23.5469 36.25 27.7188V30.4141L37.8906 30.8828V32.5469C29.5703 35.3828 20.4297 35.3828 12.1094 32.5469V30.9063Z" fill="#273A4A"/>
<path d="M33.2031 29.5938H16.7969V30.5312H33.2031V29.5938Z" fill="#273A4A"/>
</svg>
