<svg width="50" height="50" viewBox="0 0 50 50" fill="none" xmlns="http://www.w3.org/2000/svg">
<circle cx="25" cy="25" r="25" fill="white" fill-opacity="0.15"/>
<g clip-path="url(#clip0_2_16634)">
<path d="M39.9933 33.3068C39.238 29.1173 36.1342 25.7476 31.9655 24.4927C33.2813 23.4346 34.0672 21.8285 34.0672 20.1056C34.0672 17.0015 31.542 14.4763 28.438 14.4763C27.8912 14.4763 27.5015 14.5529 27.0846 14.6679C26.9162 14.7142 26.7922 14.8571 26.7701 15.0305C26.748 15.2037 26.8322 15.3732 26.9833 15.4602C29.32 16.8071 29.7229 19.1226 29.7553 20.3827C29.7919 21.8357 29.1758 23.7976 27.7371 24.6719C27.5882 24.7624 27.508 24.9334 27.5338 25.1059C27.5596 25.2783 27.6862 25.4183 27.8551 25.4616C31.6132 26.4193 34.5518 29.3857 35.9167 33.5479C35.9751 33.7256 36.1409 33.8758 36.328 33.8758H39.5671C39.6955 33.8758 39.817 33.7892 39.8992 33.6907C39.9816 33.5925 40.016 33.4329 39.9933 33.3068ZM36.6384 33.0102C35.243 28.8971 32.4571 26.0927 28.8896 24.8945C29.8653 23.9549 30.6706 22.3461 30.6207 20.3757C30.5675 18.2934 29.7627 16.5417 28.3287 15.3511C28.3642 15.3502 28.4008 15.3461 28.4382 15.3461C31.0647 15.3461 33.2016 17.481 33.2016 20.1075C33.2016 21.8523 32.2487 23.4546 30.7147 24.2913C30.5558 24.3779 30.4675 24.5539 30.4934 24.7329C30.5194 24.912 30.6538 25.0858 30.8309 25.1239C34.9529 26.0123 38.1215 29.1138 39.0361 33.0103H36.6384V33.0102Z" fill="white"/>
<path d="M26.8063 25.4118C28.3227 24.2331 29.2319 22.4114 29.2319 20.4549C29.2321 16.9929 26.4158 14.176 22.9539 14.176C19.492 14.176 16.6756 16.9928 16.6756 20.4549C16.6756 22.4119 17.5842 24.2335 19.0993 25.4118C14.3799 26.7949 10.8591 30.5904 10.0069 35.315C9.98417 35.4414 10.0183 35.5708 10.1008 35.6691C10.1831 35.7677 10.3045 35.8241 10.4329 35.8241H35.4729C35.6012 35.8241 35.7227 35.7677 35.805 35.6691C35.8872 35.5708 35.9216 35.4412 35.8991 35.315C35.0476 30.5904 31.5266 26.7951 26.8063 25.4118ZM10.9628 34.9584C11.9766 30.4124 15.569 27.0224 20.2491 26.0123C20.4259 25.974 20.5603 25.8303 20.5863 25.6512C20.6121 25.472 20.524 25.296 20.365 25.2092C18.6235 24.2593 17.5416 22.4376 17.5416 20.4547C17.5416 17.4701 19.9694 15.0419 22.9539 15.0419C25.9385 15.0419 28.3663 17.4701 28.3663 20.4549C28.3663 22.4371 27.2835 24.2588 25.5406 25.2094C25.3817 25.2959 25.2934 25.4721 25.3193 25.6512C25.3451 25.8304 25.4795 25.9742 25.6566 26.0123C30.3374 27.0226 33.9303 30.4124 34.943 34.9583H10.9628V34.9584Z" fill="white"/>
</g>
<defs>
<clipPath id="clip0_2_16634">
<rect width="30" height="30" fill="white" transform="translate(10 10)"/>
</clipPath>
</defs>
</svg>
