<svg width="57" height="57" viewBox="0 0 57 57" fill="none" xmlns="http://www.w3.org/2000/svg">
<path d="M55.9409 30.3991C55.9074 30.3298 55.8604 30.2677 55.8029 30.2165C55.7453 30.1652 55.6782 30.1258 55.6054 30.1006C55.5326 30.0753 55.4555 30.0646 55.3786 30.0691C55.3017 30.0736 55.2264 30.0933 55.157 30.1269C54.0287 30.661 50.1647 32.5736 48.6155 33.3211L48.6155 33.3211C44.6993 28.7275 39.6531 24.9856 34.3655 22.7425C34.5521 22.5635 34.7592 22.4071 34.9824 22.2765C35.6614 21.9127 35.14 20.8917 34.446 21.232C34.1123 21.3896 33.6714 21.7635 33.1668 22.263C32.8182 22.5348 32.512 22.8568 32.2582 23.2186C30.5213 25.1164 28.4392 27.7065 27.393 28.2095C26.1994 28.6923 24.5028 28.0502 23.3628 27.1466C24.1485 24.8002 24.9325 22.4841 25.4064 20.139C27.4504 18.1908 30.4081 15.7966 33.1433 15.646C35.9648 15.4934 41.2541 17.0123 43.3614 20.1825C43.8191 20.8029 44.7546 20.1356 44.317 19.5002C43.8635 18.8712 43.338 18.2973 42.7512 17.7902C46.4025 16.2395 51.8092 13.7432 55.5779 11.9276C56.2652 11.5823 55.7707 10.5479 55.0682 10.8714C51.0933 12.7843 45.2961 15.4566 41.6799 16.9688C39.1188 15.2884 36.1104 14.4196 33.0478 14.4758C32.1106 14.4825 31.0025 14.8363 29.8524 15.413C27.7166 14.5597 25.2539 13.9696 23.2538 14.5781C19.7131 15.6578 16.3602 18.8917 15.1397 20.1658C10.5873 18.4571 6.43563 16.5232 1.92914 14.387C1.22837 14.0718 0.728783 15.0928 1.42284 15.4465C5.89632 17.5688 10.0207 19.4825 14.5295 21.1918C14.5527 21.3093 14.6118 21.4167 14.6985 21.4992C14.7853 21.5818 14.8955 21.6354 15.014 21.6528C15.0844 21.6562 20.2748 22.4391 23.4902 22.9169C23.0912 24.2715 22.6101 25.7199 22.1239 27.1449C22.0871 27.2533 22.0828 27.37 22.1114 27.4808C22.14 27.5915 22.2002 27.6916 22.2849 27.7686C23.3394 28.7309 24.9471 29.5523 26.4693 29.5523C28.6236 29.5674 29.6982 27.735 31.8122 25.4802C32.342 24.8783 32.9053 24.2396 33.42 23.6897C38.9243 26.0185 43.701 29.4255 47.5553 33.8889C47.7866 34.1948 48.0335 34.4886 48.295 34.7691L48.2953 34.7695C48.7671 35.3135 49.259 35.9179 49.0379 36.6874C48.7295 37.9079 48.2886 38.8886 47.7286 39.6061C47.4866 39.911 47.1372 40.1118 46.7519 40.1673C46.3666 40.2228 45.9747 40.1288 45.6565 39.9046C44.1466 38.3129 42.7417 36.6749 41.0395 35.2071L41.7839 34.2699C42.2533 33.6597 41.3564 32.9438 40.8652 33.5407L38.156 36.9473C38.108 37.0076 38.0724 37.0768 38.0511 37.1509C38.0298 37.225 38.0234 37.3025 38.0321 37.3791C38.0408 37.4557 38.0645 37.5298 38.1019 37.5973C38.1393 37.6647 38.1895 37.7241 38.2499 37.7721C38.3102 37.8201 38.3794 37.8557 38.4535 37.877C38.5276 37.8982 38.6051 37.9047 38.6817 37.896C38.7583 37.8873 38.8324 37.8635 38.8999 37.8262C38.9673 37.7888 39.0267 37.7385 39.0747 37.6782L40.3086 36.1258C42.0203 37.6178 43.3832 39.2071 44.8049 40.7243C45.1502 42.0974 43.9482 43.4922 42.9792 44.2433C42.5574 44.5424 42.0446 44.6854 41.5289 44.6478C41.0132 44.6102 40.5266 44.3942 40.1527 44.037C39.2775 43.2022 37.8794 41.8945 36.1928 40.4075C36.0758 40.305 35.923 40.2531 35.7677 40.2632C35.6125 40.2732 35.4676 40.3445 35.3649 40.4612C35.2621 40.578 35.2098 40.7307 35.2195 40.886C35.2292 41.0412 35.3001 41.1863 35.4166 41.2893C37.0462 42.7244 38.4008 43.9884 39.2809 44.8267C39.5408 46.2852 37.8509 47.4889 36.6908 47.9449C36.4485 48.0356 36.1889 48.0705 35.9313 48.0472C36.112 46.8961 35.1013 45.5449 33.264 44.9876L33.534 44.6473C34.0034 44.037 33.1065 43.3212 32.6153 43.918L31.8122 44.9289C31.4404 44.9778 31.0731 45.0568 30.7141 45.1653C30.0469 43.1737 27.7853 42.6087 25.8021 42.7847C25.7501 40.2952 23.3846 39.0026 20.8163 38.9825C20.3079 38.9794 19.8067 39.1027 19.3577 39.3412C18.4072 37.5877 16.2093 36.4829 13.7047 36.6472C13.4142 36.6678 13.131 36.7472 12.8722 36.8806C12.6134 37.014 12.3844 37.1987 12.1992 37.4234L10.6971 39.2457C10.164 38.5751 9.66214 37.8771 9.19161 37.1518C6.71046 36.0725 4.36749 35.0201 1.94424 33.767C1.80615 33.6977 1.64633 33.6858 1.49948 33.7337C1.35263 33.7816 1.23062 33.8855 1.15996 34.0229C1.0893 34.1602 1.07569 34.3199 1.12209 34.4673C1.16848 34.6146 1.27115 34.7377 1.40777 34.8098C3.77828 36.0235 6.04152 37.0797 8.47408 38.1107C8.93008 38.8232 9.41849 39.5084 9.93931 40.1661L7.85714 42.6925C7.82323 42.7332 7.79503 42.7783 7.77331 42.8266C7.23684 44.0303 8.08681 45.7169 9.16646 46.8552C10.6988 48.4462 12.34 48.9927 14.0048 47.8812C15.4348 49.3783 18.9269 51.2626 21.1197 49.7035C22.0921 51.1386 25.9647 52.1428 27.6646 51.0112C28.4744 51.9919 30.9706 52.6692 32.4677 52.1914C33.601 51.6214 34.9506 50.468 35.5826 49.1972C37.5307 49.5023 40.2013 47.4285 40.4511 45.5894C40.9778 45.7991 41.5488 45.8727 42.1114 45.8032C42.674 45.7338 43.21 45.5236 43.6699 45.1922C44.8233 44.312 45.9901 42.8736 46.0404 41.3078C48.5515 41.7091 49.5584 39.1975 50.1746 36.9758C50.4446 35.9859 50.0662 34.9802 49.3853 34.2536C50.7633 33.5822 54.7994 31.5932 55.6687 31.183C55.738 31.1494 55.8001 31.1025 55.8513 31.0449C55.9025 30.9874 55.9419 30.9203 55.9672 30.8475C55.9924 30.7747 56.0031 30.6976 55.9986 30.6207C55.9941 30.5438 55.9745 30.4685 55.9409 30.3991ZM18.1054 20.9236H18.0987L16.3049 20.657C16.5362 20.4257 16.8128 20.1557 17.1297 19.8623C17.1314 19.859 17.1314 19.859 17.133 19.8607C18.6704 18.4306 21.1264 16.4541 23.5958 15.7013C25.0359 15.2621 26.8264 15.584 28.5196 16.1674C27.0345 17.1099 25.6616 18.2185 24.4274 19.4717C24.3549 19.5521 24.3057 19.6506 24.2849 19.7567C24.1692 20.3754 24.0083 21.056 23.8138 21.7769L18.1054 20.9236ZM30.7829 46.9441C30.8268 46.7467 30.8582 46.5468 30.8768 46.3456C32.086 45.9873 32.7953 45.9348 33.5541 46.3724C34.2174 46.7675 34.7551 47.1924 34.7964 47.7923C34.7125 49.1905 32.8215 50.7463 32.0318 51.1017C30.9706 51.4152 29.0494 50.7849 28.6286 50.344C29.6989 49.4765 30.4555 48.2823 30.7829 46.9441V46.9441ZM12.6954 47.2307C11.1866 47.846 8.40199 44.7596 8.82111 43.3665C10.0461 41.8796 11.8835 39.6531 13.1045 38.1711H13.1062C13.1888 38.0695 13.2914 37.9858 13.4076 37.9253C13.5238 37.8647 13.6511 37.8286 13.7818 37.819C16.1775 37.6749 18.1808 38.8283 18.615 40.6691C17.0051 43.5209 15.6018 45.902 12.6954 47.2307ZM19.9059 49.0145C18.5765 49.5107 16.0467 48.2416 15.0073 47.2341C17.1796 45.5699 18.3097 43.6148 19.7467 41.0479C19.8306 40.8617 19.839 40.6501 19.7701 40.4578C20.0818 40.257 20.4455 40.1521 20.8162 40.156C22.3653 40.156 23.6344 40.7026 24.3 41.6548C24.4802 41.9212 24.5905 42.2286 24.621 42.5487C24.6515 42.8689 24.601 43.1916 24.4743 43.4872C23.2736 46.118 22.2621 47.8329 19.9059 49.0145ZM22.082 49.0212C22.1222 48.9877 22.1625 48.9541 22.201 48.9189C23.692 47.5924 24.6008 46.1136 25.5271 44.0086C27.5003 43.6515 30.2732 44.4143 29.6093 46.8368C29.3869 47.5673 29.0148 48.2435 28.5166 48.8222C28.0184 49.4009 27.4051 49.8695 26.7158 50.1981C25.3611 50.575 22.8188 50.0083 22.082 49.0212Z" fill="white"/>
</svg>
