<svg width="57" height="57" viewBox="0 0 57 57" fill="none" xmlns="http://www.w3.org/2000/svg">
<g clip-path="url(#clip0_2_8629)">
<mask id="mask0_2_8629" style="mask-type:alpha" maskUnits="userSpaceOnUse" x="4" y="7" width="50" height="51">
<circle cx="28.6415" cy="32.5986" r="3.74858" stroke="white" stroke-width="1.7"/>
<circle cx="28.5253" cy="32.4784" r="8.34715" stroke="white" stroke-width="1.7"/>
<circle cx="28.6424" cy="32.5955" r="13.4174" stroke="white" stroke-width="1.7"/>
<circle cx="28.643" cy="32.5961" r="18.6055" stroke="white" stroke-width="1.7"/>
<circle cx="28.5257" cy="32.4789" r="23.6757" stroke="white" stroke-width="1.7"/>
</mask>
<g mask="url(#mask0_2_8629)">
<rect x="2" y="33" width="53" height="31" fill="white"/>
</g>
<path d="M34.668 7.17969H11.543V22.3344H34.668V7.17969Z" stroke="white" stroke-width="1.5" stroke-linecap="round"/>
<path d="M34.668 11.2969H40.8346L45.4596 16.0469V22.335H34.668V11.2969Z" stroke="white" stroke-width="1.5" stroke-linecap="round"/>
<path d="M18.4792 30.2526C20.6078 30.2526 22.3333 28.4804 22.3333 26.2943C22.3333 24.1081 20.6078 22.3359 18.4792 22.3359C16.3506 22.3359 14.625 24.1081 14.625 26.2943C14.625 28.4804 16.3506 30.2526 18.4792 30.2526Z" stroke="white" stroke-width="1.5" stroke-linecap="round"/>
<path d="M38.5221 30.2526C40.6507 30.2526 42.3763 28.4804 42.3763 26.2943C42.3763 24.1081 40.6507 22.3359 38.5221 22.3359C36.3935 22.3359 34.668 24.1081 34.668 26.2943C34.668 28.4804 36.3935 30.2526 38.5221 30.2526Z" stroke="white" stroke-width="1.5" stroke-linecap="round"/>
</g>
<defs>
<clipPath id="clip0_2_8629">
<rect width="57" height="57" fill="white"/>
</clipPath>
</defs>
</svg>
