<svg xmlns="http://www.w3.org/2000/svg" xmlns:xlink="http://www.w3.org/1999/xlink" width="0" height="0" style="position:absolute">
	
		<symbol id="arm-muscle" viewBox="0 0 57 57">
			<path d="M11.864 10.535c.158 0 .31-.059.426-.165l.232-.21a.63.63 0 0 0-.834-.941l-.244.223a.63.63 0 0 0 .425 1.095l-.005-.002zM28.248 33.375a.624.624 0 0 0 .255-.055 8.24 8.24 0 0 1 6.584-.096c.418.239.813.516 1.18.828a.63.63 0 0 0 .81-.966 8.81 8.81 0 0 0-1.43-.994l-.028-.01a9.475 9.475 0 0 0-7.626.086.63.63 0 0 0 .255 1.207zM37.725 32.174c.724-.404 1.42-.857 2.083-1.356 2.066-1.582 5.811-2.56 9.574-.135.419.33.82.68 1.201 1.051a.63.63 0 0 0 .89-.89 16.093 16.093 0 0 0-1.346-1.176c-.007-.006-.015-.008-.022-.014l-.02-.015c-4.32-2.801-8.65-1.654-11.044.178-.616.464-1.263.885-1.936 1.26a.631.631 0 0 0 .31 1.18c.109 0 .216-.029.31-.083z" fill="#fff"></path><path d="M28.836 54.3a25.716 25.716 0 0 0 22.97-14.038.63.63 0 0 0-1.122-.576 24.661 24.661 0 0 1-4.637 6.32 13.959 13.959 0 0 0-4.656-4.937c-2.4-1.519-2.737-3.632-2.751-3.726a.633.633 0 0 0-1.254.174c.016.112.404 2.774 3.325 4.622a12.744 12.744 0 0 1 4.379 4.756 24.355 24.355 0 0 1-4.225 3.005c-.18-1.644-.94-3.766-3.504-4.7a6.244 6.244 0 0 0-2.293-.357c-2.371.059-10.418.111-14.453-1.626a.614.614 0 0 0-.209-.05c-.029 0-2.912-.204-4.985-1.759a1.801 1.801 0 0 1-.592-2.091c.668-1.718 1.558-4.291 1.941-6.798v-.033c0-.046.49-4.602 3.715-11.86 0 0 0-.008.006-.014l2.017-4.864c.295-.71.83-1.293 1.513-1.648l8.461-4.393a1.76 1.76 0 0 1 2.264.57l2.354 3.458a1.496 1.496 0 0 1-.471 2.13l-3.666 2.176c-.23.134-.557.249-.8.023l-1.147-1.054a.63.63 0 1 0-.853.928l1.147 1.053c.617.57 1.474.62 2.295.134l1.292-.766.179.246a2.14 2.14 0 0 0 2.904.526l.982-.645a2.718 2.718 0 0 0 1.182-1.798.627.627 0 0 0-.506-.771.63.63 0 0 0-.733.56 1.456 1.456 0 0 1-.633.96l-.975.64a.883.883 0 0 1-1.196-.216l-.111-.149 1.286-.762a2.756 2.756 0 0 0 .87-3.925l-2.354-3.45a3.02 3.02 0 0 0-3.888-.982l-8.46 4.393a4.542 4.542 0 0 0-2.097 2.285l-2.014 4.857c-3.243 7.3-3.773 11.849-3.812 12.22-.39 2.514-1.336 5.16-1.868 6.514a3.067 3.067 0 0 0 1.011 3.563c2.15 1.612 4.949 1.945 5.548 2.004 4.298 1.797 12.468 1.746 14.886 1.688a4.934 4.934 0 0 1 1.83.279c2.116.773 2.667 2.614 2.72 4.154a24.549 24.549 0 0 1-10.812 2.49C15.3 53.04 4.292 42.032 4.292 28.5a24.415 24.415 0 0 1 4.171-13.693.63.63 0 1 0-1.045-.705A25.667 25.667 0 0 0 3.03 28.5c0 14.227 11.574 25.8 25.805 25.8z" fill="#fff"></path><path d="M17.089 6.947A24.57 24.57 0 0 1 28.836 3.96c10.895 0 20.596 7.306 23.594 17.767.562 1.962.292 4.042-.744 5.705a5.328 5.328 0 0 1-.713.927.63.63 0 1 0 .9.884c.335-.349.632-.733.884-1.145a8.367 8.367 0 0 0 .886-6.718 25.98 25.98 0 0 0-9.148-13.385A25.569 25.569 0 0 0 28.836 2.7a25.834 25.834 0 0 0-12.351 3.14.631.631 0 1 0 .604 1.107zM29.11 19.364a.633.633 0 0 0-.348-1.217c-.715.205-1.271.097-1.698-.334a.63.63 0 0 0-1.048.258c-.057.184-1.39 4.548-.852 8.704l.1.77c.364 2.775.564 4.304.265 5.584a2.597 2.597 0 0 1-1.189 1.66l-.012.007.316.545.334.538a3.864 3.864 0 0 0 1.781-2.464c.351-1.502.14-3.117-.242-6.034l-.1-.768c-.37-2.85.232-5.9.582-7.335.61.28 1.33.31 2.11.086z" fill="#fff"></path>
		</symbol>
	
		<symbol id="arr" viewBox="0 0 20 32">
			<rect x="1" y="1" width="18" height="30" rx="9" stroke="#fff" stroke-width="2"></rect><rect x="9" y="21" width="2" height="5" rx="1" fill="#fff"></rect>
		</symbol>
	
		<symbol id="arrow-down" viewBox="0 0 24 24">
			<path d="M13 5V4h-2v1h2zm-2 14v1h2v-1h-2zm0-14v14h2V5h-2z" fill="#fff"></path><path d="M19.707 13.707l.707-.707L19 11.586l-.707.707 1.414 1.414zM12 20l-.707.707.707.707.707-.707L12 20zm-6.293-7.707L5 11.586 3.586 13l.707.707 1.414-1.414zm12.586 0l-7 7 1.414 1.414 7-7-1.414-1.414zm-5.586 7l-7-7-1.414 1.414 7 7 1.414-1.414z" fill="#fff"></path>
		</symbol>
	
		<symbol id="arrow-left" viewBox="0 0 28 28">
			<path d="M22.168 13h1v2h-1v-2zM5.835 15h-1v-2h1v2zm16.333 0H5.835v-2h16.333v2z" fill="#fff"></path><path d="M12.125 5.125l.707-.707 1.414 1.414-.707.707-1.414-1.414zm-7.46 8.874l-.707.707-.707-.707.707-.707.707.707zm8.874 7.46l.707.706-1.414 1.415-.707-.707 1.414-1.415zm0-14.92l-8.167 8.167-1.414-1.414 8.167-8.167 1.414 1.414zm-8.167 6.753l8.167 8.166-1.414 1.415-8.167-8.167 1.414-1.414z" fill="#fff"></path>
		</symbol>
	
		<symbol id="arrow-right" viewBox="0 0 24 24">
			<path d="M5 11H4v2h1v-2zm14 2h1v-2h-1v2zM5 13h14v-2H5v2z" fill="#fff"></path><path d="M13.707 4.293L13 3.586 11.586 5l.707.707 1.414-1.414zM20 12l.707.707.707-.707-.707-.707L20 12zm-7.707 6.293l-.707.707L13 20.414l.707-.707-1.414-1.414zm0-12.586l7 7 1.414-1.414-7-7-1.414 1.414zm7 5.586l-7 7 1.414 1.414 7-7-1.414-1.414z" fill="#fff"></path>
		</symbol>
	
		<symbol id="arrows-up" viewBox="0 0 57 57">
			<path d="M10.816 44.123c-.999 0-1.938-.39-2.642-1.093a3.713 3.713 0 0 1-1.092-2.641c0-1 .388-1.937 1.093-2.642l11.416-11.41c.892-.9 2.032-1.458 3.208-1.564a5.083 5.083 0 0 1 4.014 1.449l1.462 1.468a.962.962 0 0 0 1.344-.005l7.541-7.548a.37.37 0 0 0 0-.527l-1.942-1.937a1.676 1.676 0 0 1-.415-1.7c.19-.6.694-1.038 1.313-1.143l11.282-1.954h.02c.67 0 1.297.26 1.768.73.476.476.735 1.111.73 1.788l-.014.146-1.941 11.14a1.666 1.666 0 0 1-1.15 1.311 1.659 1.659 0 0 1-1.691-.421l-2.152-2.152a.374.374 0 0 0-.526 0l-9.834 9.828c-.893.902-2.033 1.46-3.209 1.566a5.091 5.091 0 0 1-4.012-1.449l-1.462-1.469a.959.959 0 0 0-1.343.006l-9.124 9.13a3.71 3.71 0 0 1-2.642 1.093zm12.435-17.588c-.098 0-.197.005-.296.013-.753.068-1.501.44-2.1 1.047L9.435 39.007a1.957 1.957 0 0 0 0 2.764c.736.737 2.026.738 2.765 0l9.127-9.134a2.75 2.75 0 0 1 3.858-.004l1.462 1.47c.691.685 1.61 1.013 2.598.935.753-.069 1.5-.441 2.101-1.048l9.837-9.83a2.155 2.155 0 0 1 3.045 0l2.014 2.014 1.892-10.852a.706.706 0 0 0-.663-.662l-10.857 1.892 1.803 1.8c.408.406.632.946.633 1.522 0 .576-.223 1.117-.63 1.524l-7.545 7.552a2.749 2.749 0 0 1-3.858.003l-1.462-1.47a3.23 3.23 0 0 0-2.304-.948zm22.955-.157zm.178-.062zm2.641-10.928h.009-.009z" fill="#fff"></path>
		</symbol>
	
		<symbol id="benefits-1" viewBox="0 0 42 57">
			<path d="M34.059 33.398h.668V48.36h-6.012v-7.17h1.069v-1.78h-2.85v8.95H8.454V33.398H22.39v-1.782H8.453V20.172h18.48v13.226h2.45v-1.782h-.668V18.391H6.672v31.75h29.836V31.616h-2.45v1.782z" fill="#fff"></path><path d="M41.984 10.331l-9.44-9.44H.125v55.218h41.86V10.331zM33.078 3.92l5.878 5.878h-5.878V3.919zM1.906 54.329V2.671h29.39v8.906h8.907v42.75H1.906z" fill="#fff"></path>
		</symbol>
	
		<symbol id="benefits-2" viewBox="0 0 57 57">
			<path d="M53.438 31.172c-.352 0-.686.072-.994.196a2.667 2.667 0 0 0-2.569-1.977c-.352 0-.686.072-.994.196a2.667 2.667 0 0 0-2.569-1.978 2.64 2.64 0 0 0-.89.164V26.4a11.528 11.528 0 0 0 8.906-11.258 11.5 11.5 0 0 0-2.343-6.954l2.1-2.233-1.297-1.221-1.983 2.108a11.53 11.53 0 0 0-8.055-3.279c-6.384 0-11.578 5.195-11.578 11.579A11.53 11.53 0 0 0 40.078 26.4v15.975a1.245 1.245 0 0 1-.333-.646l-1.173-6.449a2.83 2.83 0 0 0-2.786-2.327 2.836 2.836 0 0 0-2.833 2.832v.57c0 .154.014.31.038.465l1.603 9.614c.126.749.441 1.459.914 2.049l2.203 2.753c.378.474.586 1.066.586 1.67v3.203h14.25v-3.203c0-.604.207-1.197.586-1.67l2-2.502a4.47 4.47 0 0 0 .976-2.78v-12.11a2.675 2.675 0 0 0-2.672-2.672zM32.953 15.14c0-5.402 4.395-9.797 9.797-9.797a9.758 9.758 0 0 1 6.836 2.792l-10.417 11.07-2.023-2.023-1.26 1.26 3.322 3.32 11.54-12.262a9.733 9.733 0 0 1 1.799 5.64 9.756 9.756 0 0 1-7.125 9.422v-1.407a2.675 2.675 0 0 0-2.672-2.672 2.675 2.675 0 0 0-2.672 2.672v1.407a9.756 9.756 0 0 1-7.125-9.422zm21.375 30.813c0 .603-.207 1.197-.586 1.67l-2 2.501a4.47 4.47 0 0 0-.976 2.78v1.423H40.078v-1.422a4.477 4.477 0 0 0-.976-2.782l-2.203-2.753a2.676 2.676 0 0 1-.548-1.23l-1.603-9.612a1.136 1.136 0 0 1-.014-.175v-.569a1.052 1.052 0 0 1 2.086-.187l1.172 6.45a3.024 3.024 0 0 0 2.977 2.483h.89V23.156a.892.892 0 0 1 1.782 0V37.406h1.78v-7.125a.892.892 0 0 1 1.782 0v7.125h1.781v-5.343a.892.892 0 0 1 1.782 0v5.343h1.78v-3.562a.892.892 0 0 1 1.782 0v12.11zM23.156.89H7.125A6.242 6.242 0 0 0 .891 7.126v42.75a6.242 6.242 0 0 0 6.234 6.234h16.031a6.242 6.242 0 0 0 6.235-6.234V7.125A6.242 6.242 0 0 0 23.156.891zm4.453 48.985a4.458 4.458 0 0 1-4.453 4.453H7.125a4.458 4.458 0 0 1-4.453-4.453V7.125a4.458 4.458 0 0 1 4.453-4.453h16.031a4.458 4.458 0 0 1 4.453 4.453v42.75z" fill="#fff"></path><path d="M15.14 20.273l-2.789 5.572-6.269.898 4.538 4.36-1.068 6.137 5.589-2.897 5.588 2.897-1.068-6.138 4.538-4.36-6.269-.897-2.79-5.572zm2.605 10.202l.613 3.53-3.217-1.668-3.218 1.668.613-3.53-2.587-2.487 3.579-.513 1.613-3.222 1.613 3.223 3.579.513-2.588 2.486z" fill="#fff"></path><path d="M15.141 37.21l-2.511 4.97-5.67.804 4.104 3.906-.963 5.484 5.04-2.587 5.04 2.587-.962-5.484 4.103-3.906-5.67-.804-2.51-4.97zm2.157 9.048l.509 2.894-2.666-1.368-2.665 1.37.508-2.895-2.131-2.027 2.947-.418 1.341-2.654 1.342 2.653 2.947.418-2.132 2.027zM10.101 19.42l5.04-2.587 5.04 2.588-.962-5.484 4.103-3.906-5.67-.804-2.51-4.97-2.512 4.97-5.67.804 4.104 3.906-.963 5.484zm.753-8.141l2.947-.418 1.34-2.654 1.342 2.653 2.947.418-2.132 2.027.509 2.894-2.666-1.368-2.665 1.37.508-2.895-2.13-2.027z" fill="#fff"></path>
		</symbol>
	
		<symbol id="benefits-3" viewBox="0 0 49 57">
			<path d="M38.89 15.508a4.876 4.876 0 0 0 4.87-4.871 4.876 4.876 0 0 0-4.87-4.871 4.878 4.878 0 0 0-4.874 4.87 4.878 4.878 0 0 0 4.874 4.872zm0-8.239a3.371 3.371 0 0 1 3.367 3.368 3.371 3.371 0 0 1-3.367 3.367 3.373 3.373 0 0 1-3.37-3.367 3.373 3.373 0 0 1 3.37-3.368zM10.101 15.39a4.876 4.876 0 0 0 4.871-4.872 4.876 4.876 0 0 0-4.871-4.87 4.878 4.878 0 0 0-4.874 4.87A4.878 4.878 0 0 0 10.1 15.39zm0-8.238a3.371 3.371 0 0 1 3.368 3.366 3.372 3.372 0 0 1-3.368 3.368 3.373 3.373 0 0 1-3.371-3.368 3.373 3.373 0 0 1 3.371-3.366zM14.28 38.958h-.143c-1.495 0-2.797-1.34-2.797-2.835V19.145c0-.566.14-1.147.333-1.73.076-.23.058-.491-.083-.687a.723.723 0 0 0-.588-.322H5.121c-2.343 0-4.305 2.137-4.305 3.957v13.756c0 .415.48.705.896.705h2.111v15.495c0 .415.396.667.81.667h9.647c.415 0 .819-.252.819-.667V39.587c0-.415-.404-.629-.82-.629zm-.684 10.524h-8.27V34.118c0-.414-.277-.798-.692-.798H2.32V20.363c0-.98 1.26-2.453 2.8-2.453h4.914c-.075.376-.197.834-.197 1.235v16.978c0 2.118 1.503 3.876 3.758 4.172v9.187z" fill="#fff"></path><path d="M35.774 36.123V19.145c0-2.215-2.204-4.618-5.128-4.618H18.35c-2.794 0-5.127 2.452-5.127 4.618v16.978c0 .415.502.58.917.58h2.841v19.414c0 .415.351.882.766.882H31.25c.414 0 .765-.466.765-.882V36.703h2.84c.415 0 .919-.165.919-.58zm-1.503-.924H31.25c-.416 0-.738.509-.738.924v19.373H18.485V36.123c0-.415-.323-.924-.738-.924h-3.021V19.145c0-1.28 1.618-3.114 3.624-3.114h12.296c2.11 0 3.625 1.817 3.625 3.114v16.054zM24.496 11.672a5.84 5.84 0 0 0 5.834-5.835A5.842 5.842 0 0 0 24.496 0a5.845 5.845 0 0 0-5.84 5.837 5.844 5.844 0 0 0 5.84 5.835zm0-10.169a4.337 4.337 0 0 1 4.33 4.334 4.336 4.336 0 0 1-4.33 4.331 4.34 4.34 0 0 1-4.336-4.331 4.34 4.34 0 0 1 4.336-4.334z" fill="#fff"></path><path d="M43.872 16.406h-5.837c-.238 0-.462.182-.603.372-.142.191-.142.472-.074.7.167.56.295 1.143.295 1.666v16.979c0 1.495-1.303 2.835-2.798 2.835h-.141c-.415 0-.82.213-.82.628v10.85c0 .415.405.925.82.925h9.647c.415 0 .81-.51.81-.925V34.823h2.11c.416 0 .896-.172.896-.587V20.482c0-1.862-1.853-4.076-4.305-4.076zm2.802 16.914H44.36c-.415 0-.694.5-.694.916v15.621h-8.269v-9.563c2.255-.297 3.758-2.054 3.758-4.171V19.144c0-.359-.116-.858-.177-1.234h4.893c1.623 0 2.802 1.58 2.802 2.572V33.32z" fill="#fff"></path>
		</symbol>
	
		<symbol id="book-thin" viewBox="0 0 57 57">
			<path d="M46.313 6.234H16.03a6.242 6.242 0 0 0-6.234 6.235v39.187a.89.89 0 0 0 .89.89H42.75a.891.891 0 0 0 0-1.78H11.578v-.891a4.458 4.458 0 0 1 4.453-4.453h30.282a.891.891 0 0 0 .89-.89V7.124a.89.89 0 0 0-.89-.89zm-.891 37.407h-29.39a6.216 6.216 0 0 0-4.454 1.875V12.469a4.458 4.458 0 0 1 4.453-4.453h29.39V43.64z" fill="#fff"></path>
		</symbol>
	
		<symbol id="checkmark" viewBox="0 0 86 86">
			<path d="M43 86c23.748 0 43-19.252 43-43S66.748 0 43 0 0 19.252 0 43s19.252 43 43 43z" fill="#4E88B7"></path><path d="M36.483 65.306l-19.82-19.82a.65.65 0 0 1 0-.94l5.71-5.711a.65.65 0 0 1 .941 0l13.64 13.639 25.665-25.666a.65.65 0 0 1 .94 0l5.711 5.71a.65.65 0 0 1 0 .942L37.423 65.306a.65.65 0 0 1-.94 0z" fill="#93B6D3"></path>
		</symbol>
	
		<symbol id="clip" viewBox="0 0 18 19">
			<path d="M16.867 9.208l-7.659 7.658a5.003 5.003 0 1 1-7.075-7.075l7.659-7.658a3.335 3.335 0 0 1 4.716 4.717l-7.666 7.658a1.668 1.668 0 0 1-2.359-2.358l7.075-7.067" stroke="#fff" stroke-linecap="round" stroke-linejoin="round"></path>
		</symbol>
	
		<symbol id="close-icon" viewBox="0 0 28 28">
			<path d="M21 7L7 21M7 7l14 14" stroke="#fff" stroke-width="2" stroke-linecap="square" stroke-linejoin="round"></path>
		</symbol>
	
		<symbol id="construction-project" viewBox="0 0 57 57">
			<path d="M7.57.89v55.22h41.86V10.33L39.99.891H7.57zM40.523 3.92l5.879 5.878h-5.879V3.919zM9.352 54.329V2.671h29.39v8.906h8.906v42.75H9.352z" fill="#fff"></path><path d="M44.086 34.29H12.914v1.78h31.172v-1.78zM44.086 38.742H12.914v1.781h31.172v-1.78zM44.086 43.195H32.953v1.782h11.133v-1.782zM28.5 28.323c3.874 0 7.748-.668 11.444-1.959l.58-.223v-3.25l-1.381-.401v-1.292c0-4.007-2.227-7.659-5.745-9.44v-.09c0-1.023-.846-1.87-1.87-1.87h-2.137v-.267h-1.782v.267h-2.137c-1.024 0-1.87.847-1.87 1.87v.09a10.661 10.661 0 0 0-5.745 9.44v1.292l-1.38.445v3.25l.578.224c3.697 1.247 7.57 1.914 11.445 1.914zm-10.242-4.052l1.38-.4v-2.628c0-2.984 1.514-5.79 3.964-7.392v2.716h1.78V11.67c0-.045.045-.09.09-.09h2.137v7.705h1.782V11.58h2.137c.045 0 .09.044.09.089v4.898h1.78v-2.716c2.45 1.647 3.964 4.408 3.964 7.392v2.627l1.38.401v.623a32.868 32.868 0 0 1-20.484 0v-.623z" fill="#fff"></path><path d="M35.312 22.313H21.64v1.78h13.67v-1.78z" fill="#fff"></path>
		</symbol>
	
		<symbol id="ecologic" viewBox="0 0 57 57">
			<path d="M31.617 54.33V43.733c1.425-.356 2.806-.935 4.008-1.737v2.984h12.914V32.065h-6.947c.045-.356.045-.757.045-1.113 0-3.83-1.693-7.393-4.453-9.842L50.766 7.484l4.453 4.453V9.398l-4.453-4.453-15.007 15.052c-.401-.267-.802-.49-1.203-.713L50.766 3.03l4.453 4.454V4.945L50.766.492 34.734 16.523c.134-.757.223-1.514.223-2.315 0-6.635-5.388-12.024-12.023-12.024-6.636 0-12.024 5.389-12.024 12.024v.133c-5.878 2.272-9.797 7.972-9.797 14.34 0 8.505 6.903 15.407 15.364 15.407h4.007v12.024h1.782V44.088H28.5c.445 0 .89-.044 1.336-.089v12.113h25.383V54.33H31.617zm15.14-20.484v9.352h-9.35v-2.583a13.33 13.33 0 0 0 3.918-6.769h5.433zM28.5 42.307h-6.234v-4.052l8.416-4.186-.801-1.603-7.615 3.785V18.706h-1.782v8.639l-7.615-3.83-.801 1.603 8.416 4.23v12.959h-4.007c-7.482 0-13.582-6.1-13.582-13.582 0-5.834 3.696-11 9.218-12.87l.668-.222-.045-.668c0-.223-.045-.49-.045-.713 0-5.655 4.587-10.242 10.243-10.242 5.655 0 10.242 4.587 10.242 10.242 0 1.692-.401 3.34-1.203 4.81l-.49.89.936.357c4.408 1.647 7.392 5.922 7.392 10.643.044 6.278-5.032 11.355-11.311 11.355z" fill="#fff"></path>
		</symbol>
	
		<symbol id="empty-vacancies" viewBox="0 0 681 464">
			<g clip-path="url(#a)"><path d="M167.037 108.527c-51.984 52.874-106.625 15.786-136.454 72.052-29.83 56.266-10.26 170.319 109.587 233.185 119.847 62.867 338.687 33.442 429.648-13.879 90.962-47.321-13.451-162.9-60.098-212.32-46.647-49.42-25.792-115.488-109.741-161.483-83.95-45.996-180.957 29.57-232.942 82.445z" fill="#DBECFF"></path><circle cx="519.077" cy="137.843" r="22.362" fill="#DBECFF"></circle><path d="M128.924 121.19c-32.734 12.941-69.149 16.811-83.264 17.128 50.434-7.137 71.37-14.274 92.78-27.12 21.411-12.846 46.153-42.822 71.37-63.28 25.081-20.35 44.357-25.01 58.765-28.492l.233-.057c-11.101 4.758-23.314 8.565-45.2 22.839-21.887 14.273-53.765 62.805-94.684 78.982z" fill="#DBECFF"></path><circle cx="484.821" cy="69.328" r="11.895" fill="#DBECFF"></circle><path d="M211.095 116.948l-109.3 73.018 107.66 160.729 109.301-73.018-107.661-160.729z" fill="#F5F5F5"></path><path d="M262.278 270.069l-1.247 7.666-54.338-7.822 1.247-7.666 54.338 7.822z" fill="#E0E0E0"></path><path d="M234.914 242.722l7.793 1.119-8.64 53.429-7.803-1.129 8.65-53.419zM184.863 174.817c.078.107-10.881 7.568-24.461 16.635-13.58 9.067-24.675 16.344-24.753 16.228-.078-.117 10.871-7.569 24.471-16.646 13.599-9.077 24.665-16.334 24.743-16.217zM225.056 164.738c.078.116-18.139 12.413-40.681 27.473-22.542 15.06-40.914 27.172-40.963 27.065-.049-.107 18.129-12.423 40.681-27.483 22.551-15.06 40.885-27.172 40.963-27.055zM233.11 176.762c.078.117-18.138 12.424-40.68 27.483-22.542 15.06-40.914 27.172-40.914 27.056 0-.117 18.129-12.414 40.631-27.484 22.503-15.069 40.885-27.171 40.963-27.055zM241.169 188.796c.078.117-18.129 12.424-40.671 27.474-22.542 15.05-40.914 27.182-40.972 27.065-.059-.117 18.138-12.424 40.69-27.483 22.551-15.06 40.875-27.172 40.953-27.056zM249.233 200.831c.078.116-18.138 12.413-40.68 27.473-22.542 15.06-40.914 27.172-40.973 27.055-.058-.117 18.139-12.413 40.69-27.473 22.552-15.06 40.886-27.172 40.963-27.055z" fill="#E0E0E0"></path><path d="M576.584 224.646l-91.795 61.324 90.415 134.982 91.795-61.323-90.415-134.983z" fill="#F5F5F5"></path><path d="M619.576 353.267l-1.043 6.441-45.638-6.567 1.042-6.44 45.639 6.566z" fill="#E0E0E0"></path><path d="M596.588 330.298l6.556.944-7.268 44.868-6.546-.944 7.258-44.868zM554.562 273.318c.078.117-9.118 6.392-20.525 14.009-11.407 7.618-20.73 13.708-20.808 13.62-.078-.087 9.108-6.382 20.525-14.009 11.417-7.627 20.73-13.785 20.808-13.62zM588.317 264.806c.078.116-15.207 10.468-34.095 23.105-18.889 12.637-34.349 22.813-34.427 22.697-.078-.117 15.207-10.468 34.144-23.115 18.938-12.647 34.3-22.804 34.378-22.687zM595.088 274.904c.078.117-15.216 10.468-34.144 23.115-18.927 12.647-34.348 22.804-34.426 22.687-.078-.117 15.255-10.419 34.144-23.066 18.889-12.648 34.348-22.843 34.426-22.736zM601.846 284.992c.078.117-15.206 10.468-34.095 23.115-18.889 12.648-34.349 22.804-34.426 22.687-.078-.116 15.206-10.458 34.095-23.115 18.889-12.656 34.348-22.784 34.426-22.687zM608.618 295.12c.078.117-15.207 10.458-34.144 23.105-18.938 12.647-34.349 22.804-34.427 22.697-.078-.107 15.207-10.468 34.095-23.115 18.889-12.647 34.398-22.804 34.476-22.687z" fill="#E0E0E0"></path><path d="M431.357 122.85l-100.16-53.499-78.88 147.287 100.159 53.499 78.881-147.287z" fill="#F5F5F5"></path><path d="M335.339 224.062l-6.352 2.17-16.132-44.528 6.352-2.179 16.132 44.537z" fill="#E0E0E0"></path><path d="M345.08 192.114l2.318 6.392-44.285 15.147-2.318-6.392 44.285-15.147zM376.547 126.417c-.078.146-10.238-5.127-22.688-11.771-12.45-6.645-22.483-12.161-22.405-12.307.078-.146 10.238 5.127 22.688 11.771 12.449 6.645 22.483 12.151 22.405 12.307zM400.579 152.908c-.078.146-16.892-8.688-37.544-19.72-20.652-11.032-37.349-20.099-37.271-20.245.078-.146 16.892 8.678 37.553 19.72 20.662 11.042 37.34 20.099 37.262 20.245zM394.674 163.93c-.078.146-16.891-8.678-37.543-19.71s-37.349-20.109-37.271-20.255c.078-.146 16.891 8.688 37.553 19.72 20.662 11.032 37.339 20.099 37.261 20.245zM388.772 174.953c-.078.146-16.892-8.678-37.544-19.71-20.652-11.032-37.349-20.07-37.271-20.245.078-.175 16.892 8.678 37.554 19.71 20.662 11.032 37.319 20.099 37.261 20.245zM382.868 185.975c-.078.146-16.892-8.678-37.544-19.71-20.652-11.032-37.349-20.099-37.271-20.245.078-.146 16.892 8.678 37.553 19.71 20.662 11.032 37.379 20.099 37.262 20.245z" fill="#E0E0E0"></path><path d="M288.122 226.174l-34.446 176.865-4.51 23.154 229.968-1.109c10.316-.049 19.483-9.204 22.785-22.804l40.827-166.991c2.523-10.322-3.011-21.062-10.843-21.052l-232.753.243c-5.183.01-9.683 4.796-11.028 11.694z" fill="#0D5082"></path><path d="M457.07 391.034l-24.354-195.943c-.974-8.026-7.404-14.019-14.963-13.99l-53.393.166a14.614 14.614 0 0 0-10.54 4.669l-25.328 26.919-148.48.769c-9.079.048-16.045 8.629-14.846 18.26l22.61 181.097c.974 8.017 7.384 14 14.943 13.99l258.773-.516c28.825.594 31.573-7.899 31.573-7.899-33.044 7.335-35.986-27.474-35.995-27.522z" fill="#115EA0"></path><g opacity=".5" fill="#65A0D4"><path d="M345.49 351.847l-8.729 9.359-67.216-60.395 8.728-9.359 67.217 60.395z"></path><path d="M333.109 289.38l9.644 8.668-60.826 65.23-9.644-8.668 60.826-65.23z"></path></g></g><defs><clipPath id="a"><path fill="#fff" d="M0 0h681v464H0z"></path></clipPath></defs>
		</symbol>
	
		<symbol id="mail" viewBox="0 0 16 16">
			<path d="M2.665 2.668h10.667c.733 0 1.333.6 1.333 1.333v8c0 .734-.6 1.334-1.333 1.334H2.665c-.733 0-1.333-.6-1.333-1.334v-8c0-.733.6-1.333 1.333-1.333z" stroke="#fff" stroke-linecap="round" stroke-linejoin="round"></path><path d="M14.665 4L8 8.667 1.332 4" stroke="#fff" stroke-linecap="round" stroke-linejoin="round"></path>
		</symbol>
	
		<symbol id="map-pin" viewBox="0 0 16 16">
			<path d="M14 6.668c0 4.667-6 8.667-6 8.667s-6-4-6-8.667a6 6 0 1 1 12 0z" stroke="#fff" stroke-linecap="round" stroke-linejoin="round"></path><path d="M8 8.668a2 2 0 1 0 0-4 2 2 0 0 0 0 4z" stroke="#fff" stroke-linecap="round" stroke-linejoin="round"></path>
		</symbol>
	
		<symbol id="phone" viewBox="0 0 16 16">
			<path d="M14.665 11.279v2a1.334 1.334 0 0 1-1.453 1.333 13.193 13.193 0 0 1-5.754-2.047 13 13 0 0 1-4-4 13.193 13.193 0 0 1-2.046-5.78 1.333 1.333 0 0 1 1.326-1.453h2A1.333 1.333 0 0 1 6.072 2.48a8.56 8.56 0 0 0 .466 1.873 1.333 1.333 0 0 1-.3 1.407l-.846.846a10.666 10.666 0 0 0 4 4l.846-.846a1.334 1.334 0 0 1 1.407-.3 8.56 8.56 0 0 0 1.873.466 1.333 1.333 0 0 1 1.147 1.354z" stroke="#fff" stroke-linecap="round" stroke-linejoin="round"></path>
		</symbol>
	
		<symbol id="plan-building" viewBox="0 0 57 57">
			<path d="M.89 47.203h21.153v7.125H10.688v1.781h35.624v-1.78H34.957v-7.126h21.152V.891H.891v46.312zm32.286 7.125h-9.352v-7.125h9.352v7.125zM2.672 45.422v-4.899h51.656v4.899H2.672zm51.656-42.75v36.07H2.672V2.672h51.656z" fill="#fff"></path><path d="M42.75 14.695H31.396v-.445h-1.78v2.227h11.354v15.585h-9.574v-11.8h-1.78v11.8H17.011V16.477h7.704v-2.583h-1.782v.801h-5.922V9.797h12.602v.445h1.781V8.016H15.23v25.828h27.52V14.695z" fill="#fff"></path>
		</symbol>
	
		<symbol id="s-1" viewBox="0 0 50 50">
			<circle cx="25" cy="25" r="25" fill="#fff" fill-opacity=".15"></circle><path fill-rule="evenodd" clip-rule="evenodd" d="M25.5 36C31.851 36 37 30.851 37 24.5S31.851 13 25.5 13 14 18.149 14 24.5 19.149 36 25.5 36zm0 1C32.404 37 38 31.404 38 24.5S32.404 12 25.5 12 13 17.596 13 24.5 18.596 37 25.5 37z" fill="#fff"></path><path d="M25.774 28.7a.277.277 0 0 1-.187-.066.278.278 0 0 1-.066-.187v-6.16l-1.826 1.408a.256.256 0 0 1-.187.055.233.233 0 0 1-.165-.099l-.286-.363a.293.293 0 0 1-.055-.198.277.277 0 0 1 .11-.165l2.398-1.848a.351.351 0 0 1 .143-.066.874.874 0 0 1 .143-.011h.56a.22.22 0 0 1 .177.077.238.238 0 0 1 .066.176v7.194a.278.278 0 0 1-.066.187.238.238 0 0 1-.176.066h-.583z" fill="#fff"></path>
		</symbol>
	
		<symbol id="s-10" viewBox="0 0 50 50">
			<circle cx="25" cy="25" r="25" fill="#fff" fill-opacity=".15"></circle><g clip-path="url(#a)" fill-rule="evenodd" clip-rule="evenodd" fill="#fff"><path d="M11.981 24.094v10.569c0 .207.18.406.42.406h25.243a.418.418 0 0 0 .419-.406V24.094h1v10.569c0 .816-.684 1.406-1.42 1.406H12.4c-.81 0-1.419-.664-1.419-1.406V24.094h1zM21.25 15.04a.64.64 0 0 0-.125.384v2.027h-1v-2.027c0-.367.123-.724.335-.997.211-.273.542-.496.953-.496h6.3c.812 0 1.287.766 1.287 1.493v2.027h-1v-2.027a.634.634 0 0 0-.12-.395c-.063-.078-.124-.098-.168-.098h-6.3c-.027 0-.09.015-.162.109z"></path><path d="M22.875 24.784v2.589c0 .147.16.362.462.362h2.45c.304 0 .463-.215.463-.362v-2.589h1v2.589c0 .802-.716 1.362-1.462 1.362h-2.45c-.747 0-1.463-.56-1.463-1.362v-2.589h1z"></path><path d="M26.75 26.578h-4.375v-1h4.375v1zM12.4 17.52a.418.418 0 0 0-.419.405v5.522c0 .207.18.406.42.406h25.243a.418.418 0 0 0 .419-.406v-5.522a.418.418 0 0 0-.42-.405H12.4zm-1.419.405c0-.815.684-1.405 1.42-1.405h25.243c.81 0 1.419.664 1.419 1.405v5.522c0 .816-.684 1.406-1.42 1.406H12.4c-.81 0-1.419-.664-1.419-1.406v-5.522z"></path></g><defs><clipPath id="a"><path fill="#fff" transform="translate(11 14)" d="M0 0h28v22H0z"></path></clipPath></defs>
		</symbol>
	
		<symbol id="s-11" viewBox="0 0 50 50">
			<circle cx="25" cy="25" r="25" fill="#fff" fill-opacity=".15"></circle><path d="M13.984 10.469V39.53h22.032V15.438l-4.97-4.97H13.985zm17.344 1.594l3.094 3.093h-3.094v-3.094zm-16.406 26.53V11.407H30.39v4.688h4.687v22.5H14.922z" fill="#fff"></path><path d="M33.203 28.047H16.797v.937h16.406v-.937zM33.203 30.39H16.797v.938h16.406v-.937zM33.203 32.734h-5.86v.938h5.86v-.938zM21.016 20.734v5.203h7.968v-5.203l.375.375.657-.656-1.032-1.031v-3.024h-2.109v.891L25 15.414l-5.016 5.04.657.655.375-.375zm6.797-1.172v-2.226h.234V25h-6.094v-5.203L25 16.75l2.813 2.813z" fill="#fff"></path>
		</symbol>
	
		<symbol id="s-12" viewBox="0 0 50 50">
			<circle cx="25" cy="25" r="25" fill="#273A4A" fill-opacity=".05"></circle><path fill-rule="evenodd" clip-rule="evenodd" d="M24.13 10.742a.752.752 0 0 1 .534-.242c.252 0 .432.136.535.242.107.11.19.243.253.367.13.252.236.57.32.877.164.606.277 1.305.277 1.611v.865h8.344c.5 0 .969.19 1.288.533.314.337.466.805.36 1.305-.032.964-.832 1.715-1.825 1.715-.768 0-1.42-.448-1.691-1.097a27.713 27.713 0 0 1-1.813.645c-1.3.41-3.02.835-4.796.922v13.31c.895.082 1.693.278 2.304.528.357.147.671.32.906.516.176.148.373.364.438.641h1.07c.603 0 1.119.462 1.119 1.072v1.409c0 .61-.516 1.072-1.12 1.072h-1.812c-.538 0-1.007-.367-1.102-.88h-6.287c-.094.513-.563.88-1.101.88h-1.813c-.604 0-1.12-.462-1.12-1.072v-1.409c0-.61.517-1.072 1.12-1.072h1.07c.065-.277.262-.493.438-.64.234-.197.549-.37.905-.517.612-.25 1.41-.446 2.305-.528V18.48c-1.758-.106-3.476-.54-4.78-.949a32.653 32.653 0 0 1-1.724-.598l-.096-.036a1.814 1.814 0 0 1-1.7 1.12c-1.015 0-1.827-.784-1.827-1.777 0-.994.812-1.777 1.827-1.777h8.344v-.865c0-.306.112-1.005.277-1.611.084-.307.19-.626.32-.877.063-.124.145-.258.252-.367zm.392 1.506c-.155.572-.242 1.172-.242 1.35v1.364a.5.5 0 0 1-.5.5h-8.844c-.489 0-.827.362-.827.777 0 .415.338.776.827.776.489 0 .826-.361.826-.776a.502.502 0 0 1 .374-.486c.092-.025.17-.017.188-.015h.001a.69.69 0 0 1 .117.024c.048.013.105.034.16.053l.285.107.197.074c.406.153.982.364 1.672.58 1.384.434 3.202.881 4.991.924a.5.5 0 0 1 .489.5v14.263a.5.5 0 0 1-.48.5c-.988.042-1.848.24-2.445.486-.301.123-.515.25-.643.357a.762.762 0 0 0-.074.069.5.5 0 0 1-.396.805h-1.68c-.105 0-.12.066-.12.072v1.409c0 .006.015.072.12.072h1.813c.104 0 .119-.066.119-.072v-.308a.5.5 0 0 1 .5-.5h7.252a.5.5 0 0 1 .5.5v.308c0 .006.015.072.119.072h1.813c.104 0 .119-.066.119-.072v-1.409c0-.006-.015-.072-.12-.072h-1.68a.5.5 0 0 1-.396-.805.77.77 0 0 0-.073-.069 2.525 2.525 0 0 0-.643-.358c-.598-.244-1.457-.443-2.446-.485a.5.5 0 0 1-.479-.5V18a.5.5 0 0 1 .494-.5c1.81-.021 3.626-.458 5.002-.89a25.547 25.547 0 0 0 1.655-.586c.165-.065.3-.12.404-.162l.064-.026.137-.054a.96.96 0 0 1 .069-.023.505.505 0 0 1 .507.132.5.5 0 0 1 .141.348c0 .415.338.776.827.776.489 0 .826-.361.826-.776a.5.5 0 0 1 .015-.122.45.45 0 0 0-.107-.44.757.757 0 0 0-.557-.215h-8.844a.5.5 0 0 1-.5-.5v-1.365c0-.177-.087-.777-.243-1.349a5.097 5.097 0 0 0-.142-.448c-.049.13-.097.282-.142.448zm-.039-.808l.001.001v-.001z" fill="#273A4A"></path><path fill-rule="evenodd" clip-rule="evenodd" d="M14.982 17.06a.5.5 0 0 1 .472.34l3.98 11.887-.949.317-3.51-10.486-3.458 10.093-.946-.324 3.936-11.49a.5.5 0 0 1 .475-.338zM34.393 17.06a.5.5 0 0 1 .474.344l4.024 12.327-.95.31-3.552-10.878-3.458 10.483-.95-.313 3.936-11.93a.5.5 0 0 1 .476-.344z" fill="#273A4A"></path><path fill-rule="evenodd" clip-rule="evenodd" d="M11.59 29.396c.017.02.038.042.063.065.14.132.37.275.696.407.647.263 1.575.442 2.63.442 1.056 0 1.985-.18 2.632-.442.325-.132.555-.275.696-.407a.916.916 0 0 0 .063-.065 4.96 4.96 0 0 0-.724-.146c-.715-.1-1.685-.152-2.666-.152-.982 0-1.952.052-2.667.152-.31.044-.554.094-.724.146zm7.589-.71c.116.09.28.268.28.54 0 .396-.21.722-.468.965-.26.244-.61.444-1.004.604-.79.32-1.851.515-3.007.515-1.156 0-2.217-.194-3.007-.515-.394-.16-.744-.36-1.004-.604-.259-.243-.469-.57-.469-.965 0-.272.165-.45.28-.54.12-.094.262-.158.393-.205a5.264 5.264 0 0 1 1.001-.221c.778-.11 1.798-.162 2.806-.162s2.028.053 2.805.162c.384.054.736.125 1.002.22.13.048.273.112.392.205zM31.004 29.84c.017.018.037.04.06.061.142.132.372.276.697.407.647.263 1.576.442 2.63.442 1.056 0 1.985-.179 2.632-.442.325-.131.555-.275.696-.407a.87.87 0 0 0 .064-.066 4.913 4.913 0 0 0-.718-.145c-.712-.1-1.678-.152-2.657-.152-.978 0-1.947.052-2.664.152a5.006 5.006 0 0 0-.74.15zm7.588-.714c.117.092.28.27.28.54 0 .396-.21.723-.47.965-.26.244-.61.444-1.003.604-.79.32-1.851.515-3.007.515-1.156 0-2.217-.194-3.007-.515-.394-.16-.744-.36-1.004-.604-.259-.242-.469-.569-.469-.965v-.027a.702.702 0 0 1 .295-.519c.119-.09.26-.153.392-.2.269-.095.62-.166 1.006-.22.78-.109 1.798-.162 2.803-.162 1.006 0 2.022.053 2.796.162.383.054.732.125.998.221.13.047.272.111.39.205z" fill="#273A4A"></path>
		</symbol>
	
		<symbol id="s-13" viewBox="0 0 50 50">
			<circle cx="25" cy="25" r="25" fill="#fff" fill-opacity=".15"></circle><path d="M23.969 37.094V24.53c0-.281-.188-.468-.469-.468h-3c-.281 0-.469.187-.469.468v12.657h1.032V25h2.062v12.094h.844zM30.063 37.094V26.5c0-.281-.188-.469-.47-.469h-3c-.28 0-.468.188-.468.469v10.594h1.031V27.062h2.063v10.125h.843v-.093zM17.969 37.094V30.53c0-.281-.188-.468-.469-.468h-3.094c-.281 0-.469.187-.469.468v6.563h1.032V31h2.062v6.094h.938zM21.719 18.531l4.968 2.532 7.688-5.907-.656-.844-7.219 5.532-4.875-2.532L13.844 22l.562.844.469-.282 6.844-4.03z" fill="#fff"></path><path d="M34.75 14.219l-.656 4.031-1.032-.188.47-3-2.907-.468.188-1.031 3.937.656zM36.063 37.094V21.437c0-.28-.188-.468-.47-.468h-3c-.28 0-.468.187-.468.468v15.657h1.031V22h2.063v15.094h.843z" fill="#fff"></path><path d="M12.906 36.063h24.188v1.03H12.906v-1.03z" fill="#fff"></path>
		</symbol>
	
		<symbol id="s-14" viewBox="0 0 50 50">
			<circle cx="25" cy="25" r="25" fill="#fff" fill-opacity=".15"></circle><path d="M32.036 33.063v-8.376c0-.187-.129-.312-.32-.312h-2.053c-.192 0-.32.125-.32.313v8.437h.705V25h1.41v8.063h.578zM36.204 33.063V26c0-.188-.129-.313-.321-.313h-2.052c-.192 0-.32.125-.32.313v7.063h.705v-6.688h1.41v6.75h.578v-.063zM27.933 33.063v-4.376c0-.187-.128-.312-.32-.312h-2.117c-.192 0-.32.125-.32.313v4.375h.705V29h1.41v4.063h.642zM30.497 20.688l3.398 1.687 5.258-3.938-.449-.562-4.937 3.688-3.334-1.688L25.111 23l.385.563.32-.188 4.681-2.688z" fill="#fff"></path><path d="M39.409 17.813L38.96 20.5l-.705-.125.32-2-1.987-.313.128-.687 2.693.438zM40.307 33.063V22.624c0-.188-.128-.313-.32-.313h-2.052c-.193 0-.32.125-.32.313v10.438h.704V23h1.411v10.063h.577z" fill="#fff"></path><path d="M24.47 32.375h16.542v.688H24.47v-.688z" fill="#fff"></path><path fill-rule="evenodd" clip-rule="evenodd" d="M12.987 18.314l-.195-.291-.194-.291.003-.002.008-.006.028-.018.1-.06c.085-.05.206-.118.352-.19.29-.142.695-.306 1.127-.374.432-.068.931-.045 1.364.243.44.29.74.807.87 1.576l-.691.116c-.109-.648-.34-.959-.566-1.109-.232-.154-.53-.188-.868-.135-.336.053-.67.186-.928.312a4.429 4.429 0 0 0-.386.213l-.02.013-.004.003z" fill="#fff"></path><path fill-rule="evenodd" clip-rule="evenodd" d="M11.854 17.099l.009.007.035.03c.033.025.082.064.146.11.13.094.317.219.552.344.472.253 1.11.496 1.81.496v.7c-.857 0-1.61-.295-2.141-.579a5.89 5.89 0 0 1-.144-.08c.076.244.18.512.313.775.308.613.705 1.079 1.108 1.211l.742.245-.677.39c-1.248.721-2.357 2.184-3.158 3.84-.798 1.65-1.259 3.428-1.259 4.724 0 1.552.662 2.73 1.735 3.529 1.082.808 2.603 1.242 4.316 1.242 1.713 0 3.234-.434 4.317-1.242 1.072-.8 1.734-1.977 1.734-3.53 0-1.308-.467-3.086-1.269-4.733-.804-1.652-1.913-3.109-3.15-3.83l-.67-.391.738-.244c.402-.132.8-.598 1.108-1.211.215-.428.357-.868.42-1.199-.954 0-1.537.177-1.876.345-.19.094-.308.187-.373.25a.636.636 0 0 0-.07.077v-.001l.002-.003.001-.002v-.001s.001-.001-.3-.18l-.3-.18.001-.001.002-.003.004-.007a.499.499 0 0 1 .047-.066 1.36 1.36 0 0 1 .13-.141 2.2 2.2 0 0 1 .546-.37c.51-.252 1.322-.465 2.592-.408l.334.015v.335c0 .46-.204 1.197-.535 1.854-.228.455-.547.932-.954 1.253 1.192.878 2.2 2.298 2.932 3.802.833 1.712 1.34 3.596 1.34 5.04 0 1.78-.771 3.163-2.016 4.091-1.234.92-2.913 1.38-4.735 1.38-1.821 0-3.5-.46-4.735-1.38-1.244-.928-2.016-2.311-2.016-4.09 0-1.43.5-3.315 1.33-5.03.729-1.508 1.737-2.935 2.94-3.815-.405-.32-.724-.797-.952-1.251-.33-.658-.535-1.394-.535-1.854v-.772l.58.509z" fill="#fff"></path><path fill-rule="evenodd" clip-rule="evenodd" d="M17.495 20.713h-4.258v-.7h4.258v.7z" fill="#fff"></path><path fill-rule="evenodd" clip-rule="evenodd" d="M17.506 21.071l-.01-.35-.009-.35h.148a7.033 7.033 0 0 1 1.505.186c.413.104.858.273 1.206.554.36.291.617.706.617 1.262h-.7c0-.31-.132-.536-.357-.718-.236-.19-.57-.327-.937-.419a6.36 6.36 0 0 0-1.435-.166l-.022.001h-.006zm0 0z" fill="#fff"></path><path fill-rule="evenodd" clip-rule="evenodd" d="M17.532 20.547l.02-.349.02-.35h.004l.019.002.075.002a10.324 10.324 0 0 0 1.25-.047c.774-.078 1.673-.264 2.311-.673l.378.59c-.781.5-1.816.699-2.62.78a11.059 11.059 0 0 1-1.425.047l-.023-.001H17.532zM15.52 25.56c-.62 0-1.042.425-1.042.916 0 .322.23.61.553.846a2.95 2.95 0 0 0 .603.337l.006.002.014.005a2.29 2.29 0 0 1 .23.096c.144.066.338.168.535.308.38.271.842.741.842 1.434 0 .913-.829 1.617-1.741 1.617-.94 0-1.742-.676-1.742-1.617h.7c0 .492.423.917 1.042.917.59 0 1.041-.453 1.041-.917 0-.353-.234-.64-.549-.864a2.662 2.662 0 0 0-.596-.315l-.007-.003h-.001l-.011-.004.123-.328-.123.328h-.001l-.002-.001-.005-.002-.015-.006a3.463 3.463 0 0 1-.227-.102 3.646 3.646 0 0 1-.53-.32c-.373-.273-.839-.743-.839-1.411 0-.94.802-1.617 1.742-1.617.912 0 1.741.704 1.741 1.617h-.7c0-.464-.45-.917-1.041-.917z" fill="#fff"></path><path fill-rule="evenodd" clip-rule="evenodd" d="M15.198 32.175v-8.37h.7v8.37h-.7z" fill="#fff"></path>
		</symbol>
	
		<symbol id="s-15" viewBox="0 0 50 50">
			<circle cx="25" cy="25" r="25" fill="#fff" fill-opacity=".15"></circle><g clip-path="url(#a)" fill-rule="evenodd" clip-rule="evenodd" fill="#fff"><path d="M21.93 12.82l-.28-.414-.28-.414.002-.001.003-.003.013-.008a3.928 3.928 0 0 1 .199-.124c.132-.08.321-.186.55-.3.453-.223 1.085-.483 1.759-.59.672-.106 1.444-.068 2.111.379.675.452 1.142 1.255 1.342 2.467l-.986.163c-.172-1.041-.54-1.55-.913-1.8-.378-.254-.862-.306-1.398-.221-.534.085-1.064.298-1.472.5a6.998 6.998 0 0 0-.642.361l-.007.005h-.001z"></path><path d="M20.508 12.458c.123.426.302.904.534 1.372.486.978 1.12 1.734 1.772 1.952l1.049.35-.955.556c-1.975 1.152-3.724 3.488-4.985 6.122-1.258 2.629-1.985 5.464-1.985 7.534 0 2.486 1.05 4.374 2.748 5.654C20.4 37.29 22.8 37.981 25.5 37.981s5.1-.692 6.814-1.983c1.698-1.28 2.748-3.167 2.748-5.654 0-2.091-.737-4.926-2-7.549-1.267-2.63-3.017-4.955-4.972-6.108l-.946-.558 1.042-.347c.652-.218 1.285-.974 1.772-1.952a7.76 7.76 0 0 0 .68-1.988c-1.543-.008-2.485.278-3.033.552a2.422 2.422 0 0 0-.6.405 1.1 1.1 0 0 0-.118.133c0 .001 0 .001 0 0l.003-.004.002-.003v-.001s.002-.002-.43-.255l-.43-.255.002-.002.002-.005.006-.01a2.074 2.074 0 0 1 .27-.319c.18-.17.45-.38.846-.578.792-.396 2.061-.734 4.052-.643l.477.021v.478c0 .717-.317 1.879-.834 2.919-.37.743-.887 1.517-1.546 2.02 1.892 1.383 3.494 3.654 4.655 6.066 1.307 2.714 2.1 5.699 2.1 7.983 0 2.807-1.202 4.988-3.146 6.453-1.93 1.454-4.56 2.184-7.416 2.184-2.857 0-5.487-.73-7.416-2.184-1.944-1.465-3.146-3.646-3.146-6.453 0-2.261.781-5.245 2.083-7.965 1.157-2.418 2.76-4.7 4.669-6.087-.658-.503-1.174-1.275-1.543-2.017-.517-1.04-.834-2.202-.834-2.919v-1.111l.83.737.003.002.013.01c.012.01.03.027.056.047a7.73 7.73 0 0 0 1.104.728c.746.405 1.756.793 2.869.793v1c-1.338 0-2.516-.464-3.345-.913a8.913 8.913 0 0 1-.335-.191z"></path><path d="M29.043 16.625H22.35v-1h6.693v1z"></path><path d="M29.058 17.193l-.014-.5-.013-.5h.231c.141.002.341.008.581.024a10.08 10.08 0 0 1 1.775.271c.645.164 1.337.43 1.877.87.556.455.95 1.098.95 1.96h-1c0-.515-.22-.889-.583-1.185-.379-.31-.912-.528-1.491-.676a9.078 9.078 0 0 0-1.594-.242 10.006 10.006 0 0 0-.674-.022h-.046z"></path><path d="M29.103 16.362l.028-.5.028-.499h.008l.03.002.118.004a16.117 16.117 0 0 0 1.97-.075c1.22-.124 2.642-.42 3.655-1.076l.544.84c-1.218.787-2.836 1.103-4.099 1.23a17.09 17.09 0 0 1-2.232.076l-.036-.002H29.103zM25.938 24.325c-.991 0-1.688.691-1.688 1.512 0 .543.381 1.015.891 1.392a4.665 4.665 0 0 0 .96.541l.01.005.023.008.08.03a5.215 5.215 0 0 1 1.108.604c.597.43 1.303 1.161 1.303 2.233 0 1.41-1.271 2.513-2.688 2.513-1.459 0-2.687-1.06-2.687-2.513h1c0 .821.697 1.513 1.688 1.513.946 0 1.687-.735 1.687-1.513 0-.59-.388-1.062-.886-1.42a4.217 4.217 0 0 0-.948-.508l-.013-.005h-.002l-.008-.003-.008-.003.177-.467-.177.467h-.002l-.002-.001-.007-.003-.023-.01a4.405 4.405 0 0 1-.354-.16 5.66 5.66 0 0 1-.826-.504c-.583-.432-1.296-1.163-1.296-2.196 0-1.453 1.228-2.512 2.688-2.512 1.416 0 2.687 1.103 2.687 2.512h-1c0-.778-.741-1.512-1.688-1.512z"></path><path d="M25.481 34.894v-13.3h1v13.3h-1z"></path></g><defs><clipPath id="a"><path fill="#fff" transform="translate(15 10)" d="M0 0h21v29.313H0z"></path></clipPath></defs>
		</symbol>
	
		<symbol id="s-16" viewBox="0 0 50 50">
			<circle cx="25" cy="25" r="25" fill="#fff" fill-opacity=".15"></circle><path d="M19.035 11.29a6.406 6.406 0 0 0-1.846.295c-.178.061-.386.228-.444.45a.727.727 0 0 0 .079.535c.139.273.354.485.597.711.8.564 1.504 1.31 2.052 1.994.16.198.326.394.513.559.187.164.397.32.705.34.314.019.648-.092.82-.34.17-.248.161-.503.136-.712-.024-.209-.079-.4-.124-.558-.107-.351-.026-.63.033-.907.063-.256.148-.56.052-.914-.125-.454-.465-.729-.813-.97-.336-.223-.699-.348-1.067-.45a6.083 6.083 0 0 0-.693-.034zm-7.302.011a.442.442 0 0 0-.444.444v26.526c0 .244.2.441.444.44h26.526a.442.442 0 0 0 0-.884h-.561c-.578-1.722-1.508-2.958-2.579-4.034-1.134-1.141-2.421-2.118-3.681-3.378-.694-.693-1.27-2.08-1.838-3.583-.569-1.503-1.145-3.12-2.043-4.318-.678-.752-1.733-.894-2.672-.927-.982-.032-1.958-.033-2.412-.26-.614-.307-1.094-.922-1.563-1.733-.47-.812-.916-1.8-1.511-2.765-1.19-1.93-3.067-3.76-6.782-3.76h-.444v-1.325a.442.442 0 0 0-.44-.443zm7.452.857c.152 0 .305.015.462.044.232.083.45.18.646.3.45.303.466.536.405.947-.059.237-.15.53-.13.878.048.32.135.589.201.9.022.121-.149-.01-.2-.058a3.827 3.827 0 0 1-.407-.447c-.29-.361-.536-.764-.855-1.032-.539-.444-1.088-.833-1.501-1.302.48-.125.923-.234 1.379-.23zm-7.012 1.797h.444c3.438 0 4.915 1.536 6.028 3.342.557.902.996 1.874 1.497 2.741.26.45.54.877.87 1.243l-3.977.014a.442.442 0 1 0 .004.884l5.14-.017c.798.354 1.78.28 2.676.31.767-.001 1.58.078 1.994.575.774 1.031 1.354 2.585 1.926 4.096.433 1.146.854 2.27 1.432 3.146l-6.096.007a.442.442 0 0 0 0 .884l6.83-.01c1.266 1.246 2.512 2.2 3.552 3.246.953.959 1.738 1.984 2.266 3.411H12.173V13.955zm9.606 3.069a.662.662 0 1 0 .341.084.783.783 0 0 0-.34-.084zm6.709 2.834a.719.719 0 0 0-.52.336.78.78 0 0 0-.074.51c.042.3.166.572.316.861.3.58.79 1.164.862 1.433.235.638.417 1.217.689 1.795.12.218.264.437.548.558.29.123.64.13.884-.046.245-.177.322-.418.369-.623.046-.205.058-.404.068-.568.005-.33.188-.603.337-.845.145-.22.325-.477.352-.843.037-.493-.23-.85-.483-1.174a4.537 4.537 0 0 0-.721-.737c-.643-.52-1.452-.665-2.32-.665l-.307.008zm.372.953c.691.015 1.308.074 1.7.392.22.192.443.384.578.594.346.423.287.62.088.985a2.337 2.337 0 0 0-.477 1.276 1.986 1.986 0 0 1-.095.48c-.181-.218-.272-.512-.359-.734-.152-.437-.248-.898-.46-1.257-.373-.621-.723-1.093-.975-1.736zm2.647 5.093a.64.64 0 0 0-.322.087.663.663 0 1 0 .663-.003.782.782 0 0 0-.341-.083zm1.768 0a.637.637 0 0 0-.321.087.663.663 0 0 0 .332 1.237.663.663 0 1 0 .33-1.24.782.782 0 0 0-.341-.083zm.742 2.132c-.59 0-1.176.143-1.793.347-.003.001-.006.005-.01.006-.177.065-.38.244-.427.463a.735.735 0 0 0 .088.52c.139.266.351.48.59.707.786.571 1.496 1.315 2.04 1.995.16.198.326.393.512.558.187.164.398.323.706.342.314.02.647-.09.819-.339.171-.248.161-.502.137-.711-.025-.21-.079-.4-.124-.558-.126-.319-.026-.63.032-.908.063-.256.15-.56.053-.913-.13-.478-.502-.723-.849-.944a9 9 0 0 0-.963-.466 8.639 8.639 0 0 0-.811-.099zm1.298 1.31c.466.283.476.492.414.904a2.296 2.296 0 0 0-.022 1.357c.047.189.076.378.092.499l-.197-.136a3.828 3.828 0 0 1-.407-.448c-.29-.36-.537-.763-.856-1.03-.271-.228-.847-.658-1.266-1.055-.111-.105-.145-.164-.218-.251.46-.13.884-.24 1.286-.244.444-.012.838.218 1.174.404zm1.834 4.162a.661.661 0 0 0-.628.83.667.667 0 0 0 .64.493.665.665 0 1 0 .329-1.24.782.782 0 0 0-.341-.084z" fill="#fff"></path>
		</symbol>
	
		<symbol id="s-17" viewBox="0 0 50 50">
			<circle cx="25" cy="25" r="25" fill="#fff" fill-opacity=".15"></circle><path opacity=".58" d="M17.29 32.453c-.798 0-2.79-.469-4.29-4.687l-.117-.352-.375.047c-.281.023-.492-.047-.633-.234a.65.65 0 0 1-.07-.586c.07-.141.21-.235.422-.258l-.024-.352h6.914v-.937h-7.36v-.235l.727-.21v-.727c0-1.617.82-3.14 2.157-4.008v1.828h.937v-2.625a.05.05 0 0 1 .047-.047h2.438v-.937h-2.415a.957.957 0 0 0-.937.703 5.717 5.717 0 0 0-3.164 5.11v.023l-.727.21v1.876h.258c-.047.047-.094.117-.14.187-.235.492-.165 1.078.14 1.524.258.375.656.586 1.125.609.914 2.414 2.016 3.656 3 4.313l-3.515 1.687a2.182 2.182 0 0 0-1.243 1.969v3.187h5.86v-.937h-2.672v-.399h-.938v.399h-1.289v-2.227c0-.469.281-.914.703-1.125l3.094-1.5c.14.446.445.844.844 1.125l.515-.773a1.192 1.192 0 0 1-.539-.938c.516.188.938.258 1.243.258 2.554 0 4.125-2.86 4.687-4.078l-.844-.398c-1.453 3.164-3.164 3.515-3.82 3.515zM38.29 34.398l-3.517-1.687c.985-.656 2.086-1.922 3-4.313.47-.046.868-.257 1.125-.609a1.488 1.488 0 0 0 .141-1.523.951.951 0 0 0-.117-.211h.258V24.18l-.727-.211v-.024a5.744 5.744 0 0 0-3.164-5.11c-.14-.398-.492-.702-.937-.702h-2.438v.937h2.438c.023 0 .046.024.046.047v2.625h.938v-1.828c1.336.867 2.156 2.39 2.156 4.008v.726l.727.211v.235h-7.336v.937h6.914l-.024.352c.211.023.352.094.422.258a.658.658 0 0 1-.07.586c-.14.187-.352.257-.633.234l-.375-.047-.117.352c-1.523 4.242-3.516 4.687-4.29 4.687-.655 0-2.366-.351-3.82-3.539l-.843.398c.562 1.22 2.133 4.079 4.687 4.079a3.24 3.24 0 0 0 1.243-.258 1.258 1.258 0 0 1-.54.937l.516.774a2.22 2.22 0 0 0 .844-1.125l3.094 1.5c.422.21.703.656.703 1.125v2.226h-1.29v-.398h-.937v.398h-2.695v.938h5.86v-3.164c0-.82-.493-1.594-1.243-1.946z" fill="#fff"></path><path d="M32.547 32.852l-4.5-2.18v-.656c1.242-.938 2.601-2.649 3.75-5.696a1.854 1.854 0 0 0 1.476-.797c.446-.609.516-1.453.211-2.109a1.702 1.702 0 0 0-1.054-.914c-.117-5.438-2.883-8.672-7.43-8.672s-7.29 3.211-7.43 8.649v.023c-.468.14-.843.469-1.054.914-.305.656-.235 1.5.21 2.11.352.492.868.75 1.477.796 1.149 3.047 2.508 4.758 3.75 5.696v.656l-4.5 2.156a2.834 2.834 0 0 0-1.594 2.531v4.172h18.282v-4.148a2.834 2.834 0 0 0-1.594-2.531zm.094-11.063c.164.352.117.844-.118 1.172a.829.829 0 0 1-.375.305c.141-.563.235-1.22.282-1.782.07.094.14.188.21.305zM25 12.766c4.031 0 6.398 2.836 6.492 7.78-2.719.61-5.039-.585-7.078-1.64-1.71-.89-3.187-1.664-4.57-1.148a2.906 2.906 0 0 0-1.149.82c.61-3.726 2.836-5.812 6.305-5.812zM17.477 22.96c-.235-.328-.282-.82-.118-1.172a.688.688 0 0 1 .235-.281c.047.656.164 1.242.304 1.781a.861.861 0 0 1-.421-.328zm1.5.727c-.235-.844-.47-1.711-.47-2.813v-.21c.493-1.126 1.032-1.806 1.665-2.04.984-.375 2.297.305 3.82 1.102 1.688.867 3.68 1.921 6 1.921.469 0 .961-.046 1.477-.14-.07.703-.211 1.594-.422 2.18-2.11 5.882-4.922 6.515-6.047 6.515-1.102 0-3.914-.633-6.023-6.515zM25 31.14c.492 0 1.242-.094 2.11-.54v.516l-1.547 1.477-.024.023a.75.75 0 0 1-1.078 0l-1.57-1.5v-.515c.867.445 1.617.539 2.109.539zm-5.156 7.453v-.703h-.938v.703h-2.11v-3.211c0-.727.423-1.383 1.056-1.688l4.218-2.039 1.688 1.617c.07.07.14.141.234.211l-.586 5.11h-3.562zm4.5 0l.562-4.805h.14l.563 4.805h-1.265zm8.86 0h-2.11v-.703h-.938v.703h-3.562l-.61-5.11c.094-.07.164-.117.235-.21l1.687-1.618 4.219 2.04c.656.304 1.055.984 1.055 1.687v3.21h.023z" fill="#fff"></path>
		</symbol>
	
		<symbol id="s-18" viewBox="0 0 50 50">
			<circle cx="25" cy="25" r="25" fill="#273A4A" fill-opacity=".05"></circle><path fill-rule="evenodd" clip-rule="evenodd" d="M32.882 19.768c0-.744-.591-1.293-1.415-1.29h-.001c-.835 0-1.422.55-1.422 1.29 0 .655.425 1.284.938 1.47.153.053.317.083.48.083.17 0 .332-.028.478-.081h.001c.514-.185.94-.819.94-1.472zm-1.418-2.29c1.286-.004 2.418.906 2.418 2.29 0 1.01-.634 2.064-1.602 2.412a2.403 2.403 0 0 1-.817.141c-.286 0-.561-.052-.812-.139l-.005-.002c-.968-.348-1.602-1.399-1.602-2.412 0-1.382 1.13-2.29 2.422-2.29v.5l-.002-.5zM18.543 18.477c-.835 0-1.422.551-1.422 1.29 0 .656.425 1.285.938 1.472.153.052.317.082.481.082.17 0 .332-.028.477-.081h.001c.514-.185.941-.819.941-1.472 0-.744-.583-1.29-1.416-1.29zm-2.422 1.29c0-1.381 1.13-2.29 2.422-2.29 1.294 0 2.416.907 2.416 2.29 0 1.01-.633 2.065-1.602 2.413a2.404 2.404 0 0 1-.817.141c-.286 0-.561-.052-.812-.139l-.005-.002c-.968-.348-1.602-1.399-1.602-2.412zM25 15.196c-.688 0-1.158.452-1.158 1.044 0 .54.355 1.057.765 1.205a1.188 1.188 0 0 0 .785 0c.414-.15.766-.667.766-1.205 0-.595-.469-1.044-1.158-1.044zm-2.158 1.044c0-1.235 1.013-2.044 2.158-2.044s2.158.805 2.158 2.044c0 .897-.56 1.833-1.429 2.146l-.004.002a2.187 2.187 0 0 1-1.45 0l-.003-.001c-.866-.31-1.43-1.247-1.43-2.147zM16.85 25.157c-1.002 0-1.727.668-1.727 1.577 0 .788.511 1.555 1.143 1.782a1.783 1.783 0 0 0 1.17.001c.635-.229 1.146-.995 1.146-1.783 0-.908-.73-1.577-1.732-1.577zm-2.727 1.577c0-1.55 1.267-2.577 2.727-2.577 1.457 0 2.732 1.024 2.732 2.577 0 1.146-.72 2.331-1.806 2.723a2.781 2.781 0 0 1-1.841.002h-.004c-1.09-.39-1.808-1.58-1.808-2.725zM15.651 30.94a1.59 1.59 0 0 0-1.583 1.583v.581h4.822c.047-.542.2-1.056.44-1.517a1.586 1.586 0 0 0-1.276-.647H15.65zm-2.583 1.583a2.59 2.59 0 0 1 2.583-2.583h2.403a2.59 2.59 0 0 1 2.302 1.409.5.5 0 0 1-.02.493 3.04 3.04 0 0 0-.461 1.613v.15a.5.5 0 0 1-.5.5h-5.402a.905.905 0 0 1-.905-.905v-.677zM34.874 26.734c0-.91-.726-1.58-1.728-1.577h-.002c-1 0-1.726.668-1.726 1.577 0 .784.51 1.552 1.141 1.782a1.782 1.782 0 0 0 1.168.001c.636-.229 1.147-.995 1.147-1.783zm-1.73-2.577c1.464-.003 2.73 1.027 2.73 2.577 0 1.146-.72 2.331-1.806 2.723a2.781 2.781 0 0 1-1.841.002l-.006-.002c-1.084-.392-1.803-1.58-1.803-2.723 0-1.55 1.267-2.577 2.726-2.577zm0 0v.5-.5zM30.67 31.587c.24.462.393.974.44 1.518h4.822v-.582c0-.868-.713-1.583-1.587-1.586h-2.402c-.518 0-.984.256-1.274.65zm-1.026-.238a2.59 2.59 0 0 1 2.3-1.412h2.403a2.594 2.594 0 0 1 2.585 2.586v.677a.905.905 0 0 1-.905.904h-5.402a.5.5 0 0 1-.5-.5v-.149c0-.592-.168-1.142-.461-1.614a.5.5 0 0 1-.02-.492zM25 20.985c-1.878 0-3.314 1.272-3.314 3.057 0 .728.233 1.526.638 2.2.407.677.957 1.184 1.555 1.398a3.344 3.344 0 0 0 2.241 0c.597-.215 1.148-.722 1.555-1.4.405-.673.64-1.47.64-2.198 0-1.785-1.438-3.057-3.315-3.057zm-4.314 3.057c0-2.428 1.979-4.057 4.314-4.057s4.314 1.63 4.314 4.057c0 .927-.293 1.9-.782 2.714-.488.811-1.2 1.51-2.073 1.826h-.002a4.344 4.344 0 0 1-2.914 0c-.877-.313-1.588-1.013-2.076-1.825-.49-.814-.781-1.788-.781-2.715z" fill="#273A4A"></path><path fill-rule="evenodd" clip-rule="evenodd" d="M22.943 30.384a3.073 3.073 0 0 0-3.068 3.071v1.157c0 .107.088.195.194.195h9.862c.104 0 .194-.09.194-.195v-1.157a3.08 3.08 0 0 0-3.068-3.071h-4.114zm-3.457.93a4.073 4.073 0 0 1 3.457-1.93h4.114a4.08 4.08 0 0 1 3.456 1.928v.002c.388.623.612 1.356.612 2.141v1.157c0 .657-.537 1.195-1.194 1.195h-9.862a1.196 1.196 0 0 1-1.194-1.195v-1.157c0-.785.224-1.518.611-2.141z" fill="#273A4A"></path>
		</symbol>
	
		<symbol id="s-2" viewBox="0 0 50 50">
			<circle cx="25" cy="25" r="25" fill="#fff" fill-opacity=".15"></circle><path d="M33.166 15h-18.33a3.12 3.12 0 0 0-3.118 3.117v11.764a3.12 3.12 0 0 0 3.117 3.117h12.962c.18 0 .347.071.47.195l3.357 3.356a.936.936 0 0 0 1.02.205.935.935 0 0 0 .578-.866v-2.89a3.119 3.119 0 0 0 3.061-3.117V18.114A3.117 3.117 0 0 0 33.166 15zm2.184 14.877a2.187 2.187 0 0 1-2.184 2.184.879.879 0 0 0-.878.878v2.941h-.003l-3.357-3.352a1.593 1.593 0 0 0-1.13-.47H14.834a2.187 2.187 0 0 1-2.184-2.184v-11.76c0-1.203.978-2.184 2.184-2.184H33.17c1.203 0 2.184.978 2.184 2.184v11.763h-.003z" fill="#fff"></path><path d="M32.606 19.518h-17.21a.467.467 0 0 0 0 .933h17.21a.467.467 0 0 0 0-.933zM32.606 22.13h-17.21a.467.467 0 0 0 0 .934h17.21a.467.467 0 0 0 0-.933zM32.606 24.744h-17.21a.467.467 0 0 0 0 .933h17.21a.467.467 0 0 0 0-.933zM25.755 27.544h-10.36a.467.467 0 0 0 0 .933h10.36a.467.467 0 0 0 0-.933z" fill="#fff"></path>
		</symbol>
	
		<symbol id="s-3" viewBox="0 0 50 50">
			<circle cx="25" cy="25" r="25" fill="#fff" fill-opacity=".15"></circle><path d="M35.313 17.969h-5.157v-1.407a2.346 2.346 0 0 0-2.343-2.343h-5.625a2.346 2.346 0 0 0-2.344 2.344v1.406h-5.156a1.408 1.408 0 0 0-1.406 1.406v15a1.408 1.408 0 0 0 1.406 1.406h20.625a1.407 1.407 0 0 0 1.407-1.406v-15a1.408 1.408 0 0 0-1.407-1.406zm-14.532-1.407a1.408 1.408 0 0 1 1.407-1.406h5.625a1.409 1.409 0 0 1 1.406 1.406v1.407H20.78v-1.407zm15.001 17.813a.469.469 0 0 1-.468.469H14.687a.47.47 0 0 1-.468-.469v-15a.47.47 0 0 1 .468-.469h20.625a.47.47 0 0 1 .47.469v15z" fill="#fff"></path><path fill-rule="evenodd" clip-rule="evenodd" d="M25 21.516l1.867 2.915 3.349.874-2.196 2.676.204 3.455L25 30.175l-3.223 1.261.204-3.455-2.196-2.676 3.35-.874L25 21.516zm-1.36 3.61l-2.444.638 1.602 1.951-.149 2.52 2.351-.92 2.352.92-.149-2.52 1.602-1.951-2.443-.638L25 23l-1.362 2.126z" fill="#fff"></path>
		</symbol>
	
		<symbol id="s-4" viewBox="0 0 50 50">
			<circle cx="25" cy="25" r="25" fill="#fff" fill-opacity=".15"></circle><path fill-rule="evenodd" clip-rule="evenodd" d="M14.9 14.18c-.67.649-1.072 1.474-1.072 2.551 0 7.329 2.286 12.705 4.842 16.243 1.28 1.771 2.626 3.08 3.784 3.942.58.431 1.108.748 1.552.954.454.21.79.293.994.293.204 0 .54-.082.993-.293a9.094 9.094 0 0 0 1.552-.954c1.159-.862 2.505-2.17 3.784-3.941 2.556-3.539 4.842-8.915 4.842-16.244 0-1.09-.402-1.92-1.072-2.57-.68-.661-1.65-1.148-2.792-1.499-2.285-.703-5.125-.824-7.307-.824-2.18 0-5.022.132-7.307.84-1.141.354-2.112.842-2.793 1.502zm2.556-2.266c2.408-.746 5.353-.876 7.544-.876 2.19 0 5.134.119 7.542.86 1.206.37 2.308.906 3.115 1.689.817.793 1.314 1.828 1.314 3.144 0 7.503-2.342 13.042-4.993 16.712-1.325 1.833-2.727 3.201-3.955 4.115a9.875 9.875 0 0 1-1.693 1.038c-.496.23-.956.367-1.33.367-.375 0-.835-.137-1.33-.367a9.875 9.875 0 0 1-1.693-1.038c-1.228-.914-2.63-2.282-3.955-4.115-2.651-3.67-4.994-9.209-4.994-16.712 0-1.306.499-2.335 1.315-3.126.806-.78 1.908-1.317 3.113-1.69z" fill="#fff"></path><path fill-rule="evenodd" clip-rule="evenodd" d="M17.427 14.701c-1.432.643-1.842 1.417-1.842 2.03 0 6.763 2.02 11.617 4.226 14.818 1.104 1.602 2.255 2.79 3.224 3.596.484.404.92.709 1.28.922.303.18.534.284.684.332.15-.048.382-.152.686-.332.359-.213.795-.518 1.28-.922.968-.806 2.119-1.994 3.223-3.596 2.206-3.2 4.226-8.055 4.226-14.818 0-.613-.41-1.387-1.843-2.03-1.436-.645-3.824-1.113-7.572-1.113-3.747 0-6.136.468-7.572 1.113zm-.327-.73c1.585-.712 4.104-1.183 7.9-1.183 3.795 0 6.314.471 7.899 1.183 1.59.713 2.315 1.71 2.315 2.76 0 6.931-2.073 11.943-4.367 15.272-1.146 1.663-2.347 2.905-3.371 3.757-.512.426-.983.757-1.383.995-.392.233-.742.391-1.01.449l-.084.018-.084-.018c-.267-.058-.617-.216-1.009-.45a10.95 10.95 0 0 1-1.383-.994c-1.024-.852-2.225-2.094-3.37-3.757-2.295-3.33-4.368-8.34-4.368-15.272 0-1.05.726-2.047 2.315-2.76z" fill="#fff"></path><path fill-rule="evenodd" clip-rule="evenodd" d="M24.643 36.725V13.187h.8v23.538h-.8z" fill="#fff"></path><path fill-rule="evenodd" clip-rule="evenodd" d="M16.043 23.725h18v.8h-18v-.8z" fill="#fff"></path>
		</symbol>
	
		<symbol id="s-5" viewBox="0 0 50 50">
			<circle cx="25" cy="25" r="25" fill="#fff" fill-opacity=".15"></circle><path fill-rule="evenodd" clip-rule="evenodd" d="M16.027 34.04a.432.432 0 0 0 .613 0l1.86-1.86 1.86 1.86a.432.432 0 0 0 .613 0 .433.433 0 0 0 0-.613l-1.86-1.86 1.86-1.86a.433.433 0 1 0-.613-.613l-1.86 1.86-1.86-1.86a.433.433 0 1 0-.613.612l1.86 1.86-1.86 1.861a.433.433 0 0 0 0 .613zM28.9 33.3h5.2a.433.433 0 0 0 0-.867h-5.2a.434.434 0 0 0 0 .867zm0-2.6h5.2a.433.433 0 0 0 0-.867h-5.2a.434.434 0 0 0 0 .867zm0-12.133a.433.433 0 0 0 0 .866h5.2a.433.433 0 0 0 0-.866h-5.2zm-10.4 3.466c.24 0 .433-.194.433-.433v-2.167H21.1a.433.433 0 0 0 0-.866h-2.167V16.4a.433.433 0 0 0-.866 0v2.167H15.9a.433.433 0 0 0 0 .866h2.167V21.6c0 .24.194.433.433.433zM38 14.667v21.666c0 1.114-1.053 2.167-2.167 2.167H14.167C13.053 38.5 12 37.447 12 36.333V14.667c0-1.114 1.053-2.167 2.167-2.167h8.666a.434.434 0 0 1 0 .867h-8.666c-.632 0-1.3.668-1.3 1.3v21.666c0 .632.668 1.3 1.3 1.3h21.666c.632 0 1.3-.668 1.3-1.3V14.667c0-.632-.668-1.3-1.3-1.3h-10.4v11.266h10.4a.434.434 0 0 1 0 .867h-10.4v10.833a.434.434 0 0 1-.866 0V25.5h-10.4a.434.434 0 0 1 0-.867h10.4v-11.7c0-.239.194-.433.433-.433h10.833c1.114 0 2.167 1.053 2.167 2.167z" fill="#fff"></path>
		</symbol>
	
		<symbol id="s-6" viewBox="0 0 50 50">
			<circle cx="25" cy="25" r="25" fill="#fff" fill-opacity=".15"></circle><path fill-rule="evenodd" clip-rule="evenodd" d="M18.023 36.033a.36.36 0 0 0 .51 0l1.55-1.55 1.55 1.55a.36.36 0 1 0 .512-.51l-1.55-1.55 1.55-1.551a.36.36 0 1 0-.511-.51l-1.55 1.55-1.55-1.55a.36.36 0 1 0-.511.51l1.55 1.55-1.55 1.55a.36.36 0 0 0 0 .511zm10.727-.616h4.334a.361.361 0 0 0 0-.723H28.75a.361.361 0 0 0 0 .723zm0-2.167h4.334a.361.361 0 0 0 0-.722H28.75a.361.361 0 0 0 0 .722zm0-10.111a.361.361 0 0 0 0 .722h4.334a.361.361 0 0 0 0-.722H28.75zm-8.666 2.889c.199 0 .36-.162.36-.361V23.86h1.806a.361.361 0 0 0 0-.722h-1.805v-1.806a.361.361 0 0 0-.723 0v1.806h-1.805a.361.361 0 0 0 0 .722h1.805v1.806c0 .199.162.36.362.36zm16.25-6.14v18.056c0 .928-.878 1.806-1.806 1.806H16.473c-.928 0-1.806-.878-1.806-1.806V19.89c0-.928.877-1.806 1.806-1.806h7.222a.361.361 0 0 1 0 .723h-7.223c-.526 0-1.083.556-1.083 1.083v18.055c0 .527.557 1.084 1.084 1.084h18.055c.527 0 1.083-.557 1.083-1.084V19.89c0-.527-.556-1.084-1.083-1.084h-8.667v9.39h8.667a.361.361 0 0 1 0 .722h-8.667v9.027a.361.361 0 0 1-.722 0v-9.027h-8.666a.361.361 0 0 1 0-.723h8.666v-9.75c0-.199.162-.36.361-.36h9.028c.928 0 1.806.877 1.806 1.805zM25.5 6.516l1.696 2.65 3.043.794-1.995 2.432.185 3.14-2.93-1.146-2.929 1.146.185-3.14L20.76 9.96l3.043-.794 1.697-2.65zm-1.192 3.345l-2.137.557 1.401 1.708-.13 2.206 2.058-.805 2.057.805-.13-2.206 1.401-1.707-2.137-.558L25.5 8l-1.192 1.86z" fill="#fff"></path>
		</symbol>
	
		<symbol id="s-7" viewBox="0 0 50 50">
			<circle cx="25" cy="25" r="25" fill="#fff" fill-opacity=".15"></circle><path d="M26.998 39.999h-4a1.124 1.124 0 0 1-1.122-1.123V36.23a11.428 11.428 0 0 1-2.608-1.085l-1.874 1.874a1.149 1.149 0 0 1-1.588 0L12.98 34.19a1.112 1.112 0 0 1-.33-.794c0-.3.118-.581.33-.793l1.908-1.908a11.396 11.396 0 0 1-1.032-2.574H11.12c-.617 0-1.12-.503-1.12-1.122V23c0-.619.502-1.123 1.12-1.123h2.825c.256-.856.611-1.68 1.061-2.458l-2.026-2.026a1.107 1.107 0 0 1-.33-.79c0-.3.117-.583.33-.796l2.826-2.829a1.153 1.153 0 0 1 1.587-.002l2.087 2.088a11.44 11.44 0 0 1 2.397-.97v-2.973c0-.619.503-1.121 1.122-1.121h3.999c.619 0 1.122.502 1.122 1.12v2.996a11.45 11.45 0 0 1 2.37.977l2.115-2.115c.422-.422 1.164-.422 1.586 0l2.828 2.83c.437.439.437 1.15 0 1.585l-2.078 2.079c.435.76.78 1.567 1.03 2.405h2.904c.62 0 1.125.503 1.125 1.123v3.998c0 .62-.505 1.123-1.125 1.123H36.06c-.233.878-.57 1.724-1.003 2.52l1.962 1.962a1.126 1.126 0 0 1 .001 1.586l-2.83 2.828c-.42.424-1.164.425-1.587-.001L30.7 35.112c-.815.472-1.68.84-2.58 1.096v2.668c0 .62-.503 1.123-1.122 1.123zm-7.874-6.035l.315.193c.935.574 1.95.996 3.017 1.256l.358.087v3.377c0 .102.083.185.185.185h3.999a.183.183 0 0 0 .185-.185v-3.393l.355-.089a10.481 10.481 0 0 0 2.987-1.27l.316-.197 2.427 2.428a.182.182 0 0 0 .259.002l2.83-2.829a.186.186 0 0 0-.001-.262l-2.469-2.47.183-.313c.535-.912.928-1.9 1.167-2.936l.085-.363h3.553a.186.186 0 0 0 .188-.185v-3.999a.187.187 0 0 0-.188-.185h-3.621l-.092-.35a10.49 10.49 0 0 0-1.21-2.822l-.194-.315 2.598-2.598a.184.184 0 0 0-.001-.26l-2.828-2.829a.184.184 0 0 0-.13-.053.183.183 0 0 0-.13.053l-2.625 2.625-.314-.185a10.495 10.495 0 0 0-2.792-1.15l-.354-.09v-3.72a.182.182 0 0 0-.185-.184h-3.999a.184.184 0 0 0-.185.183v3.705l-.358.087c-.99.24-1.938.624-2.818 1.14l-.313.182-2.593-2.594a.188.188 0 0 0-.264.002l-2.824 2.828a.184.184 0 0 0-.055.13c0 .029.007.082.053.128l2.55 2.55-.197.316a10.5 10.5 0 0 0-1.24 2.871l-.093.35h-3.54c-.101 0-.184.083-.184.185V27c0 .102.083.184.183.184h3.476l.084.364a10.454 10.454 0 0 0 1.195 2.988l.186.313-2.418 2.419a.184.184 0 0 0 0 .26l2.826 2.828a.185.185 0 0 0 .263 0l2.392-2.392zM25 31.874a6.882 6.882 0 0 1-6.875-6.873A6.882 6.882 0 0 1 25 18.126a6.882 6.882 0 0 1 6.874 6.875A6.882 6.882 0 0 1 25 31.874zm0-12.81A5.943 5.943 0 0 0 19.062 25 5.943 5.943 0 0 0 25 30.938 5.943 5.943 0 0 0 30.936 25 5.943 5.943 0 0 0 25 19.064z" fill="#fff"></path>
		</symbol>
	
		<symbol id="s-8" viewBox="0 0 50 50">
			<circle cx="25" cy="25" r="25" fill="#273A4A" fill-opacity=".05"></circle><path d="M25 35.617c4.57 0 9.164-.773 13.523-2.297l.305-.117V30.18l-1.64-.47V27.72c0-4.688-2.696-8.953-6.915-10.992v-.493a1.63 1.63 0 0 0-1.64-1.64h-3.164v-.938h-.938v.938h-3.164a1.63 1.63 0 0 0-1.64 1.64v.493c-4.22 2.039-6.915 6.328-6.915 10.992v1.992l-1.64.469v3.023l.305.117c4.359 1.547 8.953 2.297 13.523 2.297zm-12.89-4.71l1.64-.47V27.72c0-4.172 2.32-7.992 5.977-9.938v4.313h.937v-5.86a.69.69 0 0 1 .703-.703h3.164v9.844h.938v-9.844h3.164a.69.69 0 0 1 .703.703v5.86h.937V17.78a11.274 11.274 0 0 1 5.977 9.938v2.695l1.64.469v1.664a40.126 40.126 0 0 1-25.78 0v-1.64z" fill="#273A4A"></path><path d="M33.203 29.594H16.797v.937h16.406v-.937z" fill="#273A4A"></path>
		</symbol>
	
		<symbol id="s-9" viewBox="0 0 50 50">
			<circle cx="25" cy="25" r="25" fill="#fff" fill-opacity=".15"></circle><g clip-path="url(#a)" fill="#fff"><path d="M39.993 33.307c-.755-4.19-3.859-7.56-8.028-8.814a5.628 5.628 0 0 0-3.527-10.017c-.547 0-.936.077-1.353.192a.433.433 0 0 0-.102.792c2.337 1.347 2.74 3.663 2.772 4.923.037 1.453-.58 3.415-2.018 4.289a.433.433 0 0 0 .118.79c3.758.957 6.697 3.924 8.062 8.086.058.178.224.328.411.328h3.24c.128 0 .249-.087.331-.185a.5.5 0 0 0 .094-.384zm-3.355-.297c-1.395-4.113-4.18-6.917-7.748-8.115.975-.94 1.78-2.549 1.73-4.52-.053-2.082-.857-3.833-2.291-5.024.035 0 .072-.005.11-.005a4.767 4.767 0 0 1 4.763 4.762 4.764 4.764 0 0 1-2.487 4.183.432.432 0 0 0-.222.442c.026.179.16.353.338.39 4.122.89 7.29 3.99 8.205 7.887h-2.398z"></path><path d="M26.806 25.412a6.277 6.277 0 1 0-10.13-4.957c0 1.957.908 3.779 2.423 4.957-4.72 1.383-8.24 5.178-9.092 9.903a.431.431 0 0 0 .426.51h25.04a.432.432 0 0 0 .426-.51c-.851-4.725-4.372-8.52-9.093-9.903zm-15.843 9.546c1.014-4.546 4.606-7.936 9.286-8.946a.433.433 0 0 0 .116-.803 5.413 5.413 0 0 1 2.589-10.167 5.419 5.419 0 0 1 5.412 5.413 5.414 5.414 0 0 1-2.825 4.754.432.432 0 0 0 .116.803c4.68 1.01 8.273 4.4 9.286 8.946h-23.98z"></path></g><defs><clipPath id="a"><path fill="#fff" transform="translate(10 10)" d="M0 0h30v30H0z"></path></clipPath></defs>
		</symbol>
	
		<symbol id="s-dot" viewBox="0 0 4 4">
			<circle cx="2" cy="2" r="2" transform="rotate(-90 2 2)" fill="#fff"></circle>
		</symbol>
	
		<symbol id="search" viewBox="0 0 39 39">
			<path d="M17.875 30.875c7.18 0 13-5.82 13-13s-5.82-13-13-13-13 5.82-13 13 5.82 13 13 13zM34.123 34.123l-7.068-7.068" stroke="#115EA0" stroke-linecap="round" stroke-linejoin="round"></path>
		</symbol>
	
		<symbol id="search-white" viewBox="0 0 39 39">
			<path d="M17.875 30.875c7.18 0 13-5.82 13-13s-5.82-13-13-13-13 5.82-13 13 5.82 13 13 13zM34.123 34.123l-7.068-7.068" stroke="#fff" stroke-linecap="round" stroke-linejoin="round"></path>
		</symbol>
	
		<symbol id="separator" viewBox="0 0 6 11">
			<path d="M1.25 9.134L5.256 5.5 1.25 1.866v7.268z" stroke="#78AACC"></path>
		</symbol>
	
		<symbol id="strokes" viewBox="0 0 19 19">
			<path d="M1 18s1.266-2.6 3.424-5.546c2.398-3.276 5.9-6.98 9.986-8.013" stroke="#fff" stroke-miterlimit="10" stroke-linecap="round" stroke-linejoin="round"></path><path d="M18 1.136C1.5-.458 4.422 12.452 4.422 12.452s12.875 6.269 13.576-11.316z" stroke="#fff" stroke-miterlimit="10" stroke-linecap="round" stroke-linejoin="round"></path>
		</symbol>
	
		<symbol id="truck" viewBox="0 0 57 57">
			<g clip-path="url(#a)"><mask id="b" style="mask-type:alpha" maskUnits="userSpaceOnUse" x="4" y="7" width="50" height="51"><circle cx="28.642" cy="32.599" r="3.749" stroke="#fff" stroke-width="1.7"></circle><circle cx="28.525" cy="32.478" r="8.347" stroke="#fff" stroke-width="1.7"></circle><circle cx="28.642" cy="32.596" r="13.417" stroke="#fff" stroke-width="1.7"></circle><circle cx="28.643" cy="32.596" r="18.605" stroke="#fff" stroke-width="1.7"></circle><circle cx="28.526" cy="32.479" r="23.676" stroke="#fff" stroke-width="1.7"></circle></mask><path fill="#fff" d="M2 33h53v31H2z" mask="url(#b)"></path><path d="M34.668 7.18H11.543v15.154h23.125V7.18zM34.668 11.297h6.167l4.625 4.75v6.288H34.668V11.297zM18.48 30.253c2.128 0 3.853-1.773 3.853-3.959s-1.725-3.958-3.854-3.958c-2.128 0-3.854 1.772-3.854 3.958s1.726 3.959 3.854 3.959zM38.522 30.253c2.129 0 3.854-1.773 3.854-3.959s-1.725-3.958-3.854-3.958c-2.128 0-3.854 1.772-3.854 3.958s1.726 3.959 3.854 3.959z" stroke="#fff" stroke-width="1.5" stroke-linecap="round"></path></g><defs><clipPath id="a"><path fill="#fff" d="M0 0h57v57H0z"></path></clipPath></defs>
		</symbol>
	
		<symbol id="wash-hand" viewBox="0 0 57 57">
			<path d="M55.94 30.4a.587.587 0 0 0-.783-.273c-1.128.534-4.992 2.447-6.541 3.194-3.917-4.593-8.963-8.335-14.25-10.578.186-.18.393-.336.616-.466.68-.364.158-1.385-.536-1.045-.334.158-.775.532-1.28 1.031a4.458 4.458 0 0 0-.908.956c-1.737 1.897-3.819 4.487-4.865 4.99-1.194.483-2.89-.159-4.03-1.062.785-2.347 1.57-4.663 2.043-7.008 2.044-1.948 5.002-4.342 7.737-4.493 2.822-.153 8.111 1.366 10.218 4.537.458.62 1.394-.047.956-.683a9.954 9.954 0 0 0-1.566-1.71c3.652-1.55 9.058-4.047 12.827-5.862.687-.346.193-1.38-.51-1.057-3.975 1.913-9.772 4.586-13.388 6.098a15.226 15.226 0 0 0-8.632-2.493c-.937.006-2.046.36-3.196.937-2.135-.853-4.598-1.443-6.598-.835-3.54 1.08-6.894 4.314-8.114 5.588-4.553-1.709-8.704-3.643-13.21-5.779-.702-.315-1.201.706-.507 1.06 4.473 2.122 8.598 4.036 13.107 5.745a.58.58 0 0 0 .484.46c.07.004 5.26.787 8.476 1.265-.399 1.354-.88 2.803-1.366 4.228a.588.588 0 0 0 .16.624c1.055.962 2.663 1.783 4.185 1.783 2.155.015 3.23-1.817 5.343-4.072a82.1 82.1 0 0 1 1.608-1.79c5.504 2.328 10.281 5.735 14.135 10.199.232.306.478.6.74.88.472.544.964 1.149.743 1.918-.308 1.22-.75 2.202-1.31 2.92a1.524 1.524 0 0 1-2.072.298c-1.51-1.592-2.914-3.23-4.617-4.698l.745-.937c.47-.61-.428-1.326-.919-.73l-2.709 3.407a.587.587 0 0 0 .919.731l1.234-1.552c1.711 1.492 3.074 3.081 4.496 4.598.345 1.373-.857 2.768-1.826 3.52a2.227 2.227 0 0 1-2.826-.207 139.602 139.602 0 0 0-3.96-3.63.587.587 0 0 0-.776.882 136.31 136.31 0 0 1 3.864 3.538c.26 1.458-1.43 2.662-2.59 3.118-.242.09-.502.126-.76.102.181-1.15-.83-2.502-2.667-3.06l.27-.34c.47-.61-.428-1.326-.919-.729l-.803 1.01a6.91 6.91 0 0 0-1.098.237c-.667-1.991-2.929-2.556-4.912-2.38-.052-2.49-2.417-3.782-4.986-3.802a3.07 3.07 0 0 0-1.458.358c-.95-1.753-3.149-2.858-5.653-2.694a2.149 2.149 0 0 0-1.506.776l-1.502 1.823a26.812 26.812 0 0 1-1.505-2.094c-2.482-1.08-4.825-2.132-7.248-3.385a.586.586 0 0 0-.536 1.043c2.37 1.213 4.634 2.27 7.066 3.3.456.713.944 1.398 1.465 2.056l-2.082 2.527a.583.583 0 0 0-.084.134c-.536 1.203.314 2.89 1.393 4.028 1.533 1.591 3.174 2.138 4.839 1.026 1.43 1.497 4.922 3.382 7.115 1.822.972 1.436 4.845 2.44 6.545 1.308.81.98 3.306 1.658 4.803 1.18 1.133-.57 2.483-1.723 3.115-2.994 1.948.305 4.618-1.769 4.868-3.608a3.371 3.371 0 0 0 3.219-.397c1.153-.88 2.32-2.318 2.37-3.884 2.511.401 3.518-2.11 4.135-4.332.27-.99-.109-1.996-.79-2.722 1.378-.672 5.414-2.66 6.284-3.071a.587.587 0 0 0 .272-.784zm-37.835-9.476H18.1l-1.794-.267c.231-.231.508-.501.825-.795.001-.003.001-.003.003-.001 1.537-1.43 3.993-3.407 6.463-4.16 1.44-.439 3.23-.117 4.924.466a23.166 23.166 0 0 0-4.093 3.305.597.597 0 0 0-.142.285c-.116.618-.277 1.299-.471 2.02l-5.709-.853zm12.678 26.02c.044-.197.075-.397.094-.598 1.209-.359 1.918-.411 2.677.026.663.395 1.201.82 1.242 1.42-.084 1.398-1.974 2.954-2.764 3.31-1.061.313-2.983-.317-3.403-.758a6.305 6.305 0 0 0 2.154-3.4zm-18.088.287c-1.508.615-4.293-2.471-3.874-3.864l4.284-5.196h.001a.96.96 0 0 1 .676-.352c2.395-.144 4.399 1.01 4.833 2.85-1.61 2.852-3.013 5.233-5.92 6.562zm7.21 1.783c-1.329.497-3.858-.772-4.898-1.78 2.173-1.664 3.303-3.62 4.74-6.186a.789.789 0 0 0 .023-.59c.312-.201.675-.306 1.046-.302 1.55 0 2.818.547 3.484 1.499a1.92 1.92 0 0 1 .174 1.832c-1.2 2.631-2.212 4.346-4.568 5.527zm2.177.007c.04-.033.08-.067.119-.102 1.491-1.327 2.4-2.805 3.326-4.91 1.973-.358 4.746.405 4.082 2.828a5.497 5.497 0 0 1-2.893 3.361c-1.355.377-3.897-.19-4.634-1.177z" fill="#fff"></path>
		</symbol>
	
</svg>
